SplineFontDB: 3.2
FontName: twemoji_faces
FullName: twemoji_faces
FamilyName: twemoji_faces
Weight: Regular
Copyright: dragon dick cock
UComments: "2023-7-8: Created with FontForge (http://fontforge.org)"
Version: 001.000
DefaultBaseFilename: test2
ItalicAngle: 0
UnderlinePosition: -108
UnderlineWidth: 48
Ascent: 672
Descent: 96
InvalidEm: 0
LayerCount: 2
Layer: 0 0 "Back" 1
Layer: 1 1 "Fore" 0
XUID: [1021 677 1622773792 2229825]
BaseHoriz: 0
StyleMap: 0x0000
FSType: 0
OS2Version: 0
OS2_WeightWidthSlopeOnly: 1
OS2_UseTypoMetrics: 1
CreationTime: 1688857346
ModificationTime: 1691438093
PfmFamily: 81
TTFWeight: 400
TTFWidth: 5
LineGap: 0
VLineGap: 0
Panose: 5 2 1 3 1 2 2 2 2 2
OS2TypoAscent: 756
OS2TypoAOffset: 0
OS2TypoDescent: -108
OS2TypoDOffset: 0
OS2TypoLinegap: 0
OS2WinAscent: 770
OS2WinAOffset: 0
OS2WinDescent: -120
OS2WinDOffset: 0
HheadAscent: 756
HheadAOffset: 0
HheadDescent: -108
HheadDOffset: 0
OS2FamilyClass: 3072
OS2Vendor: '12;;'
Lookup: 4 0 0 "'ccmp' Glyph Composition/Decomposition lookup 0" { "'ccmp' Glyph Composition/Decomposition lookup 0-1"  } ['ccmp' ('DFLT' <'dflt' > ) ]
MarkAttachClasses: 1
DEI: 91125
LangName: 1033
GaspTable: 1 65535 2 0
Encoding: Custom
UnicodeInterp: none
NameList: AGL For New Fonts
DisplaySize: -72
AntiAlias: 1
FitToEm: 0
WinInfo: 414 18 8
BeginPrivate: 0
EndPrivate
Grid
1560 288 m 0
 -744 288 l 1024
  Named: "center"
-4 -4 m 25
 4 4 l 1041
4 -4 m 9
 -4 4 l 1049
888 1056 m 0
 888 -480 l 1024
  Named: "right"
24 1056 m 0
 24 -480 l 1024
  Named: "left"
-744 -144 m 0
 1560 -144 l 1024
  Named: "bottom"
-744 720 m 0
 1560 720 l 1024
  Named: "top"
EndSplineSet
TeXData: 1 0 0 346030 173015 115343 233017 1048576 115343 783286 444596 497025 792723 393216 433062 380633 303038 157286 324010 404750 52429 2506097 1059062 262144
BeginChars: 564 553

StartChar: .notdef
Encoding: 0 -1 0
Width: 912
Flags: W
LayerCount: 2
Fore
SplineSet
170 263 m 25,0,-1
 568 281 l 25,1,-1
 270 515 l 25,2,-1
 376 149 l 25,3,-1
 504 529 l 25,4,-1
 170 263 l 25,0,-1
EndSplineSet
EndChar

StartChar: eyebrow_holding_tears
Encoding: 3 -1 3
Width: 912
GlyphClass: 5
Flags: MW
LayerCount: 2
Back
SplineSet
0 -24 m 0
 -13.2459 -24 -24 -13.2459 -24 0 c 0
 -24 13.2459 -13.2459 24 0 24 c 2
 0 24 l 2
 0.0001 24 -0.2586 23.9982 -0.2586 23.9982 c 1
 -0.2586 23.9982 -0.291 23.9974 -0.2698 23.998 c 0
 -0.1988 23.9998 0.6733 24.0255 2.2247 24.1853 c 0
 3.6211 24.329 5.5676 24.5814 7.9769 25.0211 c 0
 12.8573 25.9116 19.6292 27.5701 27.6103 30.6397 c 0
 33.9968 33.0961 41.1581 36.4537 48.785 41.0601 c 0
 53.0227 43.6195 57.4052 46.5651 61.8836 49.963 c 0
 67.4817 54.2105 73.2303 59.1647 79.0327 64.9672 c 0
 83.3761 69.3106 89.3749 71.9986 95.9966 71.9986 c 0
 109.24 71.9986 119.9919 61.2466 119.9919 48.0033 c 0
 119.9919 41.3816 117.3039 35.3828 112.9672 31.0327 c 0
 101.9171 19.9826 90.7464 11.0928 79.966 3.9917 c 0
 71.3413 -1.6893 62.9691 -6.2264 55.1049 -9.8397 c 0
 40.9458 -16.3452 28.4448 -19.8568 18.9475 -21.7563 c 0
 14.1972 -22.7063 10.194 -23.2539 7.0942 -23.5703 c 0
 3.2192 -23.9657 0.7552 -23.9999 0 -24 c 0
0 0 m 0
 0 0 48 0 96 48 c 1024
EndSplineSet
Fore
SplineSet
-24 0 m 135,-1,1
 -24 10 -24 10 -17 17 c 132,-1,2
 -10 24 -10 24 0 24 c 5,3,4
 16 25 16 25 37.5 35 c 132,-1,5
 59 45 59 45 79 65 c 5,6,7
 86 72 86 72 96 72 c 135,-1,8
 106 72 106 72 113 65 c 132,-1,9
 120 58 120 58 120 48 c 135,-1,10
 120 38 120 38 113 31 c 5,11,12
 83 2 83 2 52.5 -11 c 132,-1,13
 22 -24 22 -24 0 -24 c 5,14,15
 -10 -24 -10 -24 -17 -17 c 132,-1,0
 -24 -10 -24 -10 -24 0 c 135,-1,1
96 48 m 1053,16,-1
EndSplineSet
Colour: ff00ff
EndChar

StartChar: circle32
Encoding: 4 -1 4
Width: 912
GlyphClass: 5
Flags: MW
LayerCount: 2
Back
SplineSet
-354.7695 -146.9501 m 0
 -435.8984 48.9121 -342.8125 273.6406 -146.9501 354.7695 c 0
 48.9121 435.8984 273.6406 342.8125 354.7695 146.9501 c 0
 435.8984 -48.9121 342.8125 -273.6406 146.9501 -354.7695 c 0
 -48.9121 -435.8984 -273.6406 -342.8125 -354.7695 -146.9501 c 0
0 0 m 1049
-354.7695 146.9501 m 0
 -273.6406 342.8125 -48.9121 435.8984 146.9501 354.7695 c 0
 342.8125 273.6406 435.8984 48.9121 354.7695 -146.9501 c 0
 273.6406 -342.8125 48.9121 -435.8984 -146.9501 -354.7695 c 0
 -342.8125 -273.6406 -435.8984 -48.9121 -354.7695 146.9501 c 0
0 0 m 1049
-271.5292 271.5292 m 0
 -121.622 421.4355 121.622 421.4355 271.5292 271.5292 c 0
 421.4355 121.622 421.4355 -121.622 271.5292 -271.5292 c 0
 121.622 -421.4355 -121.622 -421.4355 -271.5292 -271.5292 c 0
 -421.4355 -121.622 -421.4355 121.622 -271.5292 271.5292 c 0
0 0 m 1049
-384 0 m 0
 -384 212 -212 384 0 384 c 0
 212 384 384 212 384 0 c 0
 384 -212 212 -384 0 -384 c 0
 -212 -384 -384 -212 -384 0 c 0
0 0 m 1049
EndSplineSet
Fore
SplineSet
0 384 m 131,-1,1
 158 384 158 384 271 271 c 128,-1,2
 384 158 384 158 384 0 c 131,-1,3
 384 -158 384 -158 271 -271 c 128,-1,4
 158 -384 158 -384 0 -384 c 131,-1,5
 -158 -384 -158 -384 -271 -271 c 128,-1,6
 -384 -158 -384 -158 -384 0 c 131,-1,7
 -384 158 -384 158 -271 271 c 128,-1,0
 -158 384 -158 384 0 384 c 131,-1,1
EndSplineSet
Colour: ff00ff
EndChar

StartChar: lickinglipsmouth
Encoding: 5 -1 5
Width: 912
GlyphClass: 5
Flags: MW
LayerCount: 2
Fore
SplineSet
456 -24 m 129,-1,1
 349 -24 349 -24 274 33 c 129,-1,2
 199 90 199 90 169 185 c 1,3,4
 168 189 168 189 168 192 c 1,5,6
 168 202 168 202 175 209 c 129,-1,7
 182 216 182 216 192 216 c 129,-1,8
 202 216 202 216 209 209 c 1,9,10
 214 204 214 204 216 195 c 1,11,12
 242 117 242 117 304 70.5 c 129,-1,13
 366 24 366 24 456 24 c 129,-1,14
 546 24 546 24 608 70.5 c 129,-1,15
 670 117 670 117 696 195 c 1,16,17
 698 204 698 204 703 209 c 1,18,19
 710 216 710 216 720 216 c 129,-1,20
 730 216 730 216 737 209 c 129,-1,21
 744 202 744 202 744 192 c 1,22,23
 744 189 744 189 743 185 c 1,24,25
 713 90 713 90 638 33 c 129,-1,0
 563 -24 563 -24 456 -24 c 129,-1,1
EndSplineSet
Colour: ffff00
EndChar

StartChar: mouth_smiling1
Encoding: 6 -1 6
Width: 912
GlyphClass: 5
Flags: MW
LayerCount: 2
Back
SplineSet
-111.5166 116.4833 m 4
 -111.5156 116.4833 -111.6386 116.6035 -111.6386 116.6035 c 5
 -111.6386 116.6035 -111.7675 116.7255 -111.7666 116.7246 c 5
 -111.7666 116.7246 -111.7783 116.7353 -111.7744 116.7314 c 4
 -111.7685 116.7265 -111.5693 116.5507 -111.1416 116.2324 c 4
 -110.7568 115.9462 -110.1865 115.5449 -109.4062 115.0507 c 4
 -107.2109 113.6621 -103.3466 111.5361 -97.2617 109.1962 c 4
 -90.4179 106.5644 -80.7646 103.6621 -67.5595 101.2519 c 4
 -51.0537 98.2402 -29.0009 96 0 96 c 4
 29.0009 96 51.0537 98.2402 67.5595 101.2519 c 4
 80.7646 103.6621 90.4179 106.5644 97.2617 109.1962 c 4
 103.3466 111.5361 107.2109 113.6621 109.4062 115.0507 c 4
 110.1865 115.5449 110.7568 115.9462 111.1416 116.2324 c 4
 111.5693 116.5507 111.7685 116.7265 111.7744 116.7314 c 4
 111.7783 116.7353 111.7666 116.7246 111.7666 116.7246 c 5
 111.7675 116.7255 111.6386 116.6035 111.6386 116.6035 c 5
 111.6386 116.6035 111.5156 116.4833 111.5166 116.4833 c 4
 112.9326 117.8994 114.7226 118.9794 116.788 119.5517 c 4
 123.1708 121.3193 129.788 117.5712 131.5556 111.1875 c 4
 132.1279 109.122 132.122 107.0312 131.6367 105.0878 c 5
 131.8789 106.0576 131.4003 104.1142 131.6425 105.0839 c 5
 131.5498 104.7109 130.4082 100.2119 127.7568 93.2265 c 4
 125.6357 87.6386 122.5488 80.457 118.2333 72.5253 c 4
 113.9179 64.5947 108.372 55.9062 101.3037 47.3408 c 4
 95.6494 40.4892 89.0166 33.7148 81.2656 27.5136 c 4
 76.4218 23.6396 71.1425 19.9902 65.4062 16.6972 c 4
 58.2353 12.58 50.3515 9.0214 41.7382 6.2646 c 4
 34.8476 4.0595 27.4931 2.3691 19.6718 1.3037 c 4
 13.414 0.4521 6.8583 0 0 0 c 4
 -6.8583 0 -13.414 0.4521 -19.6718 1.3037 c 4
 -27.4931 2.3691 -34.8476 4.0595 -41.7382 6.2646 c 4
 -50.3515 9.0214 -58.2353 12.58 -65.4062 16.6972 c 4
 -71.1425 19.9902 -76.4218 23.6396 -81.2656 27.5136 c 4
 -89.0166 33.7148 -95.6494 40.4892 -101.3037 47.3408 c 4
 -108.372 55.9062 -113.9179 64.5947 -118.2333 72.5253 c 4
 -122.5488 80.457 -125.6357 87.6386 -127.7568 93.2265 c 4
 -130.4082 100.2119 -131.5498 104.7109 -131.6425 105.0839 c 4
 -132.1279 107.0273 -132.1337 109.1181 -131.5615 111.1845 c 4
 -129.7939 117.5683 -123.1767 121.3154 -116.7949 119.5478 c 4
 -114.7285 118.9765 -111.5166 116.4833 -111.5166 116.4833 c 4
-120 108 m 5
 -120 108 -96 84 0 84 c 4
 96 84 120 108 120 108 c 5
 120 108 96 12 0 12 c 4
 -96 12 -120 108 -120 108 c 5
EndSplineSet
Fore
SplineSet
0 0 m 259,0,1
 -48 0 -48 0 -82 28 c 128,-1,2
 -116 56 -116 56 -131 103 c 1,3,4
 -132 106 -132 106 -132 108 c 259,5,6
 -132 113 -132 113 -128.5 116.5 c 128,-1,7
 -125 120 -125 120 -120 120 c 259,8,9
 -116 120 -116 120 -112 117 c 257,10,11
 -101 108 -101 108 -71 102 c 128,-1,12
 -41 96 -41 96 0 96 c 259,13,14
 41 96 41 96 71 102 c 128,-1,15
 101 108 101 108 112 117 c 257,16,17
 116 120 116 120 120 120 c 259,18,19
 125 120 125 120 128.5 116.5 c 128,-1,20
 132 113 132 113 132 108 c 259,21,22
 132 106 132 106 131 103 c 1,23,24
 116 56 116 56 82 28 c 128,-1,25
 48 0 48 0 0 0 c 259,0,1
EndSplineSet
Colour: ff00ff
EndChar

StartChar: eye_smiling
Encoding: 7 -1 7
Width: 912
GlyphClass: 5
Flags: MW
LayerCount: 2
Back
SplineSet
-49.2253 -79.5854 m 1
 -49.2253 -79.5854 -49.2166 -79.5883 -49.229 -79.5963 c 0
 -52.395 -89.1236 -61.3979 -96.006 -71.9956 -96.006 c 0
 -85.2441 -96.006 -96.0002 -85.2499 -96.0002 -72.0014 c 0
 -96.0002 -69.3506 -95.5696 -66.7995 -94.7746 -64.4145 c 0
 -94.6454 -64.0269 -93.7823 -61.4674 -92.1586 -57.4317 c 0
 -90.8595 -54.2025 -89.0738 -50.0283 -86.7731 -45.2566 c 0
 -84.4722 -40.4843 -81.6575 -35.1138 -78.2714 -29.4842 c 0
 -75.5622 -24.9801 -72.4869 -20.3085 -68.9891 -15.6448 c 0
 -66.0743 -11.7583 -62.865 -7.8755 -59.3094 -4.1102 c 0
 -56.4652 -1.0982 -53.3981 1.8394 -50.0751 4.6291 c 0
 -46.7527 7.4183 -43.1726 10.0607 -39.3073 12.4573 c 0
 -36.2156 14.3743 -32.9409 16.1333 -29.4813 17.6709 c 0
 -25.59 19.4004 -21.464 20.8486 -17.1283 21.9191 c 0
 -14.1179 22.6624 -11.0076 23.2234 -7.8139 23.5738 c 0
 -5.259 23.8542 -2.651 24 0 24 c 0
 2.651 24 5.259 23.8542 7.8139 23.5738 c 0
 11.0076 23.2234 14.1179 22.6624 17.1283 21.9191 c 0
 21.464 20.8486 25.59 19.4004 29.4813 17.6709 c 0
 32.9409 16.1333 36.2156 14.3743 39.3073 12.4573 c 0
 43.1726 10.0607 46.7527 7.4183 50.0751 4.6291 c 0
 53.3981 1.8394 56.4652 -1.0982 59.3094 -4.1102 c 0
 62.865 -7.8755 66.0743 -11.7583 68.9891 -15.6448 c 0
 72.4869 -20.3085 75.5622 -24.9801 78.2714 -29.4842 c 0
 81.6575 -35.1138 84.4722 -40.4843 86.7731 -45.2566 c 0
 89.0738 -50.0283 90.8595 -54.2025 92.1586 -57.4317 c 0
 93.7823 -61.4674 94.6454 -64.0269 94.7746 -64.4145 c 0
 95.5696 -66.7995 96.0002 -69.3506 96.0002 -72.0014 c 0
 96.0002 -85.2499 85.2441 -96.006 71.9956 -96.006 c 0
 61.3979 -96.006 52.395 -89.1236 49.229 -79.5963 c 0
 49.2166 -79.5883 49.2253 -79.5854 49.2253 -79.5854 c 1
 49.2253 -79.5854 49.2566 -79.6783 49.2434 -79.6392 c 0
 49.2249 -79.5849 48.6731 -77.9676 47.6075 -75.3188 c 0
 46.6486 -72.9354 45.2731 -69.7168 43.5094 -66.0586 c 0
 41.7459 -62.401 39.5929 -58.3046 37.1082 -54.1735 c 0
 35.1207 -50.8692 32.9213 -47.5444 30.5663 -44.4045 c 0
 28.6039 -41.7879 26.5344 -39.3015 24.4098 -37.0515 c 0
 22.71 -35.2514 20.976 -33.6036 19.2411 -32.1471 c 0
 17.5055 -30.6901 15.7708 -29.4257 14.0643 -28.3677 c 0
 12.6986 -27.5209 11.3514 -26.8056 10.0247 -26.2159 c 0
 8.5315 -25.5523 7.0648 -25.0467 5.5998 -24.6849 c 0
 4.582 -24.4336 3.5636 -24.2514 2.5283 -24.1378 c 0
 1.7 -24.0469 0.8605 -24 0 -24 c 0
 -0.8605 -24 -1.7 -24.0469 -2.5283 -24.1378 c 0
 -3.5636 -24.2514 -4.582 -24.4336 -5.5998 -24.6849 c 0
 -7.0648 -25.0467 -8.5315 -25.5523 -10.0247 -26.2159 c 0
 -11.3514 -26.8056 -12.6986 -27.5209 -14.0643 -28.3677 c 0
 -15.7708 -29.4257 -17.5055 -30.6901 -19.2411 -32.1471 c 0
 -20.976 -33.6036 -22.71 -35.2514 -24.4098 -37.0515 c 0
 -26.5344 -39.3015 -28.6039 -41.7879 -30.5663 -44.4045 c 0
 -32.9213 -47.5444 -35.1207 -50.8692 -37.1082 -54.1735 c 0
 -39.5929 -58.3046 -41.7459 -62.401 -43.5094 -66.0586 c 0
 -45.2731 -69.7168 -46.6486 -72.9354 -47.6075 -75.3188 c 0
 -48.6731 -77.9676 -49.2249 -79.5849 -49.2434 -79.6392 c 0
 -49.2566 -79.6783 -49.2253 -79.5854 -49.2253 -79.5854 c 1
-72 -72 m 17
 -72 -72 -48 0 0 0 c 1
 48 0 72 -72 72 -72 c 1025
EndSplineSet
Fore
SplineSet
0 24 m 128,-1,1
 29 24 29 24 54 1 c 128,-1,2
 79 -22 79 -22 95 -65 c 0,3,4
 96 -69 96 -69 96 -72 c 0,5,6
 96 -82 96 -82 89 -89 c 128,-1,7
 82 -96 82 -96 72 -96 c 128,-1,8
 62 -96 62 -96 55 -89 c 0,9,10
 51 -85 51 -85 49 -79 c 0,11,12
 41 -57 41 -57 27.5 -40.5 c 128,-1,13
 14 -24 14 -24 0 -24 c 128,-1,14
 -14 -24 -14 -24 -27.5 -40.5 c 128,-1,15
 -41 -57 -41 -57 -49 -79 c 0,16,17
 -51 -85 -51 -85 -55 -89 c 0,18,19
 -62 -96 -62 -96 -72 -96 c 128,-1,20
 -82 -96 -82 -96 -89 -89 c 128,-1,21
 -96 -82 -96 -82 -96 -72 c 0,22,23
 -96 -69 -96 -69 -95 -65 c 0,24,25
 -79 -22 -79 -22 -54 1 c 128,-1,0
 -29 24 -29 24 0 24 c 128,-1,1
EndSplineSet
Colour: ff00ff
EndChar

StartChar: heart
Encoding: 8 -1 8
Width: 912
GlyphClass: 5
Flags: MW
LayerCount: 2
Back
SplineSet
0 0 m 1
 -132 47.9833 -316.1669 222.7314 -342.8251 388.373 c 0
 -346.0917 402.4033 -348 416.958 -348 431.9785 c 0
 -348 538.041 -262.0361 623.9882 -155.9902 623.9882 c 0
 -91.6455 623.9882 -34.8496 592.2138 0 543.6464 c 1
 34.8496 592.2138 91.6455 623.9882 156.0117 623.9882 c 0
 262.0361 623.9882 348 538.0214 348 431.9785 c 0
 348 416.9394 346.0917 402.3847 342.7851 388.3544 c 4
 316.1669 222.7314 131.9814 47.9833 0 0 c 1
EndSplineSet
Fore
SplineSet
0 0 m 1,0,1
 -113 43 -113 43 -217.5 157 c 129,-1,2
 -322 271 -322 271 -343 389 c 1,3,4
 -348 413 -348 413 -348 432 c 1,5,6
 -348 511 -348 511 -291.5 567.5 c 129,-1,7
 -235 624 -235 624 -156 624 c 1,8,9
 -62 624 -62 624 0 544 c 1,10,11
 62 624 62 624 156 624 c 1,12,13
 235 624 235 624 291.5 567.5 c 129,-1,14
 348 511 348 511 348 432 c 1,15,16
 348 413 348 413 343 389 c 1,17,18
 321 271 321 271 217 157 c 129,-1,19
 113 43 113 43 0 0 c 1,0,1
EndSplineSet
Colour: ff00ff
EndChar

StartChar: mouth_smiling2
Encoding: 9 -1 9
Width: 912
GlyphClass: 5
Flags: MW
LayerCount: 2
Back
SplineSet
-208.81 141.6057 m 1
 -208.81 141.6057 -208.8223 141.6149 -208.8172 141.611 c 1
 -208.8099 141.6056 -208.5927 141.4434 -208.1732 141.1393 c 1
 -207.7956 140.8657 -207.2541 140.4772 -206.5542 139.9847 c 1
 -205.2946 139.0983 -203.5219 137.8751 -201.2689 136.3789 c 1
 -197.2135 133.6857 -191.6017 130.108 -184.6248 126.0168 c 1
 -172.0664 118.6527 -155.0844 109.627 -134.8083 101.0897 c 1
 -114.5317 92.5522 -90.9649 84.507 -65.2506 79.0576 c 1
 -44.6786 74.698 -22.7368 72 0 72 c 1
 22.7368 72 44.6786 74.698 65.2506 79.0576 c 1
 90.9649 84.507 114.5317 92.5522 134.8083 101.0897 c 1
 155.0844 109.627 172.0664 118.6527 184.6248 126.0168 c 1
 191.6017 130.108 197.2135 133.6857 201.2689 136.3789 c 1
 203.5219 137.8751 205.2946 139.0983 206.5542 139.9847 c 1
 207.2541 140.4772 207.7956 140.8657 208.1732 141.1393 c 1
 208.5927 141.4434 208.8099 141.6056 208.8172 141.611 c 1
 208.8223 141.6149 208.81 141.6057 208.81 141.6057 c 1
 210.6516 142.9868 212.909 143.8541 215.3787 143.9817 c 1
 221.9915 144.3233 227.6376 139.2328 227.9792 132.621 c 1
 228.1068 130.1517 227.4766 127.8173 226.2923 125.8435 c 1
 226.8068 126.701 225.783 124.9814 226.2975 125.8389 c 1
 226.1417 125.5793 223.84 121.7641 219.3747 115.5979 c 1
 215.8024 110.665 210.8451 104.2271 204.4893 96.9035 c 1
 198.1335 89.5799 190.3788 81.37 181.2073 72.8989 c 1
 173.8703 66.1221 165.6262 59.1781 156.4657 52.3925 c 1
 139.9784 40.1797 120.5144 28.4745 98.0569 19.2327 c 1
 85.5815 14.0988 72.1842 9.7269 57.8764 6.4558 c 1
 39.9917 2.3669 20.6861 0 0 0 c 1
 -20.6861 0 -39.9917 2.3669 -57.8764 6.4558 c 1
 -72.1842 9.7269 -85.5815 14.0988 -98.0569 19.2327 c 1
 -120.5144 28.4745 -139.9784 40.1797 -156.4657 52.3925 c 1
 -165.6262 59.1781 -173.8703 66.1221 -181.2073 72.8989 c 1
 -190.3788 81.37 -198.1335 89.5799 -204.4893 96.9035 c 1
 -210.8451 104.2271 -215.8024 110.665 -219.3747 115.5979 c 1
 -223.84 121.7641 -226.1417 125.5793 -226.2975 125.8389 c 5
 -227.4817 127.8126 -228.112 130.1471 -227.9844 132.6163 c 1
 -227.6428 139.2281 -221.9967 144.3187 -215.3839 143.977 c 1
 -212.9142 143.8495 -210.6567 142.9821 -208.81 141.6057 c 1
-216 132 m 1
 -216 132 -120 60 0 60 c 0
 120 60 216 132 216 132 c 1
 216 132 144 12 0 12 c 0
 -144 12 -216 132 -216 132 c 1
EndSplineSet
Fore
SplineSet
0 0 m 131,-1,1
 -63 0 -63 0 -120 29.5 c 128,-1,2
 -177 59 -177 59 -219 115 c 1,3,4
 -224 122 -224 122 -226 125.5 c 128,-1,5
 -228 129 -228 129 -228 132 c 3,6,7
 -228 137 -228 137 -224.5 140.5 c 128,-1,8
 -221 144 -221 144 -216 144 c 3,9,10
 -212 144 -212 144 -208 141 c 1,11,12
 -165 111 -165 111 -109.5 91.5 c 128,-1,13
 -54 72 -54 72 0 72 c 131,-1,14
 54 72 54 72 109.5 91.5 c 128,-1,15
 165 111 165 111 208 141 c 1,16,17
 212 144 212 144 216 144 c 3,18,19
 221 144 221 144 224.5 140.5 c 128,-1,20
 228 137 228 137 228 132 c 3,21,22
 228 129 228 129 226 125.5 c 128,-1,23
 224 122 224 122 219 115 c 1,24,25
 177 59 177 59 120 29.5 c 128,-1,0
 63 0 63 0 0 0 c 131,-1,1
EndSplineSet
Colour: ff00ff
EndChar

StartChar: eyebrow_2
Encoding: 10 -1 10
Width: 912
GlyphClass: 5
Flags: MW
LayerCount: 2
Back
SplineSet
0 24 m 5
 13.246 24 24 13.246 24 0 c 5
 24 -13.246 13.246 -24 0 -24 c 13
 0 -24 l 5
 0 -24 0.2744 -23.997 0.0937 -24 c 5
 -0.5117 -24.0107 -7.8447 -24.1894 -19.3798 -26.3955 c 5
 -29.7636 -28.3808 -43.5361 -32.0039 -58.9326 -38.5556 c 5
 -71.2519 -43.7988 -84.6093 -50.9082 -98.1933 -60.5712 c 5
 -115.1757 -72.6523 -132.54 -88.7148 -148.789 -110.3798 c 13
 -148.8164 -110.416 l 21
 -153.1953 -116.2548 -160.1718 -120.0351 -168.0253 -120.0351 c 5
 -181.2695 -120.0351 -192.0224 -109.2832 -192.0224 -96.039 c 5
 -192.0224 -90.6474 -190.2402 -85.6689 -187.2109 -81.6201 c 5
 -172.7333 -62.3164 -157.2363 -46.4345 -141.6083 -33.4609 c 5
 -129.1054 -23.081 -116.5263 -14.5625 -104.3261 -7.5917 c 5
 -79.9189 6.3554 -57.0585 14.1152 -39.0439 18.457 c 5
 -16.5175 23.8847 -1.5048 24 0 24 c 5
EndSplineSet
Fore
SplineSet
24 0 m 129,-1,1
 24 -10 24 -10 17 -17 c 129,-1,2
 10 -24 10 -24 0 -24 c 257,3,4
 -5 -24 -5 -24 -17 -26 c 257,5,6
 -52 -32 -52 -32 -86 -52.5 c 129,-1,7
 -120 -73 -120 -73 -147 -108 c 1,8,9
 -155 -120 -155 -120 -168 -120 c 1,10,11
 -178 -120 -178 -120 -185 -113 c 129,-1,12
 -192 -106 -192 -106 -192 -96 c 1,13,14
 -192 -87 -192 -87 -186 -80 c 1,15,16
 -153 -37 -153 -37 -110 -11 c 129,-1,17
 -67 15 -67 15 -21 22 c 257,18,19
 -8 24 -8 24 0 24 c 257,20,21
 10 24 10 24 17 17 c 129,-1,0
 24 10 24 10 24 0 c 129,-1,1
EndSplineSet
Colour: ff00ff
EndChar

StartChar: mouth_smiling1b
Encoding: 11 -1 11
Width: 912
GlyphClass: 5
Flags: MW
LayerCount: 2
Back
SplineSet
-74.1968 78.1426 m 1
 -74.1968 78.1426 -74.2778 78.1993 -74.2235 78.1618 c 1
 -74.038 78.0335 -71.8055 76.5073 -67.618 74.3928 c 1
 -63.849 72.4896 -58.4969 70.1098 -51.6226 67.8373 c 1
 -39.2481 63.7466 -21.9464 60 0 60 c 1
 21.9464 60 39.2481 63.7466 51.6226 67.8373 c 1
 58.4969 70.1098 63.849 72.4896 67.618 74.3928 c 1
 71.8055 76.5073 74.038 78.0335 74.2235 78.1618 c 1
 74.2778 78.1993 74.1968 78.1426 74.1968 78.1426 c 1
 75.5528 79.1112 77.1694 79.7535 78.9432 79.9416 c 1
 84.4301 80.5234 89.3571 76.5408 89.9389 71.0536 c 1
 90.127 69.2796 89.8381 67.5642 89.1755 66.0352 c 1
 89.5731 66.9527 88.7827 65.1138 89.1803 66.0313 c 1
 89.0946 65.8337 88.2265 63.8465 86.5513 60.6645 c 1
 85.2111 58.1187 83.3542 54.808 80.9619 51.0359 c 1
 78.5695 47.2638 75.6418 43.0298 72.1504 38.6399 c 1
 69.3572 35.1281 66.2029 31.516 62.6675 27.9657 c 1
 59.1323 24.4157 55.2151 20.9266 50.8945 17.6727 c 1
 47.4383 15.0697 43.7233 12.6173 39.7427 10.413 c 1
 34.7676 7.6579 29.3759 5.2909 23.5764 3.514 c 1
 19.5495 2.2802 15.3271 1.3315 10.9205 0.7331 c 1
 7.3953 0.2544 3.7527 0 0 0 c 1
 -3.7527 0 -7.3953 0.2544 -10.9205 0.7331 c 1
 -15.3271 1.3315 -19.5495 2.2802 -23.5764 3.514 c 1
 -29.3759 5.2909 -34.7676 7.6579 -39.7427 10.413 c 1
 -43.7233 12.6173 -47.4383 15.0697 -50.8945 17.6727 c 1
 -55.2151 20.9266 -59.1323 24.4157 -62.6675 27.9657 c 1
 -66.2029 31.516 -69.3572 35.1281 -72.1504 38.6399 c 1
 -75.6418 43.0298 -78.5695 47.2638 -80.9619 51.0359 c 1
 -83.3542 54.808 -85.2111 58.1187 -86.5513 60.6645 c 1
 -88.2265 63.8465 -89.0946 65.8337 -89.1803 66.0313 c 5
 -89.8429 67.5603 -90.1318 69.2758 -89.9437 71.0498 c 1
 -89.3618 76.537 -84.4348 80.5195 -78.948 79.9377 c 1
 -77.1741 79.7496 -75.5575 79.1073 -74.1968 78.1426 c 1
-80 70 m 1
 -80 70 -54 10 0 10 c 1
 54 10 80 70 80 70 c 1
 80 70 52 50 0 50 c 1
 -52 50 -80 70 -80 70 c 1
EndSplineSet
Fore
SplineSet
0 0 m 129,-1,1
 -32 0 -32 0 -60 20.5 c 129,-1,2
 -88 41 -88 41 -107 79 c 1,3,4
 -108 82 -108 82 -108 84 c 1,5,6
 -108 89 -108 89 -104.5 92.5 c 129,-1,7
 -101 96 -101 96 -96 96 c 1,8,9
 -92 96 -92 96 -88 93 c 1,10,11
 -71 83 -71 83 -48.5 77.5 c 129,-1,12
 -26 72 -26 72 0 72 c 129,-1,13
 26 72 26 72 48.5 77.5 c 129,-1,14
 71 83 71 83 88 93 c 1,15,16
 92 96 92 96 96 96 c 1,17,18
 101 96 101 96 104.5 92.5 c 129,-1,19
 108 89 108 89 108 84 c 1,20,21
 108 82 108 82 107 79 c 1,22,23
 88 41 88 41 60 20.5 c 129,-1,0
 32 0 32 0 0 0 c 129,-1,1
EndSplineSet
Colour: ff00ff
EndChar

StartChar: mouth_flat2
Encoding: 12 -1 12
Width: 912
GlyphClass: 5
Flags: MW
LayerCount: 2
Fore
SplineSet
-24 0 m 132,-1,1
 -24 10 -24 10 -17 17 c 132,-1,2
 -10 24 -10 24 0 24 c 6,3,-1
 192 24 l 6,4,5
 202 24 202 24 209 17 c 132,-1,6
 216 10 216 10 216 0 c 132,-1,7
 216 -10 216 -10 209 -17 c 132,-1,8
 202 -24 202 -24 192 -24 c 6,9,-1
 0 -24 l 6,10,11
 -10 -24 -10 -24 -17 -17 c 132,-1,0
 -24 -10 -24 -10 -24 0 c 132,-1,1
EndSplineSet
Colour: ff00ff
EndChar

StartChar: eyebrow_loudlycrying
Encoding: 13 -1 13
Width: 912
GlyphClass: 5
Flags: MW
LayerCount: 2
Back
SplineSet
-168 -120 m 1024
-19.9833 13.289 m 1
 -19.9833 13.289 -19.9804 13.2871 -19.9521 13.3359 c 0
 -15.6777 19.7421 -8.331 23.998 0.0009 23.998 c 0
 13.246 23.998 24 13.2441 24 -0.0009 c 0
 24 -4.913 22.5205 -9.4833 19.9833 -13.289 c 0
 19.1494 -14.54 8.5644 -30.1757 -14.0283 -51.6386 c 0
 -42.2607 -78.4589 -89.3037 -114.375 -159.1005 -142.2929 c 0
 -161.8535 -143.3945 -164.8574 -144 -168.0019 -144 c 0
 -181.25 -144 -192.0058 -133.2441 -192.0058 -119.996 c 0
 -192.0058 -109.8925 -185.749 -101.2382 -176.9296 -97.7187 c 0
 -176.9023 -97.6992 -176.8994 -97.707 -176.8994 -97.707 c 2
 -126.0625 -77.372 -89.1328 -52.6777 -63.8652 -31.7246 c 0
 -49.8281 -20.0839 -39.3974 -9.5976 -32.2285 -1.6679 c 0
 -24.2626 7.1425 -20.3242 12.7949 -19.955 13.331 c 0
 -19.8593 13.4707 -19.9833 13.289 -19.9833 13.289 c 1
EndSplineSet
Fore
SplineSet
24 0 m 1,0,1
 24 -9 24 -9 18 -16 c 1,2,3
 -7 -50 -7 -50 -53 -84 c 129,-1,4
 -99 -118 -99 -118 -156 -141 c 1,5,6
 -162 -144 -162 -144 -168 -144 c 1,7,8
 -178 -144 -178 -144 -185 -137 c 129,-1,9
 -192 -130 -192 -130 -192 -120 c 129,-1,10
 -192 -110 -192 -110 -185 -103 c 1,11,12
 -181 -99 -181 -99 -175 -97 c 1,13,14
 -121 -75 -121 -75 -81.5 -45.5 c 129,-1,15
 -42 -16 -42 -16 -21 12 c 1,16,17
 -13 24 -13 24 0 24 c 1,18,19
 10 24 10 24 17 17 c 129,-1,20
 24 10 24 10 24 0 c 1,0,1
EndSplineSet
Colour: ff00ff
EndChar

StartChar: eye_loudlycrying
Encoding: 14 -1 14
Width: 912
GlyphClass: 5
Flags: MW
LayerCount: 2
Back
SplineSet
10.7099 -21.4804 m 5
 7.4384 -23.121 3.8007 -24.0283 -0.0478 -24.0283 c 4
 -13.2949 -24.0283 -24.0498 -13.2734 -24.0498 -0.0263 c 4
 -24.0498 9.373 -18.6357 17.5175 -10.7578 21.456 c 6
 -10.7099 21.4804 l 6
 -9.6552 22.0078 4.8671 29.2011 28.3076 35.5947 c 4
 38.7285 38.4365 50.9179 41.1181 64.496 42.9492 c 4
 75.3583 44.413 87.1093 45.333 99.5556 45.333 c 4
 131.0322 45.333 166.8613 39.4042 202.7099 21.4804 c 6
 202.7578 21.456 l 6
 210.6357 17.5175 216.0498 9.373 216.0498 -0.0263 c 4
 216.0498 -13.2734 205.2949 -24.0283 192.0478 -24.0283 c 4
 188.1992 -24.0283 184.5615 -23.121 181.29 -21.4804 c 4
 153.1386 -7.4042 124.9677 -2.6669 99.5556 -2.6669 c 4
 89.5263 -2.6669 79.914 -3.4121 70.9589 -4.6191 c 4
 59.7666 -6.1279 49.6054 -8.3593 40.9501 -10.7207 c 4
 32.2949 -13.08 25.1484 -15.5683 19.9746 -17.5615 c 4
 14.2246 -19.7773 10.9121 -21.3818 10.6601 -21.5048 c 4
 10.5791 -21.5449 10.7099 -21.4804 10.7099 -21.4804 c 5
EndSplineSet
Fore
SplineSet
-24 0 m 129,-1,1
 -24 10 -24 10 -17 17 c 1,2,3
 -13 21 -13 21 -5 24 c 1,4,5
 43 45 43 45 101 45 c 1,6,7
 155 45 155 45 202 22 c 1,8,9
 206 20 206 20 209 17 c 1,10,11
 216 10 216 10 216 0 c 129,-1,12
 216 -10 216 -10 209 -17 c 129,-1,13
 202 -24 202 -24 192 -24 c 1,14,15
 186 -24 186 -24 180 -21 c 1,16,17
 144 -3 144 -3 100 -3 c 1,18,19
 52 -3 52 -3 12 -21 c 1,20,21
 6 -24 6 -24 0 -24 c 1,22,23
 -10 -24 -10 -24 -17 -17 c 129,-1,0
 -24 -10 -24 -10 -24 0 c 129,-1,1
EndSplineSet
Colour: ff00ff
EndChar

StartChar: skull_eye
Encoding: 15 -1 15
Width: 912
GlyphClass: 5
Flags: MW
LayerCount: 2
Back
SplineSet
120 0 m 4
 120 -66.263671875 120 -120 0 -120 c 4
 -120 -120 -120 -66.263671875 -120 0 c 4
 -120 66.2294921875 -66.2294921875 120 0 120 c 4
 66.2294921875 120 120 66.2294921875 120 0 c 1028
EndSplineSet
Fore
SplineSet
120 0 m 1,0,1
 120 -28 120 -28 119 -38 c 1,2,3
 116 -83 116 -83 88 -101.5 c 129,-1,4
 60 -120 60 -120 0 -120 c 129,-1,5
 -60 -120 -60 -120 -88 -101.5 c 129,-1,6
 -116 -83 -116 -83 -119 -38 c 1,7,8
 -120 -28 -120 -28 -120 0 c 1,9,10
 -120 50 -120 50 -85 85 c 129,-1,11
 -50 120 -50 120 0 120 c 129,-1,12
 50 120 50 120 85 85 c 129,-1,13
 120 50 120 50 120 0 c 1,0,1
EndSplineSet
Colour: ff00ff
EndChar

StartChar: cryingmouth1
Encoding: 16 -1 16
Width: 912
GlyphClass: 5
Flags: MW
LayerCount: 2
Fore
SplineSet
456 0 m 129,-1,1
 396 0 396 0 378 18 c 129,-1,2
 360 36 360 36 360 72 c 1,3,4
 360 125 360 125 389.5 170.5 c 129,-1,5
 419 216 419 216 456 216 c 129,-1,6
 493 216 493 216 522.5 170.5 c 129,-1,7
 552 125 552 125 552 72 c 1,8,9
 552 36 552 36 534 18 c 129,-1,0
 516 0 516 0 456 0 c 129,-1,1
EndSplineSet
Colour: ffff00
EndChar

StartChar: zigzag_mouth
Encoding: 17 -1 17
Width: 912
GlyphClass: 5
Flags: MW
LayerCount: 2
Fore
SplineSet
456 0 m 129,-1,1
 446 0 446 0 439 7 c 1,2,3
 438 8 438 8 435 12 c 9,4,-1
 362 103 l 1,5,-1
 360 104 l 1,6,-1
 309 36 l 17,7,8
 306 32 306 32 305 31 c 1,9,10
 298 24 298 24 288 24 c 129,-1,11
 278 24 278 24 271 31 c 9,12,-1
 247 55 l 17,13,14
 240 62 240 62 240 72 c 129,-1,15
 240 82 240 82 247 89 c 129,-1,16
 254 96 254 96 264 96 c 129,-1,17
 274 96 274 96 281 89 c 9,18,-1
 285 85 l 1,19,-1
 285 84 l 1,20,-1
 339 156 l 17,21,22
 342 160 342 160 343 161 c 1,23,24
 350 168 350 168 360 168 c 129,-1,25
 370 168 370 168 378 160 c 9,26,-1
 456 62 l 1,27,-1
 534 160 l 17,28,29
 542 168 542 168 552 168 c 129,-1,30
 562 168 562 168 569 161 c 1,31,32
 570 160 570 160 573 156 c 9,33,-1
 627 84 l 1,34,-1
 627 85 l 1,35,-1
 631 89 l 17,36,37
 638 96 638 96 648 96 c 129,-1,38
 658 96 658 96 665 89 c 129,-1,39
 672 82 672 82 672 72 c 129,-1,40
 672 62 672 62 665 55 c 9,41,-1
 641 31 l 17,42,43
 634 24 634 24 624 24 c 129,-1,44
 614 24 614 24 607 31 c 1,45,46
 606 32 606 32 603 36 c 9,47,-1
 552 104 l 1,48,-1
 550 103 l 1,49,-1
 477 12 l 17,50,51
 474 8 474 8 473 7 c 1,52,0
 466 0 466 0 456 0 c 129,-1,1
EndSplineSet
Colour: ffff00
EndChar

StartChar: eye_squinting
Encoding: 18 -1 18
Width: 912
GlyphClass: 5
Flags: MW
LayerCount: 2
Back
SplineSet
0 -24 m 5
 0 -24 -0.0852 -23.9996 -0.0121 -24 c 4
 0.2927 -24.0018 3.272 -24.0266 8.3176 -24.3215 c 4
 12.8586 -24.587 19.0731 -25.0714 26.5141 -25.9502 c 4
 33.9551 -26.8291 42.6224 -28.1027 52.0652 -29.9386 c 4
 59.6193 -31.4072 67.6694 -33.2356 75.9831 -35.503 c 4
 86.3754 -38.3372 97.1782 -41.8583 107.9423 -46.2012 c 4
 116.5538 -49.6756 125.1392 -53.6752 133.4801 -58.2568 c 4
 141.8217 -62.8388 149.9167 -68.0014 157.5735 -73.7986 c 4
 163.6997 -78.4368 169.5459 -83.4804 175.0327 -88.9672 c 5
 192 -48 l 5
 180.6055 -48 169.4516 -48.5999 158.5844 -49.6875 c 4
 145.0002 -51.0469 131.8636 -53.1682 119.2607 -55.839 c 4
 106.6577 -58.5098 94.5879 -61.7304 83.1355 -65.2959 c 4
 68.8199 -69.7527 55.4685 -74.7483 43.2463 -79.8945 c 4
 21.247 -89.1574 2.9018 -98.9067 -10.7963 -106.9392 c 4
 -27.9184 -116.9794 -37.7841 -124.3418 -38.3798 -124.7885 c 6
 -38.3798 -124.7885 -38.3762 -124.7933 -38.4165 -124.8161 c 4
 -44.2148 -129.1722 -47.9952 -136.1493 -47.9952 -144.0023 c 4
 -47.9952 -157.2466 -37.2425 -167.9994 -23.9982 -167.9994 c 4
 -18.6069 -167.9994 -13.6285 -166.2176 -9.6201 -163.2114 c 5
 -9.6201 -163.2114 -9.687 -163.2611 -9.6278 -163.2173 c 4
 -9.3764 -163.031 -6.9593 -161.2493 -2.6424 -158.3825 c 4
 1.2426 -155.8024 6.6664 -152.3434 13.4322 -148.376 c 4
 25.6108 -141.2346 42.1384 -132.4502 61.84 -124.1548 c 4
 77.6013 -117.5184 95.3904 -111.1969 114.5907 -106.242 c 4
 127.9244 -102.801 141.9371 -100.0187 156.4238 -98.2288 c 4
 168.0133 -96.7969 179.9055 -96 192 -96 c 5
 191 -96 193.0027 -95.9932 192.0027 -95.9932 c 5
 195.0606 -95.9932 198.1685 -95.405 201.1675 -94.1627 c 4
 213.4035 -89.0941 219.2225 -75.0444 214.1536 -62.8078 c 4
 212.9113 -59.8087 211.1295 -57.195 208.9672 -55.0327 c 4
 201.812 -47.8775 194.2763 -41.389 186.5081 -35.5075 c 4
 176.7969 -28.1551 166.723 -21.75 156.5388 -16.1559 c 4
 146.354 -10.5614 136.0568 -5.7764 125.873 -1.6676 c 4
 113.143 3.4683 100.5879 7.5492 88.6259 10.8116 c 4
 79.0561 13.4215 69.865 15.507 61.2643 17.1792 c 4
 50.5135 19.2693 40.6847 20.7136 32.1941 21.7165 c 4
 23.7036 22.7193 16.5513 23.2803 11.1572 23.5956 c 4
 4.4149 23.9897 0.4197 23.9999 0 24 c 4
 -13.2459 24 -24 13.2459 -24 0 c 4
 -24 -13.2459 -13.2459 -24 0 -24 c 4
 0 -24 l 5
0 0 m 4
 0 0 120 0 192 -72 c 5
 72 -72 -24 -144 -24 -144 c 1028
EndSplineSet
Fore
SplineSet
-24 0 m 133,-1,1
 -24 10 -24 10 -17 17 c 129,-1,2
 -10 24 -10 24 0 24 c 1,3,4
 30 24 30 24 71.5 15 c 129,-1,5
 113 6 113 6 147 -11 c 129,-1,6
 181 -28 181 -28 208 -54 c 257,7,8
 216 -62 216 -62 216 -72 c 129,-1,9
 216 -82 216 -82 209 -89 c 129,-1,10
 202 -96 202 -96 192 -96 c 1,11,12
 140 -96 140 -96 86 -115 c 129,-1,13
 32 -134 32 -134 -8 -162 c 1,14,15
 -15 -168 -15 -168 -24 -168 c 257,16,17
 -34 -168 -34 -168 -41 -161 c 129,-1,18
 -48 -154 -48 -154 -48 -144 c 257,19,20
 -48 -131 -48 -131 -36 -123 c 1,21,22
 2 -97 2 -97 43 -80 c 129,-1,23
 84 -63 84 -63 126 -54 c 1,24,25
 92 -38 92 -38 57 -31 c 129,-1,26
 22 -24 22 -24 0 -24 c 1,27,28
 -10 -24 -10 -24 -17 -17 c 129,-1,0
 -24 -10 -24 -10 -24 0 c 133,-1,1
EndSplineSet
Colour: ff00ff
EndChar

StartChar: mouth_grinning
Encoding: 19 -1 19
Width: 912
GlyphClass: 5
Flags: MW
LayerCount: 2
Back
SplineSet
0 240 m 4
 86.9531 240 144.6464 250.1269 216 264 c 4
 232.2958 267.1425 264 264 264 216 c 4
 264 120 153.6962 0 0 0 c 4
 -153.6962 0 -264 120 -264 216 c 4
 -264 264 -232.2958 267.1425 -216 264 c 4
 -144.6464 250.1269 -86.9531 240 0 240 c 4
EndSplineSet
Fore
SplineSet
0 0 m 131,-1,1
 -70 0 -70 0 -131 32 c 128,-1,2
 -192 64 -192 64 -228 115 c 128,-1,3
 -264 166 -264 166 -264 216 c 3,4,5
 -264 243 -264 243 -251 255.5 c 128,-1,6
 -238 268 -238 268 -216 264 c 1,7,8
 -167 254 -167 254 -114.5 247 c 128,-1,9
 -62 240 -62 240 0 240 c 131,-1,10
 62 240 62 240 114.5 247 c 128,-1,11
 167 254 167 254 216 264 c 1,12,13
 238 268 238 268 251 255.5 c 128,-1,14
 264 243 264 243 264 216 c 3,15,16
 264 166 264 166 228 115 c 128,-1,17
 192 64 192 64 131 32 c 128,-1,0
 70 0 70 0 0 0 c 131,-1,1
EndSplineSet
Colour: ff00ff
EndChar

StartChar: teeth_grinning
Encoding: 20 -1 20
Width: 912
GlyphClass: 5
Flags: MW
LayerCount: 2
Back
SplineSet
-216 216 m 5
 -216 216 -144 192 0 192 c 4
 144 192 216 216 216 216 c 5
 216 216 168 120 0 120 c 4
 -168 120 -216 216 -216 216 c 5
EndSplineSet
Fore
SplineSet
0 120 m 131,-1,1
 -78 120 -78 120 -135 147 c 128,-1,2
 -192 174 -192 174 -216 216 c 1,3,4
 -180 205 -180 205 -123 198.5 c 128,-1,5
 -66 192 -66 192 0 192 c 131,-1,6
 66 192 66 192 123 198.5 c 128,-1,7
 180 205 180 205 216 216 c 1,8,9
 192 174 192 174 135 147 c 128,-1,0
 78 120 78 120 0 120 c 131,-1,1
EndSplineSet
Colour: ff00ff
EndChar

StartChar: waterdrop
Encoding: 21 -1 21
Width: 912
GlyphClass: 5
Flags: MW
LayerCount: 2
Back
SplineSet
120 -240 m 0
 120 -306.2294 66.2294 -360 0 -360 c 0
 -66.2294 -360 -120 -306.2294 -120 -240 c 0
 -120 -173.7119 -24 0 0 0 c 0
 24 0 120 -173.7119 120 -240 c 0
EndSplineSet
Fore
SplineSet
0 0 m 131,-1,1
 18 0 18 0 69 -96 c 128,-1,2
 120 -192 120 -192 120 -240 c 131,-1,3
 120 -288 120 -288 85 -324 c 128,-1,4
 50 -360 50 -360 0 -360 c 131,-1,5
 -50 -360 -50 -360 -85 -324 c 128,-1,6
 -120 -288 -120 -288 -120 -240 c 131,-1,7
 -120 -192 -120 -192 -69 -96 c 128,-1,0
 -18 0 -18 0 0 0 c 131,-1,1
EndSplineSet
Colour: ff00ff
EndChar

StartChar: eye_big
Encoding: 22 -1 22
Width: 912
GlyphClass: 5
Flags: MW
LayerCount: 2
Back
SplineSet
60 132 m 4
 60 72.3613 33.1425 0 0 0 c 4
 -33.1425 0 -60 72.3613 -60 132 c 4
 -60 191.6386 -33.1425 264 0 264 c 4
 33.1425 264 60 191.6386 60 132 c 4
EndSplineSet
Fore
SplineSet
0 0 m 131,-1,1
 -23 0 -23 0 -41.5 42 c 128,-1,2
 -60 84 -60 84 -60 132 c 131,-1,3
 -60 180 -60 180 -41.5 222 c 128,-1,4
 -23 264 -23 264 0 264 c 131,-1,5
 23 264 23 264 41.5 222 c 128,-1,6
 60 180 60 180 60 132 c 131,-1,7
 60 84 60 84 41.5 42 c 128,-1,0
 23 0 23 0 0 0 c 131,-1,1
EndSplineSet
Colour: ff00ff
EndChar

StartChar: eyebrow_joy
Encoding: 23 -1 23
Width: 912
GlyphClass: 5
Flags: MW
LayerCount: 2
Back
SplineSet
-4.7255 23.5341 m 2
 -4.7255 23.5341 l 0
 -4.7255 23.5351 -4.7236 23.541 -4.6923 23.541 c 0
 -4.6914 23.541 -4.6904 23.541 -4.6894 23.541 c 0
 -3.1982 23.8476 -1.6181 24.0078 -0.0009 24.0078 c 0
 13.247 24.0078 24.0029 13.2519 24.0029 0.0039 c 0
 24.0029 -11.6269 15.7138 -21.3369 4.7255 -23.5341 c 1
 4.7255 -23.5341 4.8134 -23.5156 4.8144 -23.5156 c 1
 4.8144 -23.5156 4.8085 -23.5175 4.7958 -23.5195 c 0
 4.6484 -23.5507 1.8525 -24.1406 -2.8984 -25.5253 c 0
 -7.1738 -26.7714 -13.0332 -28.6611 -19.9697 -31.3554 c 0
 -26.9062 -34.0507 -34.9189 -37.5517 -43.5107 -42.0078 c 0
 -50.3837 -45.5742 -57.6269 -49.7509 -64.9931 -54.6132 c 0
 -78.2568 -63.3662 -91.9013 -74.3271 -104.6201 -87.9531 c 0
 -111.6875 -95.5253 -118.4726 -103.9228 -124.7714 -113.2548 c 0
 -132.6455 -124.9189 -139.7646 -138.0449 -145.707 -152.8994 c 2
 -145.7187 -152.9306 l 2
 -149.2578 -161.7773 -157.9121 -168.0332 -168.0156 -168.0332 c 0
 -181.2646 -168.0332 -192.0195 -157.2773 -192.0195 -144.0292 c 0
 -192.0195 -140.8847 -191.414 -137.8818 -190.2929 -135.1005 c 0
 -183.0664 -117.0332 -174.3066 -100.8505 -164.5839 -86.4462 c 0
 -156.8056 -74.9238 -148.414 -64.541 -139.7119 -55.2177 c 0
 -124.0449 -38.4316 -107.3857 -25.083 -91.3847 -14.5224 c 0
 -82.4931 -8.6542 -73.7998 -3.6435 -65.5654 0.6289 c 0
 -55.2724 5.9687 -45.6953 10.1533 -37.3281 13.4042 c 0
 -28.9599 16.6552 -21.7998 18.9726 -16.3339 20.5654 c 0
 -9.5029 22.5566 -5.3164 23.416 -4.7255 23.5341 c 2
0 0 m 0
 0 0 -120 -24 -168 -144 c 1024
EndSplineSet
Fore
SplineSet
24 0 m 129,-1,1
 24 -10 24 -10 17 -17 c 1,2,3
 12 -22 12 -22 3 -24 c 1,4,5
 -41 -35 -41 -35 -82 -67 c 129,-1,6
 -123 -99 -123 -99 -145 -151 c 257,7,8
 -147 -157 -147 -157 -151 -161 c 257,9,10
 -158 -168 -158 -168 -168 -168 c 129,-1,11
 -178 -168 -178 -168 -185 -161 c 129,-1,12
 -192 -154 -192 -154 -192 -144 c 1,13,14
 -192 -140 -192 -140 -191 -137 c 257,15,16
 -166 -74 -166 -74 -116 -33 c 129,-1,17
 -66 8 -66 8 -7 23 c 1,18,19
 -3 24 -3 24 0 24 c 1,20,21
 10 24 10 24 17 17 c 129,-1,0
 24 10 24 10 24 0 c 129,-1,1
EndSplineSet
Colour: ff00ff
EndChar

StartChar: mouth_smiling3
Encoding: 24 -1 24
Width: 912
GlyphClass: 5
Flags: MW
LayerCount: 2
Back
SplineSet
-159.5166 116.4833 m 5
 -159.5725 116.5393 l 4
 -159.5725 116.5393 -159.571 116.5378 -159.5673 116.5341 c 4
 -159.5654 116.5322 -158.4667 115.4609 -156.1894 113.6503 c 4
 -154.1386 112.0214 -151.1328 109.7949 -147.1074 107.2109 c 4
 -139.8623 102.5605 -129.3173 96.7539 -115.0839 91.2001 c 4
 -89.4697 81.2041 -51.8808 72 0 72 c 4
 51.8808 72 89.4697 81.2041 115.0839 91.2001 c 4
 129.3173 96.7539 139.8623 102.5605 147.1074 107.2109 c 4
 151.1328 109.7949 154.1386 112.0214 156.1894 113.6503 c 4
 158.4667 115.4609 159.5654 116.5322 159.5673 116.5341 c 4
 159.571 116.5378 159.5725 116.5393 159.5725 116.5393 c 4
 159.5166 116.4833 l 5
 160.9326 117.8994 162.7226 118.9804 164.788 119.5517 c 4
 165.8576 119.8479 166.9337 119.9892 167.9924 119.9892 c 4
 173.2523 119.9892 178.0842 116.5015 179.5556 111.1875 c 4
 179.8519 110.1175 179.9932 109.0412 179.9932 107.9822 c 4
 179.9932 106.9961 179.8707 106.0249 179.6367 105.0878 c 5
 179.6671 105.2105 179.6785 105.2554 179.679 105.2554 c 5
 179.679 105.2554 179.5995 104.9239 179.5995 104.9165 c 5
 179.5995 104.9165 179.6109 104.9575 179.6425 105.0839 c 5
 179.4755 104.415 177.7587 97.7636 172.9228 88.0117 c 4
 169.0556 80.2138 163.1835 70.4228 154.496 60.2021 c 4
 148.4638 53.1054 141.0742 45.8056 132.0888 38.8544 c 4
 120.8574 30.166 107.1406 22.0341 90.5566 15.499 c 4
 66.6699 6.0849 36.8955 0 0 0 c 4
 -36.8955 0 -66.6699 6.0849 -90.5566 15.499 c 4
 -107.1406 22.0341 -120.8574 30.166 -132.0888 38.8544 c 4
 -141.0742 45.8056 -148.4638 53.1054 -154.496 60.2021 c 4
 -163.1835 70.4228 -169.0556 80.2138 -172.9228 88.0117 c 4
 -177.7587 97.7636 -179.4755 104.415 -179.6425 105.0839 c 4
 -179.8769 106.0206 -179.9995 106.9915 -179.9995 107.9774 c 4
 -179.9995 109.0371 -179.8579 110.1141 -179.5615 111.1845 c 4
 -178.09 116.4989 -173.2584 119.9859 -167.9984 119.9859 c 4
 -166.94 119.9859 -165.8641 119.8447 -164.7949 119.5488 c 4
 -162.7285 118.9765 -160.9384 117.8964 -159.5166 116.4833 c 5
EndSplineSet
Fore
SplineSet
0 0 m 129,-1,1
 -71 0 -71 0 -117 28.5 c 129,-1,2
 -163 57 -163 57 -179 103 c 1,3,4
 -180 106 -180 106 -180 108 c 1,5,6
 -180 113 -180 113 -176.5 116.5 c 129,-1,7
 -173 120 -173 120 -168 120 c 1,8,9
 -164 120 -164 120 -160 117 c 1,10,11
 -139 98 -139 98 -97 85 c 129,-1,12
 -55 72 -55 72 0 72 c 129,-1,13
 55 72 55 72 97 85 c 129,-1,14
 139 98 139 98 160 117 c 1,15,16
 164 120 164 120 168 120 c 1,17,18
 173 120 173 120 176.5 116.5 c 129,-1,19
 180 113 180 113 180 108 c 1,20,21
 180 106 180 106 179 103 c 1,22,23
 163 57 163 57 117 28.5 c 129,-1,0
 71 0 71 0 0 0 c 129,-1,1
EndSplineSet
Colour: ff00ff
EndChar

StartChar: smile_1c
Encoding: 25 -1 25
Width: 912
GlyphClass: 5
Flags: MW
LayerCount: 2
Back
SplineSet
104.2802 68.6386 m 4
 108.4804 64.6074 109.2236 58.1767 105.9843 53.3271 c 4
 104.5429 51.1455 69.623 0 0 0 c 4
 -69.623 0 -104.5195 51.1455 -105.9843 53.3271 c 4
 -109.2001 58.2001 -108.4804 64.6806 -104.2314 68.7119 c 4
 -99.9843 72.7451 -93.4316 73.08 -88.7998 69.5996 c 4
 -88.5605 69.4082 -58.5839 48 0 48 c 4
 58.5839 48 88.5839 69.4082 88.8466 69.6494 c 4
 93.5507 73.1035 100.08 72.6962 104.2802 68.6386 c 4
EndSplineSet
Fore
SplineSet
0 0 m 129,-1,1
 -33 0 -33 0 -60.5 14.5 c 129,-1,2
 -88 29 -88 29 -105 52 c 1,3,4
 -108 56 -108 56 -108 60 c 1,5,6
 -108 65 -108 65 -104.5 68.5 c 129,-1,7
 -101 72 -101 72 -96 72 c 1,8,9
 -92 72 -92 72 -88 69 c 1,10,11
 -74 60 -74 60 -50.5 54 c 129,-1,12
 -27 48 -27 48 0 48 c 129,-1,13
 27 48 27 48 50.5 54 c 129,-1,14
 74 60 74 60 88 69 c 1,15,16
 92 72 92 72 96 72 c 1,17,18
 101 72 101 72 104.5 68.5 c 129,-1,19
 108 65 108 65 108 60 c 1,20,21
 108 56 108 56 105 52 c 1,22,23
 88 29 88 29 60.5 14.5 c 129,-1,0
 33 0 33 0 0 0 c 129,-1,1
EndSplineSet
Colour: ff00ff
EndChar

StartChar: mouth_kissing
Encoding: 26 -1 26
Width: 912
GlyphClass: 5
Flags: MW
LayerCount: 2
Back
SplineSet
0.6074 11.9843 m 5
 0.8896 11.9707 12.6718 11.3779 29.0341 8.916 c 4
 42.1308 6.9462 58.1542 3.7968 73.7304 -1.3632 c 4
 79.5029 -3.2753 85.2207 -5.4667 90.7246 -8.0126 c 4
 95.1279 -10.0488 99.3964 -12.3105 103.4453 -14.8574 c 4
 107.4931 -17.4042 111.3271 -20.2373 114.831 -23.4384 c 4
 117.6328 -25.999 120.2255 -28.7978 122.5117 -31.8701 c 4
 125.083 -35.3242 127.2636 -39.1289 128.8769 -43.2568 c 4
 130.8945 -48.4199 132 -54.0595 132 -60 c 4
 132 -65.9404 130.8945 -71.58 128.8769 -76.7431 c 4
 127.2636 -80.871 125.083 -84.6757 122.5117 -88.1298 c 4
 120.2255 -91.2021 117.6328 -94.0009 114.831 -96.5615 c 4
 111.3271 -99.7626 107.4931 -102.5957 103.4453 -105.1425 c 4
 99.3964 -107.6894 95.1279 -109.9511 90.7246 -111.9873 c 4
 85.2207 -114.5332 79.5029 -116.7246 73.7304 -118.6367 c 4
 58.1542 -123.7968 42.1308 -126.9462 29.0341 -128.916 c 4
 12.6718 -131.3779 0.8896 -131.9707 0.6074 -131.9843 c 4
 -2.4355 -132.1367 -5.538 -131.1386 -7.9892 -128.9511 c 4
 -12.9316 -124.538 -13.3642 -116.9453 -8.955 -112.0068 c 4
 -6.7685 -109.5585 -3.7988 -108.2187 -0.7578 -108.0283 c 6
 -0.7578 -108.0283 0.6035 -107.9462 3.6318 -107.622 c 4
 7.2734 -107.2314 12.9179 -106.5068 19.5625 -105.2578 c 4
 29.1289 -103.458 40.7705 -100.5449 51.3847 -96.1503 c 4
 57.75 -93.5146 63.7138 -90.3544 68.6425 -86.7539 c 4
 73.0312 -83.5488 76.5585 -80.0351 79.082 -76.2763 c 4
 80.8369 -73.6611 82.1328 -70.9169 82.9638 -67.9042 c 4
 83.6289 -65.4912 84 -62.8896 84 -60 c 4
 84 -57.1103 83.6289 -54.5087 82.9638 -52.0957 c 4
 82.1328 -49.083 80.8369 -46.3388 79.082 -43.7236 c 4
 76.5585 -39.9648 73.0312 -36.4511 68.6425 -33.246 c 4
 63.7138 -29.6455 57.75 -26.4853 51.3847 -23.8496 c 4
 43.4277 -20.5556 34.8847 -18.083 27.0781 -16.3037 c 4
 20.1367 -14.7207 13.7783 -13.6796 8.8984 -13.0195 c 4
 2.625 -12.1699 -0.7587 -11.9765 -0.7587 -11.9765 c 6
 -3.5742 -11.8007 -6.3388 -10.6376 -8.4882 -8.4892 c 4
 -13.1718 -3.8066 -13.1738 3.7968 -8.4912 8.4814 c 4
 -6.3408 10.6318 -3.5751 11.7949 -0.7587 11.9716 c 6
 -0.7587 11.9716 0.6035 12.0537 3.6318 12.3779 c 4
 7.2734 12.7685 12.9179 13.4931 19.5625 14.7421 c 4
 29.1289 16.5419 40.7705 19.455 51.3847 23.8496 c 4
 57.75 26.4853 63.7138 29.6455 68.6425 33.246 c 4
 73.0312 36.4511 76.5585 39.9648 79.082 43.7236 c 4
 80.8369 46.3388 82.1328 49.083 82.9638 52.0957 c 4
 83.6289 54.5087 84 57.1103 84 60 c 4
 84 62.8896 83.6289 65.4912 82.9638 67.9042 c 4
 82.1328 70.9169 80.8369 73.6611 79.082 76.2763 c 4
 76.5585 80.0351 73.0312 83.5488 68.6425 86.7539 c 4
 63.7138 90.3544 57.75 93.5146 51.3847 96.1503 c 4
 43.4277 99.4443 34.8847 101.9169 27.0781 103.6962 c 4
 20.1367 105.2792 13.7783 106.3203 8.8984 106.9804 c 4
 2.625 107.83 -0.7587 108.0234 -0.7587 108.0234 c 6
 -3.7988 108.2138 -6.7685 109.5527 -8.955 112.0019 c 4
 -13.3652 116.9414 -12.9316 124.5332 -7.9892 128.9453 c 4
 -5.538 131.1347 -2.4355 132.1328 0.6074 131.9804 c 4
 0.8906 131.9658 12.6708 131.3789 29.0341 128.916 c 4
 42.1308 126.9462 58.1542 123.7968 73.7304 118.6367 c 4
 79.5029 116.7246 85.2207 114.5332 90.7246 111.9873 c 4
 95.1279 109.9511 99.3964 107.6894 103.4453 105.1425 c 4
 107.4931 102.5957 111.3271 99.7626 114.831 96.5615 c 4
 117.6328 94.0009 120.2255 91.2021 122.5117 88.1298 c 4
 125.083 84.6757 127.2636 80.871 128.8769 76.7431 c 4
 130.8945 71.58 132 65.9404 132 60 c 4
 132 54.0595 130.8945 48.4199 128.8769 43.2568 c 4
 127.2636 39.1289 125.083 35.3242 122.5117 31.8701 c 4
 120.2255 28.7978 117.6328 25.999 114.831 23.4384 c 4
 111.3271 20.2373 107.4931 17.4042 103.4453 14.8574 c 4
 99.3964 12.3105 95.1279 10.0488 90.7246 8.0126 c 4
 85.2207 5.4667 79.5029 3.2753 73.7304 1.3632 c 4
 58.1542 -3.7968 42.1308 -6.9462 29.0341 -8.916 c 4
 12.6718 -11.3779 0.8896 -11.9707 0.6074 -11.9843 c 5
 0.6074 11.9843 l 5
EndSplineSet
Fore
SplineSet
-12 0 m 129,-1,1
 -12 5 -12 5 -8.5 8.5 c 129,-1,2
 -5 12 -5 12 0 12 c 1,3,4
 38 16 38 16 61 28.5 c 129,-1,5
 84 41 84 41 84 60 c 129,-1,6
 84 79 84 79 61 91.5 c 129,-1,7
 38 104 38 104 0 108 c 1,8,9
 -5 108 -5 108 -8.5 111.5 c 129,-1,10
 -12 115 -12 115 -12 120 c 129,-1,11
 -12 125 -12 125 -8.5 128.5 c 129,-1,12
 -5 132 -5 132 0 132 c 257,13,14
 2 132 2 132 13 131 c 1,15,16
 70 125 70 125 101 106.5 c 129,-1,17
 132 88 132 88 132 60 c 1,18,19
 132 20 132 20 70 0 c 1,20,21
 132 -20 132 -20 132 -60 c 1,22,23
 132 -88 132 -88 101 -106.5 c 129,-1,24
 70 -125 70 -125 13 -131 c 1,25,26
 2 -132 2 -132 0 -132 c 257,27,28
 -5 -132 -5 -132 -8.5 -128.5 c 129,-1,29
 -12 -125 -12 -125 -12 -120 c 129,-1,30
 -12 -115 -12 -115 -8.5 -111.5 c 129,-1,31
 -5 -108 -5 -108 0 -108 c 1,32,33
 38 -104 38 -104 61 -91.5 c 129,-1,34
 84 -79 84 -79 84 -60 c 129,-1,35
 84 -41 84 -41 61 -28.5 c 129,-1,36
 38 -16 38 -16 0 -12 c 1,37,38
 -5 -12 -5 -12 -8.5 -8.5 c 129,-1,0
 -12 -5 -12 -5 -12 0 c 129,-1,1
EndSplineSet
Colour: ff00ff
EndChar

StartChar: eyebrow_5
Encoding: 27 -1 27
Width: 912
GlyphClass: 5
Flags: MW
LayerCount: 2
Back
SplineSet
192 -71.998046875 m 1028
4.7255 -23.5341 m 1
 4.7255 -23.5341 4.7265 -23.541 4.6894 -23.541 c 0
 3.1992 -23.8476 1.6181 -24.0078 0.0009 -24.0078 c 0
 -13.247 -24.0078 -24.0029 -13.2519 -24.0029 -0.0039 c 0
 -24.0029 11.6269 -15.7128 21.3359 -4.7255 23.5341 c 0
 -4.0859 23.6621 0.7656 24.6074 8.8164 25.4296 c 0
 15.2568 26.0878 23.746 26.6669 33.7773 26.6669 c 0
 44.6142 26.6669 57.2275 25.9921 70.9609 23.9775 c 0
 81.9462 22.3662 93.6513 19.8964 105.7197 16.205 c 0
 127.4287 9.5644 150.3798 -1.0712 172.0166 -17.746 c 0
 185.9169 -28.458 199.2275 -41.6416 211.2109 -57.6201 c 0
 214.2177 -61.6289 216 -66.6074 216 -71.998 c 0
 216 -85.2421 205.246 -95.9951 192.0019 -95.9951 c 0
 184.1494 -95.9951 177.1718 -92.2148 172.8164 -86.416 c 0
 172.7929 -86.3759 172.789 -86.3798 172.789 -86.3798 c 2
 163.4394 -73.914 153.3095 -63.9208 142.7548 -55.7871 c 0
 126.3505 -43.1455 108.8066 -34.9453 91.6777 -29.705 c 0
 82.1689 -26.7968 72.8085 -24.8125 63.9462 -23.5126 c 0
 52.8681 -21.8876 42.5722 -21.333 33.7773 -21.333 c 0
 25.6367 -21.333 18.7626 -21.8076 13.7421 -22.3203 c 0
 8.1621 -22.8906 4.873 -23.5068 4.6601 -23.5468 c 0
 4.58 -23.5625 4.7255 -23.5341 4.7255 -23.5341 c 1
EndSplineSet
Fore
SplineSet
-24 0 m 129,-1,1
 -24 10 -24 10 -17 17 c 1,2,3
 -11 23 -11 23 -2 24 c 1,4,5
 18 27 18 27 34 27 c 1,6,7
 86 27 86 27 132.5 6 c 129,-1,8
 179 -15 179 -15 210 -56 c 1,9,10
 216 -63 216 -63 216 -72 c 1,11,12
 216 -82 216 -82 209 -89 c 129,-1,13
 202 -96 202 -96 192 -96 c 1,14,15
 179 -96 179 -96 171 -84 c 1,16,17
 148 -54 148 -54 112 -37.5 c 129,-1,18
 76 -21 76 -21 32 -21 c 1,19,20
 21 -21 21 -21 8 -23 c 1,21,22
 3 -24 3 -24 0 -24 c 1,23,24
 -10 -24 -10 -24 -17 -17 c 129,-1,0
 -24 -10 -24 -10 -24 0 c 129,-1,1
EndSplineSet
Colour: ff00ff
EndChar

StartChar: mouth_melting
Encoding: 28 -1 28
Width: 912
Flags: MW
LayerCount: 2
Back
SplineSet
905.9218 144.415 m 0
 887.8251 144.415 869.8251 146.288 852.0644 150.0312 c 0
 787.4335 163.7353 731.9921 200.7919 699.9531 251.6962 c 0
 697.7304 255.333 696.4511 259.6083 696.4511 264.1787 c 0
 696.4511 277.4257 707.2041 288.1787 720.4511 288.1787 c 0
 728.8867 288.1787 736.2812 283.8681 740.5605 277.2802 c 0
 765.3525 237.872 810.7607 207.872 862 197 c 0
 904.4101 188 970.1679 187.5683 1042.8642 236.4072 c 0
 1046.6875 238.9765 1051.2851 240.4765 1056.2333 240.4765 c 0
 1069.4804 240.4765 1080.2353 229.7207 1080.2353 216.4736 c 0
 1080.2353 208.1728 1076.0615 200.8789 1069.6484 196.5683 c 0
 1018.5527 162.249 961.914 144.415 905.9218 144.415 c 0
EndSplineSet
Fore
SplineSet
474 144 m 1,0,1
 411 144 411 144 355.5 173 c 129,-1,2
 300 202 300 202 269 250 c 1,3,4
 264 257 264 257 264.5 266 c 129,-1,5
 265 275 265 275 271.5 281.5 c 129,-1,6
 278 288 278 288 288 288 c 257,7,8
 301 288 301 288 308 278 c 1,9,10
 333 239 333 239 378.5 215.5 c 129,-1,11
 424 192 424 192 474 192 c 1,12,13
 544 192 544 192 610 236 c 1,14,15
 618 241 618 241 626 240.5 c 129,-1,16
 634 240 634 240 641 233.5 c 129,-1,17
 648 227 648 227 648 216 c 1,18,19
 648 203 648 203 635 195 c 1,20,21
 557 144 557 144 474 144 c 1,0,1
EndSplineSet
Colour: ffff00
EndChar

StartChar: eye_smiling2
Encoding: 29 -1 29
Width: 912
GlyphClass: 5
Flags: MW
LayerCount: 2
Back
SplineSet
-74.5195 -58.7099 m 1
 -74.5195 -58.7099 -74.5156 -58.7119 -74.5439 -58.7578 c 0
 -78.455 -66.5888 -86.5996 -72.0029 -95.998 -72.0029 c 0
 -109.2451 -72.0029 -120 -61.248 -120 -48.0009 c 0
 -120 -44.1523 -119.0927 -40.5156 -117.4804 -37.29 c 0
 -116.9531 -36.2353 -114.7949 -32.0966 -110.498 -26.3369 c 0
 -107.0625 -21.7314 -102.2519 -16.083 -95.8056 -10.2226 c 0
 -87.7519 -2.9003 -77.121 4.748 -63.6406 10.9316 c 0
 -54.2851 15.2246 -43.5771 18.7978 -31.5195 21.1093 c 0
 -21.873 22.958 -11.3681 24 0 24 c 0
 11.3681 24 21.873 22.958 31.5195 21.1093 c 0
 43.5771 18.7978 54.2851 15.2246 63.6406 10.9316 c 0
 77.121 4.748 87.7519 -2.9003 95.8056 -10.2226 c 0
 102.2519 -16.083 107.0625 -21.7314 110.498 -26.3369 c 0
 114.7949 -32.0966 116.9531 -36.2353 117.4804 -37.29 c 0
 119.0927 -40.5156 120 -44.1523 120 -48.0009 c 0
 120 -61.248 109.2451 -72.0029 95.998 -72.0029 c 0
 86.5996 -72.0029 78.455 -66.5888 74.5439 -58.7578 c 0
 74.5156 -58.7119 74.5195 -58.7099 74.5195 -58.7099 c 1
 74.664 -58.9931 l 1
 74.664 -58.9931 74.6894 -59.04 74.6796 -59.0214 c 0
 74.6699 -59.0029 74.2558 -58.2402 73.4013 -56.9697 c 0
 72.6328 -55.8261 71.5078 -54.2714 70.0048 -52.4707 c 0
 66.956 -48.8193 62.373 -44.1796 55.9804 -39.7314 c 0
 49.583 -35.2812 41.3642 -30.9843 30.7148 -27.9814 c 0
 22.1923 -25.5791 12.0732 -24 0 -24 c 0
 -12.0732 -24 -22.1923 -25.5791 -30.7148 -27.9814 c 0
 -41.3642 -30.9843 -49.583 -35.2812 -55.9804 -39.7314 c 0
 -62.373 -44.1796 -66.956 -48.8193 -70.0048 -52.4707 c 0
 -71.5078 -54.2714 -72.6328 -55.8261 -73.4013 -56.9697 c 0
 -74.2558 -58.2402 -74.6699 -59.0029 -74.6796 -59.0214 c 0
 -74.6894 -59.04 -74.664 -58.9931 -74.664 -58.9931 c 1
 -74.5195 -58.7099 l 1
EndSplineSet
Fore
SplineSet
0 24 m 129,-1,1
 68 24 68 24 108 -23 c 1,2,3
 112 -28 112 -28 115 -33 c 1,4,5
 120 -40 120 -40 120 -48 c 1,6,7
 120 -58 120 -58 113 -65 c 129,-1,8
 106 -72 106 -72 96 -72 c 1,9,10
 82 -72 82 -72 74 -58 c 1,11,12
 70 -52 70 -52 66 -48 c 1,13,14
 41 -24 41 -24 0 -24 c 129,-1,15
 -41 -24 -41 -24 -66 -48 c 1,16,17
 -70 -52 -70 -52 -74 -58 c 1,18,19
 -82 -72 -82 -72 -96 -72 c 1,20,21
 -106 -72 -106 -72 -113 -65 c 129,-1,22
 -120 -58 -120 -58 -120 -48 c 1,23,24
 -120 -40 -120 -40 -115 -33 c 1,25,26
 -112 -28 -112 -28 -108 -23 c 1,27,0
 -68 24 -68 24 0 24 c 129,-1,1
EndSplineSet
Colour: ff00ff
EndChar

StartChar: mouth_tongue
Encoding: 30 -1 30
Width: 912
GlyphClass: 5
Flags: MW
LayerCount: 2
Back
SplineSet
192 210 m 1
 472.0078 143.8574 720 210 720 210 c 1
 720 114 609.6962 -6 456 -6 c 0
 302.3037 -6 192 114.8652 192 210 c 1
EndSplineSet
Fore
SplineSet
456 -6 m 129,-1,1
 385 -6 385 -6 324 26.5 c 129,-1,2
 263 59 263 59 227.5 110 c 129,-1,3
 192 161 192 161 192 210 c 1,4,5
 319 180 319 180 457.5 180.5 c 129,-1,6
 596 181 596 181 720 210 c 1,7,8
 720 161 720 161 684.5 110 c 129,-1,9
 649 59 649 59 588 26.5 c 129,-1,0
 527 -6 527 -6 456 -6 c 129,-1,1
EndSplineSet
Colour: ffff00
EndChar

StartChar: eyebrow_peeking
Encoding: 31 -1 31
Width: 912
GlyphClass: 5
Flags: MW
LayerCount: 2
Back
SplineSet
7.9927 22.6347 m 1
 7.9927 22.6347 7.9935 22.6371 7.9966 22.6371 c 0
 7.9992 22.6371 8.0035 22.6353 8.0102 22.6285 c 0
 17.3189 19.3469 24.0059 10.4503 24.0059 0.0042 c 0
 24.0059 -13.2442 13.2499 -24.0002 0.0014 -24.0002 c 0
 -2.8008 -24.0002 -5.4916 -23.519 -7.9927 -22.6347 c 0
 -27.9978 -15.5618 -49.5204 -11.7128 -71.9345 -11.7128 c 0
 -84.3869 -11.7128 -96.6132 -12.9017 -108.4466 -15.1718 c 0
 -117.9133 -16.9878 -127.1282 -19.4955 -136.0072 -22.6347 c 0
 -138.5083 -23.519 -141.1991 -24.0002 -144.0014 -24.0002 c 0
 -157.2499 -24.0002 -168.0059 -13.2442 -168.0059 0.0042 c 0
 -168.0059 10.4503 -161.3189 19.3469 -152.0102 22.6285 c 0
 -152.0035 22.6353 -151.9992 22.6371 -151.9966 22.6371 c 0
 -151.9935 22.6371 -151.9927 22.6347 -151.9927 22.6347 c 1
 -140.8665 26.5684 -129.3501 29.7008 -117.529 31.9685 c 0
 -102.7527 34.8031 -87.4997 36.2871 -71.9345 36.2871 c 0
 -43.917 36.2871 -17.0139 31.4759 7.9927 22.6347 c 1
0 0 m 0
 -22.5058 7.957 -46.7187 12.2871 -71.9345 12.2871 c 0
 -97.1503 12.2871 -121.4941 7.957 -144 0 c 1024
EndSplineSet
Fore
SplineSet
24 0 m 129,-1,1
 24 -10 24 -10 17 -17 c 129,-1,2
 10 -24 10 -24 0 -24 c 1,3,4
 -5 -24 -5 -24 -10 -22 c 1,5,6
 -38 -12 -38 -12 -72 -12 c 129,-1,7
 -106 -12 -106 -12 -134 -22 c 1,8,9
 -139 -24 -139 -24 -144 -24 c 1,10,11
 -154 -24 -154 -24 -161 -17 c 129,-1,12
 -168 -10 -168 -10 -168 0 c 129,-1,13
 -168 10 -168 10 -161 17 c 1,14,15
 -157 21 -157 21 -151 23 c 1,16,17
 -114 36 -114 36 -72 36 c 129,-1,18
 -30 36 -30 36 7 23 c 1,19,20
 13 21 13 21 17 17 c 1,21,0
 24 10 24 10 24 0 c 129,-1,1
EndSplineSet
Colour: ff00ff
EndChar

StartChar: eyebrow_angry
Encoding: 32 -1 32
Width: 912
GlyphClass: 5
Flags: MW
LayerCount: 2
Back
SplineSet
0 -24 m 1
 0 -24 l 0
 -13.2459 -24 -24 -13.2459 -24 0 c 0
 -24 13.2459 -13.2459 24 0 24 c 0
 0.4197 23.9999 4.4149 23.9897 11.1572 23.5956 c 0
 16.5513 23.2803 23.7036 22.7193 32.1941 21.7165 c 0
 40.6847 20.7136 50.5135 19.2693 61.2643 17.1792 c 0
 69.865 15.507 79.0561 13.4215 88.6259 10.8116 c 0
 100.5879 7.5492 113.143 3.4683 125.873 -1.6676 c 0
 136.0568 -5.7764 146.354 -10.5614 156.5388 -16.1559 c 0
 166.723 -21.75 176.7969 -28.1551 186.5081 -35.5075 c 0
 194.2763 -41.389 201.812 -47.8775 208.9672 -55.0327 c 0
 213.3106 -59.3761 215.9986 -65.3749 215.9986 -71.9966 c 0
 215.9986 -85.24 205.2466 -95.9919 192.0033 -95.9919 c 0
 185.3816 -95.9919 179.3828 -93.3039 175.0327 -88.9672 c 0
 169.5459 -83.4804 163.6997 -78.4368 157.5735 -73.7986 c 0
 149.9167 -68.0014 141.8217 -62.8388 133.4801 -58.2568 c 0
 125.1392 -53.6752 116.5538 -49.6756 107.9423 -46.2012 c 0
 97.1782 -41.8583 86.3754 -38.3372 75.9831 -35.503 c 0
 67.6694 -33.2356 59.6193 -31.4072 52.0652 -29.9386 c 0
 42.6224 -28.1027 33.9551 -26.8291 26.5141 -25.9502 c 0
 19.0731 -25.0714 12.8586 -24.587 8.3176 -24.3215 c 0
 3.272 -24.0266 0.2927 -24.0018 -0.0121 -24 c 0
 -0.0341 -23.9999 -0.0417 -23.9999 -0.0417 -23.9998 c 0
 -0.0417 -23.9998 -0.0411 -23.9998 -0.04 -23.9998 c 0
 -0.032 -23.9998 0 -24 0 -24 c 1
0 0 m 0
 0 0 120 0 192 -72 c 1024
EndSplineSet
Fore
SplineSet
-24 0 m 129,-1,1
 -24 10 -24 10 -17 17 c 129,-1,2
 -10 24 -10 24 0 24 c 1,3,4
 53 23 53 23 110.5 4 c 129,-1,5
 168 -15 168 -15 209 -55 c 1,6,7
 216 -62 216 -62 216 -72 c 129,-1,8
 216 -82 216 -82 209 -89 c 129,-1,9
 202 -96 202 -96 192 -96 c 129,-1,10
 182 -96 182 -96 175 -89 c 1,11,12
 144 -58 144 -58 95 -41.5 c 129,-1,13
 46 -25 46 -25 -0 -24 c 1,14,15
 -10 -24 -10 -24 -17 -17 c 129,-1,0
 -24 -10 -24 -10 -24 0 c 129,-1,1
EndSplineSet
Colour: ff00ff
EndChar

StartChar: dollarsignchar
Encoding: 33 -1 33
Width: 912
Flags: MW
LayerCount: 2
Back
SplineSet
0 0 m 4
 -49.7275 0 -90.1425 40.3193 -90.1425 90.0468 c 6
 -90.1425 135.1689 l 5
 -207.8388 158.0156 -297.2158 223.0078 -297.2158 288.1923 c 4
 -297.2158 332.5429 -264.9609 367.2958 -223.6806 367.2958 c 4
 -195.2646 367.2958 -171.457 350.6884 -146.3037 333.1191 c 4
 -109.8232 307.7763 -68.5429 278.9765 3.457 278.9765 c 4
 74.7841 278.9765 118.9433 316.9921 118.9433 352.1269 c 4
 118.9433 400.2236 44.831 431.039 -33.5996 463.6806 c 4
 -143.1347 509.1845 -267.2646 560.831 -267.2646 686.6884 c 4
 -267.2646 788.5429 -199.9687 869.2802 -90.1425 901.247 c 5
 -90.1425 942.1425 l 6
 -90.1425 991.873 -49.7275 1032.288 0 1032.288 c 4
 49.7275 1032.288 90.1425 991.873 90.1425 942.1425 c 6
 90.1425 904.416 l 6
 181.9199 883.4882 268.5117 833.5683 268.5117 762.9121 c 4
 268.5117 727.4882 243.8388 689.3769 189.6962 689.3769 c 4
 160.6074 689.3769 139.6806 705.1191 119.5195 720.3847 c 4
 93.2158 740.2568 63.3613 762.7197 3.3613 762.7197 c 4
 -13.6308 762.7197 -98.496 759.457 -98.496 696.1923 c 4
 -98.496 657.7919 -29.8574 631.2958 42.7197 603.2646 c 4
 151.873 561.1191 287.7119 508.7041 287.6152 373.9199 c 4
 287.6152 255.1689 214.08 168.0957 89.665 137.8574 c 5
 90.1425 90.0468 l 6
 90.1425 40.416 49.7275 0 0 0 c 4
EndSplineSet
Fore
SplineSet
0 0 m 128,-1,1
 -37 0 -37 0 -63.5 26.5 c 128,-1,2
 -90 53 -90 53 -90 90 c 2,3,-1
 -90 135 l 1,4,5
 -177 152 -177 152 -237 195.5 c 128,-1,6
 -297 239 -297 239 -297 288 c 0,7,8
 -297 321 -297 321 -276 344 c 128,-1,9
 -255 367 -255 367 -223.5 367 c 128,-1,10
 -192 367 -192 367 -146 333 c 0,11,12
 -76 279 -76 279 0 279 c 0,13,14
 54 279 54 279 86.5 301.5 c 128,-1,15
 119 324 119 324 119 352 c 0,16,17
 119 382 119 382 82.5 407 c 128,-1,18
 46 432 46 432 -34 464 c 0,19,20
 -156 511 -156 511 -211.5 561.5 c 128,-1,21
 -267 612 -267 612 -267 687.5 c 128,-1,22
 -267 763 -267 763 -220 820 c 128,-1,23
 -173 877 -173 877 -90 901 c 1,24,-1
 -90 942 l 2,25,26
 -90 979 -90 979 -63.5 1005.5 c 128,-1,27
 -37 1032 -37 1032 0 1032 c 128,-1,28
 37 1032 37 1032 63.5 1005.5 c 128,-1,29
 90 979 90 979 90 942 c 2,30,-1
 90 904 l 1,31,32
 167 887 167 887 218 849 c 128,-1,33
 269 811 269 811 269 763 c 0,34,35
 269 734 269 734 248 711.5 c 128,-1,36
 227 689 227 689 190 689 c 0,37,38
 157 689 157 689 116 723 c 0,39,40
 68 763 68 763 0 763 c 0,41,42
 -37 763 -37 763 -67.5 747 c 128,-1,43
 -98 731 -98 731 -98 696 c 0,44,45
 -98 672 -98 672 -64 651 c 128,-1,46
 -30 630 -30 630 41 604 c 0,47,48
 185 551 185 551 236.5 497.5 c 128,-1,49
 288 444 288 444 288 374 c 0,50,51
 288 285 288 285 235.5 223 c 128,-1,52
 183 161 183 161 90 138 c 1,53,-1
 90 90 l 2,54,55
 90 53 90 53 63.5 26.5 c 128,-1,0
 37 0 37 0 0 0 c 128,-1,1
EndSplineSet
Colour: ff00ff
EndChar

StartChar: starshape
Encoding: 34 -1 34
Width: 912
Flags: MW
LayerCount: 2
Back
SplineSet
34.0842 11.6086 m 6
 172.3586 -393.985 l 6
 173.6035 -397.6367 174.2727 -401.5269 174.2727 -405.5302 c 4
 174.2727 -407.2526 174.1488 -408.9959 173.8936 -410.7502 c 4
 171.2885 -428.6595 155.8911 -441.5743 138.3136 -441.5743 c 4
 136.5931 -441.5743 134.8517 -441.4505 133.0994 -441.1957 c 4
 127.2698 -440.3477 121.9698 -438.1427 117.4726 -434.9473 c 6
 -232.824 -186.0728 l 6
 -237.3555 -182.853 -241.2065 -178.5339 -243.9318 -173.2577 c 4
 -246.6599 -167.9758 -247.9528 -162.3291 -247.9528 -156.7643 c 4
 -247.9528 -143.7225 -240.8512 -131.1308 -228.4798 -124.7409 c 4
 -223.2068 -122.0174 -217.5691 -120.7267 -212.0121 -120.7267 c 6
 212.0058 -120.707 l 6
 217.5628 -120.707 223.2005 -121.9977 228.4736 -124.7213 c 4
 240.8449 -131.1111 247.9465 -143.7028 247.9465 -156.7446 c 4
 247.9465 -162.3094 246.6536 -167.9561 243.9255 -173.238 c 4
 241.2003 -178.5142 237.3492 -182.8333 232.8177 -186.0532 c 6
 -117.4562 -434.9596 l 6
 -121.9534 -438.155 -127.2534 -440.3599 -133.083 -441.2079 c 4
 -134.8353 -441.4628 -136.5767 -441.5865 -138.2972 -441.5865 c 4
 -155.8747 -441.5865 -171.2722 -428.6717 -173.8773 -410.7624 c 4
 -174.1324 -409.0081 -174.2563 -407.2648 -174.2563 -405.5424 c 4
 -174.2563 -401.5391 -173.5871 -397.649 -172.3422 -393.9972 c 6
 -34.0842 11.6086 l 6
 -29.2139 25.8944 -15.6621 35.9921 -0.0229 35.9921 c 4
 0.6386 35.9921 1.304 35.974 1.9726 35.9374 c 4
 17.0733 35.1109 29.5018 25.0738 34.0842 11.6086 c 6
0 0 m 2
 138.2744 -405.5937 l 1
 -212.0058 -156.707 l 1
 212.0058 -156.707 l 1
 -138.2744 -405.5937 l 1
 0 0 l 2
EndSplineSet
Fore
SplineSet
0 -351 m 1,0,-1
 -116 -434 l 2,1,2
 -127 -442 -127 -442 -138 -442 c 0,3,4
 -152 -442 -152 -442 -163 -432 c 128,-1,5
 -174 -422 -174 -422 -174 -406 c 0,6,7
 -174 -398 -174 -398 -172 -393 c 2,8,-1
 -127 -261 l 1,9,-1
 -233 -186 l 2,10,11
 -248 -174 -248 -174 -248 -157 c 0,12,13
 -248 -143 -248 -143 -238 -132 c 128,-1,14
 -228 -121 -228 -121 -212 -121 c 2,15,-1
 -79 -121 l 1,16,-1
 -34 12 l 2,17,18
 -24 36 -24 36 0 36 c 128,-1,19
 24 36 24 36 34 12 c 2,20,-1
 79 -121 l 1,21,-1
 212 -121 l 2,22,23
 228 -121 228 -121 238 -132 c 128,-1,24
 248 -143 248 -143 248 -157 c 0,25,26
 248 -174 248 -174 233 -186 c 2,27,-1
 127 -261 l 1,28,-1
 172 -393 l 2,29,30
 174 -398 174 -398 174 -406 c 0,31,32
 174 -422 174 -422 163 -432 c 128,-1,33
 152 -442 152 -442 138 -442 c 0,34,35
 127 -442 127 -442 116 -434 c 2,36,-1
 0 -351 l 1,0,-1
EndSplineSet
Colour: ff00ff
EndChar

StartChar: persevering_mouth
Encoding: 35 -1 35
Width: 912
Flags: MW
LayerCount: 2
Back
SplineSet
634.8964 -18.9843 m 0
 632.0644 -12.8164 564.3837 132 461.8564 132 c 0
 359.8798 132 280.7519 -12.1679 277.4404 -18.288 c 0
 276.4667 -20.0878 275.997 -22.0458 275.997 -23.9853 c 0
 275.997 -27.4492 277.4951 -30.8535 280.2958 -33.1923 c 0
 282.5283 -35.0644 285.2636 -36 288 -36 c 0
 290.6396 -36 293.2802 -35.1357 295.4638 -33.3837 c 0
 296.208 -32.8076 371.3759 26.1123 461.8564 26.1123 c 0
 551.6884 26.1123 615.1679 -32.208 615.7919 -32.7841 c 0
 618.0937 -34.914 621.0576 -36.0068 624.0253 -36.0068 c 0
 626.4736 -36.0068 628.9248 -35.2626 631.0078 -33.7441 c 0
 634.2226 -31.4238 635.996 -27.7656 635.996 -24.0009 c 0
 635.996 -22.3134 635.6396 -20.6035 634.8964 -18.9843 c 0
EndSplineSet
Fore
SplineSet
462 26 m 129,-1,1
 419 26 419 26 375 9.5 c 129,-1,2
 331 -7 331 -7 296 -33 c 1,3,4
 292 -36 292 -36 288 -36 c 1,5,6
 283 -36 283 -36 279.5 -32.5 c 129,-1,7
 276 -29 276 -29 276 -24 c 1,8,9
 276 -21 276 -21 278 -17 c 1,10,11
 317 50 317 50 365.5 91 c 129,-1,12
 414 132 414 132 461.5 132 c 129,-1,13
 509 132 509 132 554.5 91.5 c 129,-1,14
 600 51 600 51 634 -17 c 1,15,16
 636 -21 636 -21 636 -24 c 1,17,18
 636 -29 636 -29 632.5 -32.5 c 129,-1,19
 629 -36 629 -36 624 -36 c 1,20,21
 620 -36 620 -36 616 -33 c 1,22,23
 586 -7 586 -7 545.5 9.5 c 129,-1,0
 505 26 505 26 462 26 c 129,-1,1
EndSplineSet
Colour: ffff00
EndChar

StartChar: eye_expressionless
Encoding: 36 -1 36
Width: 912
Flags: MW
LayerCount: 2
Back
SplineSet
168 -24 m 13
 0 -24 l 21
 -13.25 -24 -24 -13.25 -24 0 c 5
 -24 13.25 -13.25 24 0 24 c 13
 168 24 l 21
 181.25 24 192 13.25 192 0 c 5
 192 -13.25 181.25 -24 168 -24 c 13
EndSplineSet
Fore
SplineSet
-24 0 m 128,-1,1
 -24 10 -24 10 -17 17 c 128,-1,2
 -10 24 -10 24 0 24 c 2,3,-1
 168 24 l 2,4,5
 178 24 178 24 185 17 c 128,-1,6
 192 10 192 10 192 0 c 128,-1,7
 192 -10 192 -10 185 -17 c 128,-1,8
 178 -24 178 -24 168 -24 c 2,9,-1
 0 -24 l 2,10,11
 -10 -24 -10 -24 -17 -17 c 128,-1,0
 -24 -10 -24 -10 -24 0 c 128,-1,1
EndSplineSet
Colour: ff00ff
EndChar

StartChar: mouth_neutral
Encoding: 37 -1 37
Width: 912
Flags: MW
LayerCount: 2
Back
SplineSet
624 96 m 9
 288 96 l 17
 274.7529 96 264 106.7275 264 120 c 1
 264 133.2724 274.7529 144 288 144 c 9
 624 144 l 17
 637.2724 144 648 133.2724 648 120 c 1
 648 106.7275 637.2724 96 624 96 c 9
EndSplineSet
Fore
SplineSet
264 120 m 129,-1,1
 264 130 264 130 271 137 c 129,-1,2
 278 144 278 144 288 144 c 9,3,-1
 624 144 l 17,4,5
 634 144 634 144 641 137 c 129,-1,6
 648 130 648 130 648 120 c 129,-1,7
 648 110 648 110 641 103 c 129,-1,8
 634 96 634 96 624 96 c 9,9,-1
 288 96 l 17,10,11
 278 96 278 96 271 103 c 129,-1,0
 264 110 264 110 264 120 c 129,-1,1
EndSplineSet
Colour: ffff00
EndChar

StartChar: dottedlinepart
Encoding: 38 -1 38
Width: 912
Flags: MW
LayerCount: 2
Back
SplineSet
414.288085938 -0.1123046875 m 1041
414.288085938 -0.1123046875 m 1033
396.215820312 7.83203125 m 1
 395.466796875 46.44140625 389.08203125 83.8525390625 378 119 c 1
 378.086914062 118.849609375 412.3203125 129.84765625 412.3203125 129.84765625 c 1
 424.704101562 90.7041015625 431.375976562 49.927734375 432.215820312 8.576171875 c 9
 396.215820312 7.83203125 l 1
EndSplineSet
Fore
SplineSet
378 119 m 1,0,-1
 412 130 l 1,1,2
 432 67 432 67 432 8 c 1,3,-1
 396 8 l 1,4,5
 396 59 396 59 378 119 c 1,0,-1
EndSplineSet
Colour: ff00ff
EndChar

StartChar: mouth_confused
Encoding: 39 -1 39
Width: 912
Flags: MW
LayerCount: 2
Back
SplineSet
-312 -72 m 1
 -264 48 0 48 0 0 c 4
 0 -24 -192 24 -312 -72 c 1
EndSplineSet
Fore
SplineSet
0 0 m 0,0,1
 0 -3 0 -3 -3.5 -4.5 c 128,-1,2
 -7 -6 -7 -6 -15 -7 c 0,3,4
 -25 -8 -25 -8 -41 -8 c 2,5,-1
 -69 -8 l 2,6,7
 -98 -8 -98 -8 -128 -10 c 0,8,9
 -187 -14 -187 -14 -233.5 -30 c 128,-1,10
 -280 -46 -280 -46 -312 -72 c 1,11,12
 -299 -40 -299 -40 -265.5 -17 c 128,-1,13
 -232 6 -232 6 -185 18 c 128,-1,14
 -138 30 -138 30 -91 30 c 0,15,16
 -50 30 -50 30 -25 21.5 c 128,-1,17
 0 13 0 13 0 0 c 0,0,1
EndSplineSet
Colour: ff00ff
EndChar

StartChar: raised_eyebrow
Encoding: 40 -1 40
Width: 912
Flags: MW
LayerCount: 2
Back
SplineSet
744.0244 469.8076 m 0
 735.1923 469.8076 726.4804 473.6718 720.5283 481.1113 c 0
 687.0478 523.1357 617.3515 560 592.9921 560 c 0
 577.5839 560 546.7919 538.1357 530.496 522.3671 c 0
 524.6748 516.7109 517.1552 513.9062 509.6455 513.9062 c 0
 501.7988 513.9062 493.9628 516.9687 488.0878 523.04 c 0
 482.4316 528.873 479.6162 536.413 479.6162 543.9443 c 0
 479.6162 551.7509 482.6416 559.5478 488.664 565.4238 c 0
 498.0478 574.5439 547.1279 620.0234 592.9921 620.0234 c 0
 641.1123 620.0234 725.9042 570.6796 767.4716 518.5273 c 4
 771.8808 513.0039 774.0175 506.4082 774.0175 499.8583 c 0
 774.0175 491.04 770.1425 482.3056 762.7197 476.3837 c 0
 757.1757 471.9433 750.5517 469.8076 744.0244 469.8076 c 0
EndSplineSet
Fore
SplineSet
480 544 m 133,-1,1
 480 557 480 557 489 566 c 5,2,3
 548 620 548 620 593 620 c 5,4,5
 627 620 627 620 679.5 590.5 c 133,-1,6
 732 561 732 561 767 519 c 5,7,8
 774 510 774 510 774 500 c 5,9,10
 774 487 774 487 765 478.5 c 133,-1,11
 756 470 756 470 744 470 c 5,12,13
 729 470 729 470 719 483 c 5,14,15
 691 515 691 515 651 537.5 c 133,-1,16
 611 560 611 560 593 560 c 5,17,18
 582 560 582 560 562 547 c 133,-1,19
 542 534 542 534 532 524 c 133,-1,20
 522 514 522 514 509.5 514 c 133,-1,21
 497 514 497 514 488.5 522.5 c 133,-1,0
 480 531 480 531 480 544 c 133,-1,1
EndSplineSet
Colour: ffff00
EndChar

StartChar: mouth_grimacing
Encoding: 41 -1 41
Width: 912
Flags: MW
LayerCount: 2
Back
SplineSet
-144 204 m 0
 192 204 l 0
 258 204 312 150 312 84 c 0
 312 18 258 -36 192 -36 c 0
 -144 -36 l 0
 -210 -36 -264 18 -264 84 c 0
 -264 150 -210 204 -144 204 c 0
192 156 m 17
 227.5283 155.8925 257.041 129.9316 262.7763 96 c 1
 262.7705 96.0664 180 96 180 96 c 1
 180 156 l 1
 192 156 l 17
156 156 m 1
 156 96 l 1
 84 96 l 1
 84 156 l 1
 156 156 l 1
60 156 m 1
 60 96 l 1
 -12 96 l 1
 -12 156 l 1
 60 156 l 1
-36 156 m 1
 -36 96 l 1
 -108 96 l 1
 -108 156 l 1
 -36 156 l 1
-144 156 m 9
 -132 156 l 1
 -132 96 l 1
 -214.7763 96 l 1
 -209.041 129.9316 -179.5283 155.8925 -144 156 c 9
-144 12 m 17
 -179.5283 12.1074 -209.041 38.0683 -214.7763 72 c 1
 -214.7705 71.9335 -132 72 -132 72 c 1
 -132 12 l 1
 -144 12 l 17
-108 12 m 1
 -108 72 l 1
 -36 72 l 1
 -36 12 l 1
 -108 12 l 1
-12 12 m 1
 -12 72 l 1
 60 72 l 1
 60 12 l 1
 -12 12 l 1
84 12 m 1
 84 72 l 1
 156 72 l 1
 156 12 l 1
 84 12 l 1
192 12 m 9
 180 12 l 1
 180 72 l 1
 262.7763 72 l 1
 257.041 38.0683 227.5283 12.1074 192 12 c 9
EndSplineSet
Fore
SplineSet
168 120 m 128,-1,1
 168 170 168 170 203.5 205 c 128,-1,2
 239 240 239 240 288 240 c 2,3,-1
 624 240 l 2,4,5
 673 240 673 240 708.5 205 c 128,-1,6
 744 170 744 170 744 120 c 128,-1,7
 744 70 744 70 708.5 35 c 128,-1,8
 673 0 673 0 624 0 c 2,9,-1
 288 0 l 2,10,11
 239 0 239 0 203.5 35 c 128,-1,0
 168 70 168 70 168 120 c 128,-1,1
EndSplineSet
Colour: ffff00
EndChar

StartChar: eye_unamused
Encoding: 42 -1 42
Width: 912
Flags: MW
LayerCount: 2
Back
SplineSet
-84 324 m 1053
-84 324 m 1053
-84 324 m 1053
-120 324 m 4
 -120 343.875 -103.875 360 -84 360 c 4
 -64.125 360 -48 343.875 -48 324 c 4
 -48 304.125 -64.125 288 -84 288 c 4
 -103.875 288 -120 304.125 -120 324 c 4
-84 324 m 1053
-72 312 m 13
 -240 312 l 21
 -253.25 312 -264 322.75 -264 336 c 5
 -264 349.25 -253.25 360 -240 360 c 13
 -72 360 l 21
 -58.75 360 -48 349.25 -48 336 c 5
 -48 322.75 -58.75 312 -72 312 c 13
EndSplineSet
Fore
SplineSet
-264 336 m 129,-1,1
 -264 346 -264 346 -257 353 c 129,-1,2
 -250 360 -250 360 -240 360 c 9,3,-1
 -72 360 l 17,4,5
 -62 360 -62 360 -55 353 c 129,-1,6
 -48 346 -48 346 -48 336 c 1,7,8
 -48 332 -48 332 -49 331 c 1,9,10
 -48 329 -48 329 -48 324 c 1,11,12
 -48 309 -48 309 -58.5 298.5 c 129,-1,13
 -69 288 -69 288 -84 288 c 1,14,15
 -98 288 -98 288 -109 298 c 1,16,17
 -115 304 -115 304 -118 312 c 1,18,-1
 -240 312 l 17,19,20
 -250 312 -250 312 -257 319 c 129,-1,0
 -264 326 -264 326 -264 336 c 129,-1,1
EndSplineSet
Colour: ff00ff
EndChar

StartChar: mouth_smirking
Encoding: 43 -1 43
Width: 912
VWidth: 0
Flags: MW
LayerCount: 2
Back
SplineSet
0 12 m 2
 0 12 0.0022 11.9999 0.0066 11.9999 c 0
 0.1738 11.9999 3.4828 12.0015 9.3738 12.1185 c 0
 14.1697 12.2138 20.5949 12.3858 28.1495 12.6954 c 0
 41.7467 13.2526 59.0077 14.2577 76.983 16.0552 c 0
 86.9682 17.0537 97.173 18.2968 107.0753 19.8355 c 0
 114.9963 21.0663 122.7239 22.4867 129.9753 24.112 c 0
 137.2256 25.7371 144.0008 27.5697 149.9875 29.5906 c 0
 152.6475 30.4885 155.1508 31.4228 157.4663 32.3852 c 0
 159.3185 33.155 161.0504 33.9427 162.645 34.7401 c 2
 258.645 82.7401 l 17
 260.0123 83.4237 261.5334 83.8554 263.1519 83.9701 c 0
 263.4398 83.9905 263.7261 84.0006 264.0104 84.0006 c 0
 270.2464 84.0006 275.5179 79.1662 275.9658 72.8471 c 0
 275.9863 72.5588 275.9963 72.2721 275.9963 71.9874 c 0
 275.9963 70.6733 275.782 69.402 275.3845 68.2096 c 1
 275.4512 68.4099 275.4758 68.4832 275.4761 68.4832 c 1
 275.4761 68.4832 275.2955 67.9364 275.2955 67.9336 c 1
 275.2955 67.9336 275.32 68.0056 275.3873 68.2072 c 1
 275.271 67.8586 274.1046 64.4062 271.6389 59.0792 c 0
 269.6663 54.8173 266.8617 49.3539 263.0764 43.3211 c 0
 259.2915 37.2889 254.5242 30.6823 248.6015 24.1636 c 0
 243.8642 18.9494 238.384 13.7898 232.0788 9.0609 c 0
 224.987 3.7421 216.8465 -1.029 207.6135 -4.6737 c 0
 201.203 -7.2041 194.2713 -9.1889 186.8293 -10.4485 c 0
 180.8758 -11.4562 174.5973 -12 168 -12 c 2
 0 -12 l 2
 -6.6229 -12 -12 -6.6229 -12 0 c 0
 -12 6.6229 -6.6229 12 0 12 c 2
0 0 m 1
 0 0 120 0 168 24 c 9
 264 72 l 1
 264 72 240 0 168 0 c 9
 0 0 l 1
EndSplineSet
Fore
SplineSet
-12 0 m 128,-1,1
 -12 5 -12 5 -8.5 8.5 c 128,-1,2
 -5 12 -5 12 0 12 c 0,3,4
 40 12 40 12 89.5 17.5 c 128,-1,5
 139 23 139 23 163 35 c 2,6,-1
 259 83 l 2,7,8
 261 84 261 84 264 84 c 0,9,10
 269 84 269 84 272.5 80.5 c 128,-1,11
 276 77 276 77 276 72 c 0,12,13
 276 70 276 70 275 67 c 0,14,15
 260 30 260 30 232 9 c 128,-1,16
 204 -12 204 -12 168 -12 c 2,17,-1
 0 -12 l 2,18,19
 -5 -12 -5 -12 -8.5 -8.5 c 128,-1,0
 -12 -5 -12 -5 -12 0 c 128,-1,1
EndSplineSet
Colour: ff00ff
EndChar

StartChar: eyebrow_smirking
Encoding: 44 -1 44
Width: 912
Flags: MW
LayerCount: 2
Back
SplineSet
5.8314 23.2853 m 4
 16.2863 20.6808 24.0245 11.2367 24.0245 -0.0004 c 0
 24.0245 -13.2488 13.2684 -24.0048 0.02 -24.0048 c 0
 -1.9911 -24.0048 -3.9449 -23.7569 -5.8124 -23.2901 c 9
 -5.8314 -23.2853 l 1
 -5.8314 -23.2853 -5.7734 -23.2996 -5.7734 -23.2997 c 1
 -5.7734 -23.2997 -5.7769 -23.2988 -5.7856 -23.2967 c 0
 -5.8817 -23.2733 -7.7094 -22.8299 -10.9465 -22.2106 c 0
 -13.8599 -21.6533 -17.9148 -20.9537 -22.8729 -20.2871 c 0
 -27.8308 -19.6205 -33.6919 -18.987 -40.2125 -18.5573 c 0
 -45.4289 -18.2134 -51.0673 -18 -57 -18 c 0
 -66.2699 -18 -76.279 -18.5231 -86.555 -19.8646 c 0
 -94.776 -20.9378 -103.1655 -22.5342 -111.4924 -24.7847 c 0
 -126.4935 -28.8391 -141.2318 -34.9971 -154.7114 -43.9835 c 0
 -158.5169 -46.5205 -163.0866 -47.9997 -167.9991 -47.9997 c 0
 -181.2442 -47.9997 -191.9976 -37.2463 -191.9976 -24.0012 c 0
 -191.9976 -15.6686 -187.7416 -8.3222 -181.3353 -4.0476 c 0
 -181.29 -4.0209 -181.2885 -4.0169 -181.2885 -4.0165 c 0
 -181.2885 -4.0164 -181.2885 -4.0164 -181.2885 -4.0164 c 1
 -162.7681 8.3304 -143.136 16.3946 -124.0301 21.5584 c 0
 -113.4087 24.429 -102.9312 26.4094 -92.8181 27.7296 c 0
 -80.1763 29.38 -68.1004 30 -57 30 c 0
 -49.8955 30 -43.1992 29.7452 -37.0145 29.3376 c 0
 -29.2837 28.828 -22.352 28.0795 -16.4274 27.283 c 0
 -10.503 26.4864 -5.5858 25.6415 -1.8888 24.9343 c 0
 2.7322 24.0504 5.4469 23.3815 5.8314 23.2853 c 4
0 0 m 0
 0 0 -96 24 -168 -24 c 1024
EndSplineSet
Fore
SplineSet
24 0 m 129,-1,1
 24 -10 24 -10 17 -17 c 129,-1,2
 10 -24 10 -24 0 -24 c 1,3,4
 -4 -24 -4 -24 -7 -23 c 1,5,6
 -31 -18 -31 -18 -57 -18 c 1,7,8
 -115 -18 -115 -18 -155 -44 c 1,9,10
 -161 -48 -161 -48 -168 -48 c 1,11,12
 -178 -48 -178 -48 -185 -41 c 129,-1,13
 -192 -34 -192 -34 -192 -24 c 1,14,15
 -192 -11 -192 -11 -181 -4 c 1,16,17
 -130 30 -130 30 -57 30 c 1,18,19
 -23 30 -23 30 7 23 c 1,20,21
 13 21 13 21 17 17 c 1,22,0
 24 10 24 10 24 0 c 129,-1,1
EndSplineSet
Colour: ff00ff
EndChar

StartChar: eyebrow_unamused
Encoding: 45 -1 45
Width: 912
VWidth: 0
Flags: MW
LayerCount: 2
Back
SplineSet
12.3221 20.595 m 6
 12.3221 20.595 l 6
 12.3221 20.595 12.3223 20.5946 12.3734 20.5643 c 4
 19.3154 16.3987 23.9997 8.742 23.9997 -0.0001 c 4
 23.9997 -13.246 13.2458 -23.9999 0 -23.9999 c 4
 -4.5037 -23.9999 -8.7193 -22.7567 -12.3221 -20.595 c 5
 -12.3221 -20.595 -12.2587 -20.6326 -12.2587 -20.6327 c 5
 -12.2587 -20.6327 -12.2667 -20.6281 -12.2884 -20.6154 c 4
 -12.5856 -20.4407 -15.9529 -18.4782 -21.5825 -15.7952 c 4
 -26.6485 -13.3807 -33.5463 -10.3845 -41.6559 -7.5638 c 4
 -46.1608 -5.9968 -51.0385 -4.4839 -56.177 -3.1478 c 4
 -60.2877 -2.079 -64.565 -1.1234 -68.9495 -0.3396 c 4
 -73.334 0.4441 -77.8254 1.056 -82.3633 1.4435 c 4
 -85.9936 1.7535 -89.6534 1.92 -93.312 1.92 c 4
 -105.6751 1.92 -118.1108 0.0251 -130.0201 -4.6223 c 4
 -132.965 -5.7715 -135.8838 -7.0909 -138.7768 -8.6004 c 4
 -142.393 -10.4873 -145.9696 -12.6712 -149.5093 -15.2043 c 4
 -153.9337 -18.3706 -158.3038 -22.084 -162.6078 -26.4735 c 4
 -166.0509 -29.985 -169.4518 -33.9308 -172.7885 -38.3798 c 6
 -172.8161 -38.4165 l 6
 -177.1951 -44.2552 -184.1721 -48.0355 -192.0251 -48.0355 c 4
 -205.2695 -48.0355 -216.0222 -37.2828 -216.0222 -24.0385 c 4
 -216.0222 -18.6472 -214.2404 -13.6688 -211.2114 -9.6201 c 4
 -206.6469 -3.5341 -201.8575 2.0433 -196.8768 7.123 c 4
 -190.6511 13.4723 -184.1266 19.0411 -177.4 23.8551 c 4
 -172.0187 27.7062 -166.5104 31.0735 -160.933 33.9837 c 4
 -156.471 36.3119 -151.9654 38.3479 -147.4448 40.112 c 4
 -129.1187 47.2636 -110.6448 49.92 -93.312 49.92 c 4
 -88.1717 49.92 -83.1393 49.6869 -78.233 49.2679 c 4
 -72.1001 48.7442 -66.1639 47.9302 -60.46 46.9105 c 4
 -54.756 45.8908 -49.284 44.6652 -44.0804 43.3122 c 4
 -37.576 41.621 -31.4907 39.7307 -25.8996 37.786 c 4
 -15.8363 34.2857 -7.3706 30.6098 -0.9749 27.5617 c 4
 7.0185 23.752 11.7798 20.9204 12.3221 20.595 c 6
0 0 m 0
 0 0 -120 72 -192 -24 c 1024
EndSplineSet
Fore
SplineSet
24 -0 m 133,-1,1
 24 -10 24 -10 17 -17 c 133,-1,2
 10 -24 10 -24 -0 -24 c 5,3,4
 -6 -24 -6 -24 -11.5 -21 c 13,5,-1
 -17 -18 l 21,6,7
 -58 2 -58 2 -93 2 c 5,8,9
 -141 2 -141 2 -171 -36 c 5,10,11
 -174 -40 -174 -40 -175 -41 c 5,12,13
 -182 -48 -182 -48 -192 -48 c 133,-1,14
 -202 -48 -202 -48 -209 -41 c 133,-1,15
 -216 -34 -216 -34 -216 -24 c 5,16,17
 -216 -15 -216 -15 -210 -8 c 5,18,19
 -165 50 -165 50 -93 50 c 5,20,21
 -44 50 -44 50 10 22 c 5,22,23
 15 19 15 19 17 17 c 5,24,0
 24 10 24 10 24 -0 c 133,-1,1
EndSplineSet
Colour: ff00ff
EndChar

StartChar: eye_mask
Encoding: 46 -1 46
Width: 912
Flags: MW
LayerCount: 2
Back
SplineSet
13.2885 -19.9835 m 1
 9.4346 -22.5491 4.8648 -24.0283 -0.0476 -24.0283 c 0
 -13.2927 -24.0283 -24.0461 -13.275 -24.0461 -0.0299 c 0
 -24.0461 8.3026 -19.7901 15.6491 -13.3353 19.9523 c 13
 -13.2885 19.9835 l 2
 -12.6547 20.406 -5.0409 25.443 8.2214 32.2567 c 0
 18.8315 37.7078 33.0592 44.2977 50.2432 50.5464 c 0
 59.7899 54.018 70.25 57.3838 81.5118 60.3834 c 0
 90.5212 62.7831 100.0439 64.9483 110.0227 66.7422 c 0
 127.9836 69.9711 147.4255 72 168 72 c 0
 181.2459 72 192 61.2459 192 48 c 0
 192 34.754 181.2459 24 168 24 c 0
 150.6485 24 134.0373 22.283 118.558 19.5002 c 0
 109.9588 17.9543 101.7101 16.0803 93.8813 13.9951 c 0
 84.0953 11.3886 74.9658 8.4521 66.6292 5.4206 c 0
 51.6229 -0.0362 39.188 -5.8021 30.1083 -10.4669 c 0
 25.0641 -13.0584 21.0555 -15.3091 18.2145 -16.9735 c 0
 15.0578 -18.8228 13.3426 -19.9482 13.2478 -20.0106 c 0
 13.2395 -20.016 13.2362 -20.0182 13.2361 -20.0182 c 2
 13.2361 -20.0182 l 2
 13.2361 -20.0181 13.2885 -19.9835 13.2885 -19.9835 c 1
0 0 m 0
 0 0 72 48 168 48 c 1024
EndSplineSet
Fore
SplineSet
-24 0 m 129,-1,1
 -24 10 -24 10 -17 17 c 1,2,3
 -15 19 -15 19 -10 22 c 1,4,5
 76 72 76 72 168 72 c 1,6,7
 178 72 178 72 185 65 c 129,-1,8
 192 58 192 58 192 48 c 129,-1,9
 192 38 192 38 185 31 c 129,-1,10
 178 24 178 24 168 24 c 1,11,12
 89 24 89 24 13 -20 c 1,13,14
 7 -24 7 -24 -0 -24 c 1,15,16
 -10 -24 -10 -24 -17 -17 c 129,-1,0
 -24 -10 -24 -10 -24 0 c 129,-1,1
EndSplineSet
Colour: ff00ff
EndChar

StartChar: mouth_drooling
Encoding: 47 -1 47
Width: 912
VWidth: 0
Flags: MW
LayerCount: 2
Back
SplineSet
564 120 m 2
 456 120 l 2
 321.5996 120 288 144 288 144 c 1
 288 144 318.4082 57.7441 436.2958 48.8876 c 0
 438.7919 48.3359 441.3603 48 444 48 c 2
 552 48 l 2
 571.7998 48 600 76.2001 600 96 c 0
 600 115.7998 583.7998 120 564 120 c 2
564 120 m 2
 583.7998 120 600 115.7998 600 96 c 0
 600 76.2001 571.7998 48 552 48 c 2
 456 48 l 2
 321.5996 48 288 144 288 144 c 1
 288 144 321.5996 120 456 120 c 2
 564 120 l 2
EndSplineSet
Fore
SplineSet
456 48 m 2,0,1
 419 48 419 48 385.5 58.5 c 128,-1,2
 352 69 352 69 326 92 c 128,-1,3
 300 115 300 115 288 144 c 1,4,5
 307 133 307 133 351 126.5 c 128,-1,6
 395 120 395 120 456 120 c 2,7,-1
 564 120 l 2,8,9
 582 120 582 120 591 114.5 c 128,-1,10
 600 109 600 109 600 96 c 0,11,12
 600 86 600 86 591 73.5 c 128,-1,13
 582 61 582 61 571 54.5 c 128,-1,14
 560 48 560 48 552 48 c 2,15,-1
 456 48 l 2,0,1
EndSplineSet
Colour: ffff00
EndChar

StartChar: zzz_shadow
Encoding: 48 -1 48
Width: 912
Flags: MW
LayerCount: 2
Back
SplineSet
107.4365 -131.9384 m 1
 107.497 -131.2666 107.7871 -130.7626 107.7871 -130.0595 c 1
 107.7871 -118.541 99.416 -111.9111 89.0742 -111.9111 c 9
 34.3554 -111.9111 l 1
 99.7216 -20.3623 l 17
 102.8681 -16.039 104.0292 -13.4433 104.0292 -7.9736 c 1
 104.0292 3.2539 94.2529 4.996 90.5097 4.996 c 9
 8.7988 4.996 l 1
 8.3095 15.5048 l 1
 8.3095 15.5048 -13.2138 2.8105 -14.6503 1.9404 c 1
 -16.0859 1.0693 -22.3642 -3.7421 -22.3642 -13.1367 c 1
 -22.3642 -24.6552 -14.0234 -31.2695 -3.6513 -31.2695 c 9
 44.4531 -31.2695 l 1
 -20.6386 -122.8193 l 17
 -22.0742 -125.1259 -24.3652 -129.4335 -24.3652 -134.0468 c 1
 -24.3652 -143.5478 -16.6044 -148.1611 -7.3935 -148.1611 c 9
 89.0742 -148.1611 l 17
 93.0156 -148.1611 96.9414 -147.0009 99.4775 -145.4736 c 9
 122.4365 -131.9082 l 1
 107.4365 -131.9082 l 1
 107.4365 -131.9384 l 1
66.7919 -18.1435 m 25
 18.7197 -18.1435 l 17
 8.3525 -18.1435 0 -11.5195 0 0 c 1
 0 11.496 8.3525 18.1201 18.7197 18.1201 c 9
 112.8476 18.1201 l 17
 116.5917 18.1201 126.3603 16.3925 126.3603 5.1845 c 1
 126.3603 -0.2871 125.2324 -2.8798 122.0644 -7.1992 c 9
 56.7119 -98.7353 l 1
 111.4082 -98.7353 l 17
 121.7763 -98.7353 130.1044 -105.3593 130.1044 -116.8798 c 1
 130.1044 -128.3759 121.7763 -135 111.4082 -135 c 9
 14.9765 -135 l 17
 5.7597 -135 -2.0156 -130.3916 -2.0156 -120.8876 c 1
 -2.0156 -116.2792 0.288 -111.9833 1.7285 -109.6552 c 9
 66.7919 -18.1435 l 25
EndSplineSet
Fore
SplineSet
-23.5 -139 m 128,-1,1
 -26 -130 -26 -130 -20 -122 c 2,2,-1
 45 -31 l 1,3,-1
 -3 -31 l 2,4,5
 -19 -31 -19 -31 -22 -18 c 128,-1,6
 -25 -5 -25 -5 -13 3 c 2,7,-1
 9 16 l 1,8,-1
 103 -16 l 1,9,-1
 34 -112 l 1,10,-1
 105 -112 l 1,11,-1
 121 -133 l 1,12,-1
 100 -145 l 2,13,14
 95 -148 95 -148 89 -148 c 2,15,-1
 -7 -148 l 2,16,0
 -21 -148 -21 -148 -23.5 -139 c 128,-1,1
EndSplineSet
Colour: ff00ff
EndChar

StartChar: zzz_letter
Encoding: 49 -1 49
Width: 912
Flags: MW
LayerCount: 2
Back
SplineSet
126.3359 -155.1835 m 17
 126.4082 -154.3916 126.7685 -153.7919 126.7685 -152.9755 c 1
 126.7685 -139.4404 116.9287 -131.6396 104.7607 -131.6396 c 9
 40.3925 -131.6396 l 1
 117.2646 -23.9521 l 17
 121.0078 -18.8642 122.3525 -15.8164 122.3525 -9.4082 c 1
 122.3525 3.7919 110.8564 5.832 106.4404 5.832 c 9
 10.3447 5.832 l 1
 9.7685 18.1923 l 1
 9.7685 18.1923 -15.5517 3.2636 -17.2314 2.2324 c 1
 -18.9121 1.2001 -26.3037 -4.4638 -26.3037 -15.5039 c 1
 -26.3037 -29.04 -16.4873 -36.8398 -4.2958 -36.8398 c 9
 52.2724 -36.8398 l 1
 -24.288 -144.5283 l 17
 -25.9677 -147.2402 -28.6796 -152.3037 -28.6796 -157.7285 c 1
 -28.6796 -168.9121 -19.5595 -174.3125 -8.7119 -174.3125 c 9
 104.7607 -174.3125 l 17
 109.3925 -174.3125 114 -172.9443 117 -171.1445 c 9
 144 -155.1835 l 1
 126.3359 -155.1835 l 17
78.5761 -21.3359 m 25
 22.0078 -21.3359 l 17
 9.8164 -21.3359 0 -13.5605 0 0 c 1
 0 13.5361 9.8164 21.3359 22.0078 21.3359 c 9
 132.7685 21.3359 l 17
 137.1845 21.3359 148.6806 19.2958 148.6806 6.0957 c 1
 148.6806 -0.3359 147.3125 -3.3837 143.6162 -8.4716 c 9
 66.7441 -116.1601 l 1
 131.1123 -116.1601 l 17
 143.2324 -116.1601 153.0722 -123.9365 153.0722 -137.496 c 1
 153.0722 -151.0556 143.2324 -158.832 131.0644 -158.832 c 9
 17.5917 -158.832 l 17
 6.7441 -158.832 -2.3759 -153.4082 -2.3759 -142.248 c 1
 -2.3759 -136.8242 0.3359 -131.7597 2.0166 -129.0478 c 9
 78.5761 -21.3359 l 25
EndSplineSet
Fore
SplineSet
-2 -121 m 128,-1,1
 -2 -115 -2 -115 2 -109 c 2,2,-1
 67 -18 l 1,3,-1
 18 -18 l 2,4,5
 10 -18 10 -18 5 -13 c 128,-1,6
 0 -8 0 -8 0 0 c 128,-1,7
 0 8 0 8 5 13 c 128,-1,8
 10 18 10 18 18 18 c 2,9,-1
 113 18 l 2,10,11
 118 18 118 18 122 15 c 128,-1,12
 126 12 126 12 126.5 6 c 128,-1,13
 127 0 127 0 123 -6 c 2,14,-1
 57 -99 l 1,15,-1
 112 -99 l 2,16,17
 120 -99 120 -99 125 -104 c 128,-1,18
 130 -109 130 -109 130 -117 c 128,-1,19
 130 -125 130 -125 125 -130 c 128,-1,20
 120 -135 120 -135 112 -135 c 2,21,-1
 15 -135 l 2,22,23
 7 -135 7 -135 2.5 -131 c 128,-1,0
 -2 -127 -2 -127 -2 -121 c 128,-1,1
EndSplineSet
Colour: ff00ff
EndChar

StartChar: eyebrow_saluting
Encoding: 50 -1 50
Width: 912
Flags: MW
LayerCount: 2
Back
SplineSet
83.5439 -24 m 1
 96 -24 l 2
 109.246 -24 120 -13.246 120 0 c 0
 120 13.246 109.246 24 96 24 c 2
 0 24 l 2
 -13.246 24 -24 13.246 -24 0 c 0
 -24 -13.246 -13.246 -24 0 -24 c 2
 12.456 -24 l 1025
EndSplineSet
Fore
SplineSet
-24 0 m 128,-1,1
 -24 10 -24 10 -17 17 c 128,-1,2
 -10 24 -10 24 0 24 c 2,3,-1
 96 24 l 2,4,5
 106 24 106 24 113 17 c 128,-1,6
 120 10 120 10 120 0 c 128,-1,7
 120 -10 120 -10 113 -17 c 128,-1,8
 106 -24 106 -24 96 -24 c 2,9,-1
 0 -24 l 2,10,11
 -10 -24 -10 -24 -17 -17 c 128,-1,0
 -24 -10 -24 -10 -24 0 c 128,-1,1
EndSplineSet
Colour: ff00ff
EndChar

StartChar: saluting_mouth
Encoding: 51 -1 51
Width: 912
Flags: MW
LayerCount: 2
Back
SplineSet
378.1689 30.7148 m 0
 367.7138 33.3193 359.9755 42.7636 359.9755 54 c 0
 359.9755 67.249 370.7314 78.0048 383.9794 78.0048 c 0
 385.9912 78.0048 387.9453 77.7568 389.8125 77.29 c 2
 389.831 77.2851 l 1
 389.7744 77.2988 l 1
 389.7744 77.2988 389.7851 77.2968 389.8134 77.29 c 0
 390.2167 77.1923 394.2207 76.2402 401.8271 74.9248 c 0
 408.6728 73.7421 418.4365 72.2656 431.1191 70.8564 c 0
 453.9501 68.3193 486.2402 66 528 66 c 0
 569.7597 66 602.0498 68.3193 624.8808 70.8564 c 0
 637.5634 72.2656 647.3271 73.7421 654.1728 74.9248 c 0
 661.7792 76.2402 665.7832 77.1923 666.1865 77.29 c 0
 666.2148 77.2968 666.2246 77.2988 666.2255 77.2988 c 2
 666.2255 77.2988 l 2
 666.1689 77.2851 l 1
 666.1875 77.29 l 2
 668.0546 77.7568 670.0087 78.0048 672.0205 78.0048 c 0
 685.2685 78.0048 696.0244 67.249 696.0244 54 c 0
 696.0244 42.7636 688.2861 33.3193 677.831 30.7148 c 0
 676.8251 30.4628 660.9521 26.5654 630.2304 23.1513 c 0
 605.6533 20.4208 571.5732 18 528 18 c 0
 484.4267 18 450.3466 20.4208 425.7695 23.1513 c 0
 395.0478 26.5654 379.1748 30.4628 378.1689 30.7148 c 0
384 54 m 0
 384 54 432 42 528 42 c 0
 624 42 672 54 672 54 c 1024
EndSplineSet
Fore
SplineSet
456 0 m 128,-1,1
 405 0 405 0 365 4 c 128,-1,2
 325 8 325 8 305 13 c 0,3,4
 299 15 299 15 295 19 c 0,5,6
 288 26 288 26 288 36 c 128,-1,7
 288 46 288 46 295 53 c 128,-1,8
 302 60 302 60 312 60 c 0,9,10
 315 60 315 60 319 59 c 0,11,12
 336 55 336 55 373 51.5 c 128,-1,13
 410 48 410 48 456 48 c 128,-1,14
 502 48 502 48 539 51.5 c 128,-1,15
 576 55 576 55 593 59 c 0,16,17
 597 60 597 60 600 60 c 0,18,19
 610 60 610 60 617 53 c 128,-1,20
 624 46 624 46 624 36 c 128,-1,21
 624 26 624 26 617 19 c 0,22,23
 613 15 613 15 607 13 c 0,24,25
 587 8 587 8 547 4 c 128,-1,0
 507 0 507 0 456 0 c 128,-1,1
EndSplineSet
Colour: ffff00
EndChar

StartChar: eyebrow_3b
Encoding: 52 -1 52
Width: 912
Flags: MW
LayerCount: 2
Back
SplineSet
59.9755859375 454.9921875 m 4
 56.3759765625 454.9921875 52.7041015625 455.807617188 49.2724609375 457.536132812 c 4
 37.416015625 463.463867188 32.6162109375 477.887695312 38.5439453125 489.744140625 c 4
 62.927734375 538.48828125 129.576171875 614.423828125 213.3359375 623.856445312 c 4
 226.51171875 625.3203125 238.368164062 615.864257812 239.856445312 602.688476562 c 4
 241.34375 589.51171875 231.864257812 577.631835938 218.688476562 576.143554688 c 4
 154.391601562 568.896484375 100.416015625 506.135742188 81.48046875 468.263671875 c 4
 77.255859375 459.864257812 68.7841796875 454.9921875 59.9755859375 454.9921875 c 4
0 -24 m 0
 -13.2459 -24 -24 -13.2459 -24 0 c 0
 -24 13.2459 -13.2459 24 0 24 c 0
 11.7362 24 22.602 25.0283 32.6747 26.8365 c 0
 45.2651 29.0968 56.6232 32.5755 66.887 36.841 c 0
 81.6622 42.9813 94.1914 50.7668 104.692 58.9624 c 0
 110.524 63.5142 115.7248 68.1907 120.3096 72.7629 c 0
 126.0403 78.4776 130.8073 84.029 134.6338 88.941 c 0
 138.46 93.8526 141.3448 98.1232 143.318 101.2584 c 0
 145.5148 104.749 146.5717 106.8128 146.5717 106.8128 c 1
 146.5197 106.7098 l 1
 146.5197 106.7098 l 1
 146.544 106.7583 l 2
 150.4825 114.6354 158.627 120.0496 168.0261 120.0496 c 0
 181.2732 120.0496 192.0282 109.2946 192.0282 96.0475 c 0
 192.0282 92.1995 191.1207 88.5617 189.4802 85.2901 c 0
 189.1134 84.5566 186.6224 79.6606 181.7216 72.2568 c 0
 177.8011 66.3338 172.3366 58.8031 165.1603 50.5322 c 0
 157.9851 42.2624 149.0943 33.2479 138.3179 24.4078 c 0
 129.6981 17.3367 119.8696 10.3781 108.7705 4.0358 c 0
 101.8341 0.0721 94.4024 -3.6498 86.4695 -7.0045 c 0
 76.5536 -11.1977 65.8548 -14.8158 54.3773 -17.6195 c 0
 45.1954 -19.8624 35.5163 -21.584 25.3464 -22.6697 c 0
 17.2104 -23.5382 8.7606 -24 0 -24 c 0
0 0 m 0
 120 0 168 96 168 96 c 1024
EndSplineSet
Fore
SplineSet
24 0 m 128,-1,1
 24 -10 24 -10 17 -17 c 128,-1,2
 10 -24 10 -24 0 -24 c 0,3,4
 -60 -24 -60 -24 -109.5 4.5 c 128,-1,5
 -159 33 -159 33 -189 84 c 0,6,7
 -192 90 -192 90 -192 96 c 0,8,9
 -192 106 -192 106 -185 113 c 128,-1,10
 -178 120 -178 120 -168 120 c 0,11,12
 -154 120 -154 120 -146 106 c 0,13,14
 -125 70 -125 70 -87 47 c 128,-1,15
 -49 24 -49 24 0 24 c 0,16,17
 10 24 10 24 17 17 c 128,-1,0
 24 10 24 10 24 0 c 128,-1,1
EndSplineSet
Colour: ff00ff
EndChar

StartChar: eyebrow_3
Encoding: 53 -1 53
Width: 912
Flags: MW
LayerCount: 2
Back
SplineSet
0 -24 m 0
 -13.2459 -24 -24 -13.2459 -24 0 c 0
 -24 13.2459 -13.2459 24 0 24 c 0
 11.6872 24 22.4052 24.6839 32.2301 25.9054 c 0
 44.512 27.4325 55.3979 29.7983 65.0592 32.7288 c 0
 74.7211 35.6594 83.1612 39.1541 90.568 42.9704 c 0
 94.6833 45.0907 98.4803 47.3113 101.991 49.5958 c 0
 106.3793 52.4514 110.3208 55.4072 113.8717 58.3973 c 0
 120.2616 63.7783 125.3933 69.276 129.5199 74.5028 c 0
 132.8203 78.6831 135.4747 82.6899 137.5862 86.3003 c 0
 139.9318 90.3112 141.6058 93.8319 142.7439 96.5277 c 0
 144.1663 99.8969 144.7496 101.9749 144.777 102.0738 c 0
 144.7796 102.0833 144.7807 102.0872 144.7807 102.0872 c 0
 144.7807 102.0872 l 0
 144.7807 102.0866 144.7618 102.0165 144.7618 102.0165 c 1
 144.7146 101.8314 l 1
 144.7146 101.8314 l 2
 147.323 112.2652 156.7671 120.0033 168.0043 120.0033 c 0
 181.2527 120.0033 192.0088 109.2473 192.0088 95.9989 c 0
 192.0088 93.9876 191.7609 92.0338 191.2901 90.1875 c 0
 191.2908 90.1836 191.2911 90.1805 191.2911 90.178 c 0
 191.2911 90.1694 191.2875 90.1685 191.286 90.1685 c 0
 191.2856 90.1685 191.2853 90.1685 191.2853 90.1685 c 2
 191.099 89.4231 190.4053 86.7959 188.9198 82.7729 c 0
 187.7315 79.5546 186.036 75.4423 183.6805 70.6924 c 0
 179.4429 62.1472 173.0583 51.5146 163.6424 40.437 c 0
 157.1062 32.7473 149.1082 24.8514 139.4224 17.3583 c 0
 132.6972 12.1556 125.1621 7.1498 116.7669 2.5399 c 0
 110.0508 -1.1479 102.7856 -4.5822 94.9502 -7.6701 c 0
 80.8445 -13.229 64.8987 -17.6599 46.9646 -20.4911 c 0
 32.6164 -22.7562 16.9957 -24 0 -24 c 0
0 0 m 0
 144 0 168 96 168 96 c 1024
EndSplineSet
Fore
SplineSet
-24 0 m 128,-1,1
 -24 10 -24 10 -17 17 c 128,-1,2
 -10 24 -10 24 0 24 c 0,3,4
 41 24 41 24 72 35 c 128,-1,5
 103 46 103 46 121.5 65.5 c 128,-1,6
 140 85 140 85 145 103 c 0,7,8
 146 107 146 107 150 112 c 0,9,10
 158 120 158 120 168 120 c 128,-1,11
 178 120 178 120 185 113 c 128,-1,12
 192 106 192 106 192 96 c 0,13,14
 192 92 192 92 191 89 c 0,15,16
 174 38 174 38 124.5 7 c 128,-1,17
 75 -24 75 -24 0 -24 c 0,18,19
 -10 -24 -10 -24 -17 -17 c 128,-1,0
 -24 -10 -24 -10 -24 0 c 128,-1,1
EndSplineSet
Colour: ff00ff
EndChar

StartChar: smile_1d
Encoding: 54 -1 54
Width: 912
Flags: MW
LayerCount: 2
Fore
SplineSet
456 24 m 128,-1,1
 415 24 415 24 385 18 c 128,-1,2
 355 12 355 12 344 3 c 0,3,4
 340 0 340 0 336 0 c 0,5,6
 331 0 331 0 327.5 3.5 c 128,-1,7
 324 7 324 7 324 12 c 0,8,9
 324 15 324 15 325 17 c 0,10,11
 341 49 341 49 375.5 66.5 c 128,-1,12
 410 84 410 84 456 84 c 128,-1,13
 502 84 502 84 536.5 66.5 c 128,-1,14
 571 49 571 49 587 17 c 0,15,16
 588 15 588 15 588 12 c 0,17,18
 588 7 588 7 584.5 3.5 c 128,-1,19
 581 0 581 0 576 0 c 0,20,21
 572 0 572 0 568 3 c 0,22,23
 557 12 557 12 527 18 c 128,-1,0
 497 24 497 24 456 24 c 128,-1,1
EndSplineSet
Colour: ffff00
EndChar

StartChar: mouth_downcast
Encoding: 55 -1 55
Width: 912
Flags: MW
LayerCount: 2
Back
SplineSet
-96 60 m 5
 -96 60 -72 36 24 36 c 4
 120 36 144 60 144 60 c 5
 144 60 120 -36 24 -36 c 4
 -72 -36 -96 60 -96 60 c 5
EndSplineSet
Fore
SplineSet
456 72 m 129,-1,1
 409 72 409 72 378.5 65 c 129,-1,2
 348 58 348 58 336 48 c 1,3,4
 350 93 350 93 381.5 118.5 c 129,-1,5
 413 144 413 144 456 144 c 129,-1,6
 499 144 499 144 530.5 118.5 c 129,-1,7
 562 93 562 93 576 48 c 1,8,9
 564 58 564 58 533.5 65 c 129,-1,0
 503 72 503 72 456 72 c 129,-1,1
EndSplineSet
Colour: ffff00
EndChar

StartChar: cheek_nauseated
Encoding: 57 -1 57
Width: 912
Flags: MW
LayerCount: 2
Back
SplineSet
-79.5854 73.2253 m 1
 -79.5854 73.2253 -79.5864 73.2223 -79.5889 73.2223 c 0
 -79.5906 73.2223 -79.593 73.2238 -79.5963 73.229 c 0
 -89.1236 76.395 -96.006 85.3979 -96.006 95.9956 c 0
 -96.006 109.2441 -85.2499 120.0002 -72.0014 120.0002 c 0
 -69.3506 120.0002 -66.7995 119.5696 -64.4145 118.7746 c 0
 -63.7172 118.5421 -59.8607 117.2254 -54.0489 114.5353 c 0
 -49.399 112.383 -43.4939 109.351 -36.9558 105.2487 c 0
 -30.419 101.1471 -23.2394 95.972 -16.0989 89.4844 c 0
 -10.388 84.2959 -4.6991 78.2605 0.5447 71.2687 c 0
 6.4416 63.4061 11.7701 54.3241 15.8403 44.0128 c 0
 20.9299 31.1193 24 16.363 24 0 c 0
 24 -16.363 20.9299 -31.1193 15.8403 -44.0128 c 0
 11.7701 -54.3241 6.4416 -63.4061 0.5447 -71.2687 c 0
 -4.6991 -78.2605 -10.388 -84.2959 -16.0989 -89.4844 c 0
 -23.2394 -95.972 -30.419 -101.1471 -36.9558 -105.2487 c 0
 -43.4939 -109.351 -49.399 -112.383 -54.0489 -114.5353 c 0
 -59.8607 -117.2254 -63.7172 -118.5421 -64.4145 -118.7746 c 0
 -66.7995 -119.5696 -69.3506 -120.0002 -72.0014 -120.0002 c 0
 -85.2499 -120.0002 -96.006 -109.2441 -96.006 -95.9956 c 0
 -96.006 -85.3979 -89.1236 -76.395 -79.5963 -73.229 c 0
 -79.593 -73.2238 -79.5906 -73.2223 -79.5889 -73.2223 c 0
 -79.5864 -73.2223 -79.5854 -73.2253 -79.5854 -73.2253 c 1
 -79.7108 -73.2677 l 1
 -79.7108 -73.2677 l 1
 -79.7108 -73.2677 -77.6507 -72.5609 -74.17 -70.9498 c 0
 -71.0725 -69.5161 -66.9339 -67.3938 -62.4167 -64.5595 c 0
 -57.8983 -61.7244 -53.0111 -58.1806 -48.3578 -53.9528 c 0
 -44.6336 -50.5691 -41.0622 -46.7545 -37.878 -42.509 c 0
 -34.2935 -37.7296 -31.1939 -32.4138 -28.8262 -26.4154 c 0
 -25.8682 -18.9218 -24 -10.3036 -24 0 c 0
 -24 10.3036 -25.8682 18.9218 -28.8262 26.4154 c 0
 -31.1939 32.4138 -34.2935 37.7296 -37.878 42.509 c 0
 -41.0622 46.7545 -44.6336 50.5691 -48.3578 53.9528 c 0
 -53.0111 58.1806 -57.8983 61.7244 -62.4167 64.5595 c 0
 -66.9339 67.3938 -71.0725 69.5161 -74.17 70.9498 c 0
 -77.6507 72.5609 -79.7108 73.2677 -79.7108 73.2677 c 1
 -79.7108 73.2677 l 1
 -79.5854 73.2253 l 1
EndSplineSet
Fore
SplineSet
-96 -96 m 128,-1,1
 -96 -86 -96 -86 -89 -79 c 0,2,3
 -85 -75 -85 -75 -79 -73 c 0,4,5
 -51 -61 -51 -61 -37.5 -42 c 128,-1,6
 -24 -23 -24 -23 -24 0 c 128,-1,7
 -24 23 -24 23 -37.5 42 c 128,-1,8
 -51 61 -51 61 -79 73 c 0,9,10
 -85 75 -85 75 -89 79 c 0,11,12
 -96 86 -96 86 -96 96 c 128,-1,13
 -96 106 -96 106 -89 113 c 128,-1,14
 -82 120 -82 120 -72 120 c 0,15,16
 -65 120 -65 120 -55 115 c 0,17,18
 -16 96 -16 96 4 66.5 c 128,-1,19
 24 37 24 37 24 0 c 128,-1,20
 24 -37 24 -37 4 -66.5 c 128,-1,21
 -16 -96 -16 -96 -55 -115 c 0,22,23
 -65 -120 -65 -120 -72 -120 c 0,24,25
 -82 -120 -82 -120 -89 -113 c 128,-1,0
 -96 -106 -96 -106 -96 -96 c 128,-1,1
EndSplineSet
Colour: ff00ff
EndChar

StartChar: eye_nauseated
Encoding: 58 -1 58
Width: 912
Flags: MW
LayerCount: 2
Back
SplineSet
82.2626 100.7851 m 0
 80.9482 101.0625 -78.2792 105.2041 -85.497 99.3691 c 0
 -86.9179 98.2226 -87.788 96.4199 -87.7744 94.6259 c 0
 -87.7646 49.4902 -57.9921 10.4316 -16.9697 1.7685 c 0
 -11.4277 0.5976 -5.7148 0.0048 0 0 c 0
 48.374 0.0126 87.7285 42.4531 87.7324 94.6259 c 0
 87.7392 97.4453 85.0576 100.1943 82.2626 100.7851 c 0
85.4394 99.4062 m 0
 78.2226 105.2412 -81.0058 101.0996 -82.2978 100.8261 c 0
 -85.0683 100.2412 -87.75 97.4921 -87.7382 94.6494 c 0
 -87.7646 69.4521 -78.6894 45.7597 -62.2119 27.8994 c 0
 -45.6337 9.913 -23.5263 0.0107 0 0 c 0
 5.6904 -0.0009 11.4267 0.5976 16.9687 1.7675 c 0
 57.9687 10.4257 87.7412 49.4853 87.7685 94.6494 c 0
 87.7255 96.4794 86.8544 98.2832 85.4394 99.4062 c 0
EndSplineSet
Fore
SplineSet
0 0 m 128,-1,1
 -35 0 -35 0 -60.5 26 c 128,-1,2
 -86 52 -86 52 -88 94 c 0,3,4
 -88 101 -88 101 -78 101 c 0,5,6
 0 104 0 104 78 101 c 0,7,8
 88 101 88 101 88 94 c 0,9,10
 86 52 86 52 60.5 26 c 128,-1,0
 35 0 35 0 0 0 c 128,-1,1
EndSplineSet
Colour: ff00ff
EndChar

StartChar: mouth_nauseated
Encoding: 59 -1 59
Width: 912
Flags: MW
LayerCount: 2
Back
SplineSet
392.7363 93.0722 m 1
 356.3759 148.1523 l 2
 384.0722 166.4404 418.9199 176.5195 454.5117 176.5195 c 0
 490.2724 176.5195 523.9921 166.872 552 148.6318 c 1
 515.9521 93.3115 l 2
 481.7519 115.5839 426.6484 115.4882 392.7363 93.0722 c 1
356.4511 148.206 m 2
 356.3857 148.163 l 1
 392.705 93.0595 l 1
 408.5966 103.5332 430.3662 110.4843 454.5 110.4843 c 0
 478.5058 110.4843 500.1005 103.6533 515.9902 93.2958 c 1
 552.0292 148.583 l 1
 551.9628 148.6259 l 2
 524.6337 166.4404 490.916 176.4843 454.5 176.4843 c 0
 417.8369 176.4843 383.872 166.2792 356.4511 148.206 c 2
EndSplineSet
Fore
SplineSet
372 80 m 1,0,-1
 389 165 l 1,1,2
 456 189 456 189 523 164 c 1,3,-1
 538 79 l 1,4,5
 455 142 455 142 372 80 c 1,0,-1
EndSplineSet
Colour: ffff00
EndChar

StartChar: vomit_stream
Encoding: 60 -1 60
Width: 912
Flags: MW
LayerCount: 2
Back
SplineSet
48 312 m 0
 48 86.6679 230.6679 -96 456 -96 c 0
 681.332 -96 864 86.6679 864 312 c 0
 864 537.332 681.332 720 456 720 c 0
 230.6679 720 48 537.332 48 312 c 0
91.0556 -96 m 0
 91.0556 -122.5097 253.7382 -144 454.416 -144 c 0
 655.0937 -144 817.7763 -122.5097 817.7763 -96 c 0
 817.7763 -69.4902 655.0937 -48 454.416 -48 c 0
 253.7382 -48 91.0556 -69.4902 91.0556 -96 c 0
267.749 115.5556 m 2
 267.749 177.7773 361.082 240 454.416 240 c 0
 547.75 240 641.083 177.7773 641.083 115.5556 c 2
 641.083 -102.2236 l 1
 267.749 -102.2236 l 1
 267.749 115.5556 l 2
375.3603 162.5283 m 0
 375.3603 146.1582 388.6298 132.8876 405 132.8876 c 0
 421.3701 132.8876 434.6396 146.1582 434.6396 162.5283 c 0
 434.6396 178.8974 421.3701 192.1679 405 192.1679 c 0
 388.6298 192.1679 375.3603 178.8974 375.3603 162.5283 c 0
491.1123 104.6396 m 0
 491.1123 88.2705 504.3818 75 520.7519 75 c 0
 537.122 75 550.3916 88.2705 550.3916 104.6396 c 0
 550.3916 121.0097 537.122 134.2802 520.7519 134.2802 c 0
 504.3818 134.2802 491.1123 121.0097 491.1123 104.6396 c 0
503.9521 -12.3359 m 0
 503.9521 -28.706 517.2226 -41.9755 533.5917 -41.9755 c 0
 549.9619 -41.9755 563.2324 -28.706 563.2324 -12.3359 c 0
 563.2324 4.0341 549.9619 17.3037 533.5917 17.3037 c 0
 517.2226 17.3037 503.9521 4.0341 503.9521 -12.3359 c 0
344.208 -61.1523 m 0
 344.208 -84.5468 363.1728 -103.5117 386.5683 -103.5117 c 0
 409.9628 -103.5117 428.9277 -84.5468 428.9277 -61.1523 c 0
 428.9277 -37.7568 409.9628 -18.7919 386.5683 -18.7919 c 0
 363.1728 -18.7919 344.208 -37.7568 344.208 -61.1523 c 0
EndSplineSet
Fore
SplineSet
268 -102 m 1,0,-1
 268 113 l 17,1,2
 268 163 268 163 327 201.5 c 129,-1,3
 386 240 386 240 454 240 c 129,-1,4
 522 240 522 240 581.5 201.5 c 129,-1,5
 641 163 641 163 641 113 c 9,6,-1
 641 -102 l 1,7,-1
 268 -102 l 1,0,-1
EndSplineSet
Colour: ffff00
EndChar

StartChar: hotface_mouth
Encoding: 61 -1 61
Width: 912
Flags: MW
LayerCount: 2
Back
SplineSet
651 17.7363 m 0
 650.3281 17.7363 649.6318 17.8076 648.9843 17.9755 c 0
 581.1972 33.6025 515.7089 38.8105 458.5292 38.8105 c 0
 345.1699 38.8105 264.4687 18.3427 263.2558 18.0244 c 0
 262.5185 17.8378 261.7646 17.746 261.0117 17.746 c 0
 259.0468 17.746 257.0937 18.3759 255.4804 19.6083 c 0
 253.2958 21.3359 252 23.9521 252 26.7363 c 0
 252 103.0078 341.1123 191.664 456 191.664 c 0
 570.8876 191.664 660 103.0078 660 26.7363 c 0
 660 24 658.7519 21.3837 656.5917 19.6796 c 0
 654.9843 18.4316 653.0156 17.7363 651 17.7363 c 0
EndSplineSet
Fore
SplineSet
456 192 m 128,-1,1
 507 192 507 192 554.5 168.5 c 128,-1,2
 602 145 602 145 631 105.5 c 128,-1,3
 660 66 660 66 660 27 c 0,4,5
 660 23 660 23 657 20 c 128,-1,6
 654 17 654 17 649 18 c 0,7,8
 556.9228 39 556.9228 39 459 39 c 0,9,10
 357 39 357 39 263 18 c 0,11,12
 258 17 258 17 255 20 c 128,-1,13
 252 23 252 23 252 27 c 0,14,15
 252 66 252 66 281 105.5 c 128,-1,16
 310 145 310 145 357.5 168.5 c 128,-1,0
 405 192 405 192 456 192 c 128,-1,1
EndSplineSet
Colour: ffff00
EndChar

StartChar: mouth_spiraleyes
Encoding: 62 -1 62
Width: 912
Flags: MW
LayerCount: 2
Back
SplineSet
177.5878 122.0996 m 1028
177.5878 122.0996 m 1028
24 288 m 4
 24 49.413 217.413 -144 456 -144 c 4
 694.5869 -144 888 49.413 888 288 c 4
 888 526.5869 694.5869 720 456 720 c 4
 217.413 720 24 526.5869 24 288 c 4
573.2636 60.3603 m 4
 535.4638 60.3603 515.832 79.4882 500.0878 94.8476 c 4
 486.6484 107.9277 476.9277 117.3837 456.2402 117.3837 c 4
 435.5283 117.3837 425.8076 107.9042 412.3916 94.8476 c 4
 396.6484 79.4882 377.0156 60.3603 339.2402 60.3603 c 4
 301.4638 60.3603 281.8798 79.4882 266.1357 94.8476 c 4
 252.7675 107.9042 243.0957 117.3359 222.5761 117.3837 c 4
 207.9121 117.3359 199.2958 112.7519 190.8964 105.8642 c 4
 181.9199 98.4716 168.6718 99.8164 161.3515 108.7919 c 4
 154.0078 117.7675 155.3281 131.0156 164.2802 138.3359 c 4
 175.2236 147.288 193.0322 159.1435 222 159.3837 c 6
 223.1757 159.3837 l 6
 260.4238 159.0957 279.8398 140.1601 295.4638 124.8964 c 4
 308.8798 111.7919 318.5761 102.3603 339.2402 102.3603 c 4
 359.9521 102.3603 369.6718 111.8398 383.1123 124.8964 c 4
 398.8564 140.2558 418.4882 159.3837 456.2636 159.3837 c 4
 494.04 159.3837 513.6718 140.2802 529.416 124.8964 c 4
 542.8798 111.8164 552.5761 102.3603 573.288 102.3603 c 4
 594 102.3603 603.7197 111.8398 617.1601 124.8964 c 4
 632.9042 140.2802 652.5361 159.3837 690.3359 159.3837 c 4
 712.248 159.3837 730.416 153.0722 747.5283 139.5117 c 4
 756.5996 132.288 758.1123 119.0878 750.9355 110.0156 c 4
 743.7119 100.9199 730.5117 99.4082 721.4404 106.6083 c 4
 714.3837 112.2001 705.7441 117.3837 690.3603 117.3837 c 4
 669.6484 117.3837 659.9277 107.9042 646.4882 94.8476 c 4
 630.6718 79.4638 611.0644 60.3603 573.2636 60.3603 c 4
297.4804 267 m 4
 247.6796 267 207.1923 307.5117 207.1923 357.288 c 4
 207.1923 407.0878 247.7041 447.5996 297.4804 447.5996 c 4
 328.1757 447.5996 353.1357 422.6396 353.1357 391.9443 c 4
 353.1357 361.248 328.1757 336.288 297.4804 336.288 c 4
 285.8876 336.288 276.4804 345.6962 276.4804 357.288 c 4
 276.4804 368.8798 285.8876 378.288 297.4804 378.288 c 4
 304.9921 378.288 311.1357 384.4082 311.1357 391.9443 c 4
 311.1357 399.4804 305.0156 405.5996 297.4804 405.5996 c 4
 270.8642 405.5996 249.1923 383.9277 249.1923 357.288 c 4
 249.1923 330.6718 270.8642 309 297.4804 309 c 4
 343.2236 309 380.4238 346.2001 380.4238 391.9443 c 4
 380.4238 437.6884 343.2236 474.8876 297.4804 474.8876 c 4
 232.6318 474.8876 179.9042 422.1357 179.9042 357.288 c 4
 179.9042 345.6962 170.496 336.288 158.9042 336.288 c 4
 147.3115 336.288 137.9042 345.6962 137.9042 357.288 c 4
 137.9042 445.2958 209.496 516.8876 297.4804 516.8876 c 4
 366.3837 516.8876 422.4238 460.8476 422.4238 391.9443 c 4
 422.4238 323.04 366.4082 267 297.4804 267 c 4
614.496 267 m 4
 545.5917 267 489.5517 323.04 489.5517 391.9443 c 4
 489.5517 460.8476 545.5917 516.8876 614.496 516.8876 c 4
 664.2958 516.8876 704.8076 476.3759 704.8076 426.5996 c 4
 704.8076 376.8242 664.2958 336.288 614.496 336.288 c 4
 583.8242 336.288 558.8642 361.248 558.8642 391.9443 c 4
 558.8642 422.6396 583.8242 447.5996 614.496 447.5996 c 4
 626.0878 447.5996 635.496 438.1923 635.496 426.5996 c 4
 635.496 415.0078 626.1123 405.5996 614.496 405.5996 c 4
 606.9843 405.5996 600.8642 399.4804 600.8642 391.9443 c 4
 600.8642 384.4082 606.9843 378.288 614.496 378.288 c 4
 641.1123 378.288 662.8076 399.9599 662.8076 426.5996 c 4
 662.8076 453.2158 641.1357 474.8876 614.496 474.8876 c 4
 568.7763 474.8876 531.5517 437.6884 531.5517 391.9443 c 4
 531.5517 346.2236 568.7763 309 614.496 309 c 4
 679.3203 309 732.0722 361.7519 732.0722 426.5761 c 4
 732.0722 438.1679 741.4804 447.5761 753.0722 447.5761 c 4
 764.664 447.5761 774.0722 438.1679 774.0722 426.5761 c 4
 774.0957 338.5917 702.4804 267 614.496 267 c 4
EndSplineSet
Fore
SplineSet
456 117.5 m 128,-1,1
 432 118 432 118 412 94 c 0,2,3
 379 60 379 60 339 60 c 128,-1,4
 299 60 299 60 266 95 c 0,5,6
 246 117 246 117 225.5 117.5 c 128,-1,7
 205 118 205 118 191 106 c 0,8,9
 184 101 184 101 178 101 c 0,10,11
 169 101 169 101 163 107 c 128,-1,12
 157 113 157 113 157 122.5 c 128,-1,13
 157 132 157 132 164 138 c 0,14,15
 189 160 189 160 226 159.5 c 128,-1,16
 263 159 263 159 295 125 c 0,17,18
 317 102 317 102 340 102 c 128,-1,19
 363 102 363 102 383 125 c 0,20,21
 416 160 416 160 457 159.5 c 128,-1,22
 498 159 498 159 529 125 c 0,23,24
 551 102 551 102 574 102 c 128,-1,25
 597 102 597 102 617 125 c 0,26,27
 651 160 651 160 688 159.5 c 128,-1,28
 725 159 725 159 747 140 c 0,29,30
 756 132 756 132 755.5 123 c 128,-1,31
 755 114 755 114 749 108 c 128,-1,32
 743 102 743 102 735 102 c 128,-1,33
 727 102 727 102 721 107 c 0,34,35
 708 118 708 118 687.5 117.5 c 128,-1,36
 667 117 667 117 647 95 c 0,37,38
 613 60 613 60 573 60 c 128,-1,39
 533 60 533 60 500 95 c 0,40,0
 480 117 480 117 456 117.5 c 128,-1,1
EndSplineSet
Colour: ffff00
EndChar

StartChar: woozy_face_sub
Encoding: 63 -1 63
Width: 912
Flags: MW
LayerCount: 2
Back
SplineSet
24 288 m 4
 24 49.413 217.413 -144 456 -144 c 4
 694.5869 -144 888 49.413 888 288 c 4
 888 526.5869 694.5869 720 456 720 c 4
 217.413 720 24 526.5869 24 288 c 4
168.0244 456 m 4
 154.7763 456 144.0244 466.7519 144.0244 480 c 4
 144.0244 493.2236 154.7041 503.9521 167.9277 504 c 4
 171.6718 504.0478 253.5839 506.0644 316.8476 590.4003 c 4
 324.7919 600.9599 339.8164 603.1679 350.4482 595.2001 c 4
 361.0556 587.2558 363.1923 572.208 355.248 561.5996 c 4
 276.9355 457.2001 172.4404 456 168.0244 456 c 4
767.6884 398.5683 m 4
 770.7597 385.6796 762.7919 372.7197 749.9042 369.6484 c 4
 737.04 366.5761 724.1279 374.496 721.0078 387.3359 c 4
 720.0957 390.9599 699.1435 470.1835 602.4238 512.1601 c 4
 590.3037 517.4404 584.6884 531.5517 589.9677 543.7197 c 4
 595.248 555.8876 609.3837 561.456 621.5283 556.1757 c 4
 741.2636 504.2158 766.6562 402.8642 767.6884 398.5683 c 4
580.4638 11.3759 m 4
 556.6318 11.3759 533.6162 22.2958 513.5517 43.5117 c 4
 477.1943 82.0507 455.166 95.33 437.9082 95.33 c 4
 423.0859 95.33 411.7832 85.5341 397.9443 73.5361 c 4
 379.2001 57.2402 355.8476 36.9843 321.0244 36.9843 c 4
 264.5996 36.9843 225.7675 92.2324 224.1601 94.5839 c 4
 221.2832 98.7441 219.9033 103.496 219.9033 108.2001 c 4
 219.9033 115.8164 223.5205 123.3085 230.2558 127.9677 c 4
 234.3974 130.833 239.1425 132.208 243.8486 132.208 c 4
 251.4423 132.208 258.9335 128.6269 263.6162 121.9443 c 4
 270.8398 111.6484 295.2236 84.9843 321.0478 84.9843 c 4
 337.9443 84.9843 351.1923 96.4804 366.5283 109.7763 c 4
 387.7099 128.1826 409.6406 143.748 437.1103 143.748 c 4
 466.1621 143.748 501.4091 126.3378 548.5195 76.4638 c 4
 560.9912 63.2353 571.6054 59.3056 580.4912 59.3056 c 4
 585.6787 59.3056 590.2773 60.6455 594.3115 62.2558 c 4
 634.0253 78.1748 671.041 150.6318 671.041 185.5859 c 4
 671.041 185.6757 671.041 185.7666 671.04 185.8564 c 4
 671.04 185.9013 671.04 185.9453 671.04 185.9902 c 4
 671.04 199.1757 681.6933 209.9042 694.8964 209.9755 c 6
 695.04 209.9755 l 6
 708.2402 209.9755 718.9677 199.3203 719.04 186.0957 c 4
 719.041 185.9345 719.041 185.7724 719.041 185.6103 c 4
 719.041 135.0302 674.3447 42.5917 612.1435 17.6884 c 4
 601.5117 13.4882 590.9042 11.4003 580.4638 11.3759 c 4
379.5595 351 m 4
 365.5439 300.2636 340.1523 277.0078 303.9121 287.0156 c 4
 267.6962 297.0244 247.6796 332.832 261.6718 383.5683 c 4
 275.664 434.2558 313.872 464.2802 350.0878 454.2724 c 4
 386.3515 444.2636 393.5761 401.7119 379.5595 351 c 4
653.5439 369.1201 m 4
 664.8964 317.7363 637.3437 253.0078 600.6484 244.8964 c 4
 563.9521 236.7841 521.9277 286.1523 510.5761 337.5361 c 4
 499.2236 388.8964 520.6318 432.8398 557.3281 440.9521 c 4
 594.0244 449.0644 642.1923 420.4804 653.5439 369.1201 c 4
EndSplineSet
Fore
SplineSet
511 336 m 0,0,1
 502 374 502 374 515.5 404.5 c 128,-1,2
 529 435 529 435 558.5 441 c 128,-1,3
 588 447 588 447 617 425.5 c 128,-1,4
 646 404 646 404 654 367 c 0,5,6
 661 324 661 324 643.5 287.5 c 128,-1,7
 626 251 626 251 601 245 c 128,-1,8
 576 239 576 239 548.5 266.5 c 128,-1,9
 521 294 521 294 511 336 c 0,0,1
262 384 m 128,-1,11
 272 420 272 420 297 441 c 128,-1,12
 322 462 322 462 351 454 c 0,13,14
 375 447 375 447 383 420.5 c 128,-1,15
 391 394 391 394 380 353 c 0,16,17
 358 272 358 272 304 287 c 0,18,19
 274 296 274 296 263 322 c 128,-1,10
 252 348 252 348 262 384 c 128,-1,11
220 108 m 0,20,21
 220 118 220 118 227 125 c 128,-1,22
 234 132 234 132 244 132 c 0,23,24
 255 132 255 132 262 124 c 0,25,26
 275 106 275 106 291 95.5 c 128,-1,27
 307 85 307 85 321 85 c 0,28,29
 341 85 341 85 372.5 114.5 c 128,-1,30
 404 144 404 144 437 144 c 0,31,32
 485 144 485 144 549 76 c 0,33,34
 565 59 565 59 580 59 c 0,35,36
 609 59 609 59 640 105.5 c 128,-1,37
 671 152 671 152 671 186 c 0,38,39
 671 196 671 196 678 203 c 128,-1,40
 685 210 685 210 695 210 c 128,-1,41
 705 210 705 210 712 203 c 128,-1,42
 719 196 719 196 719 186 c 0,43,44
 719 136 719 136 676.5 73.5 c 128,-1,45
 634 11 634 11 576 11 c 0,46,47
 544 11 544 11 503.5 53.5 c 128,-1,48
 463 96 463 96 436 96 c 0,49,50
 422 96 422 96 389.5 66.5 c 128,-1,51
 357 37 357 37 321 37 c 0,52,53
 297 37 297 37 272 51 c 128,-1,54
 247 65 247 65 226 92 c 0,55,56
 220 99 220 99 220 108 c 0,20,21
EndSplineSet
Colour: ffff00
EndChar

StartChar: eye_x
Encoding: 64 -1 64
Width: 912
Flags: MW
LayerCount: 2
Back
SplineSet
-76.9667 -42.9677 m 2
 -81.3115 -47.3115 -84 -53.3115 -84 -59.9345 c 0
 -84 -73.1806 -73.246 -83.9345 -60 -83.9345 c 0
 -53.3769 -83.9345 -47.3769 -81.246 -43.0332 -76.9013 c 2
 0 -33.8691 l 1
 43.0332 -76.9013 l 2
 47.3769 -81.246 53.3769 -83.9345 60 -83.9345 c 0
 73.246 -83.9345 84 -73.1806 84 -59.9345 c 0
 84 -53.3115 81.3115 -47.3115 76.9667 -42.9677 c 2
 33.9345 0.0654 l 1
 76.9667 43.0986 l 2
 81.3115 47.4423 84 53.4423 84 60.0654 c 0
 84 73.3115 73.246 84.0654 60 84.0654 c 0
 53.3769 84.0654 47.3769 81.3769 43.0332 77.0322 c 2
 0 34 l 1
 -43.0332 77.0322 l 2
 -47.3769 81.3769 -53.3769 84.0654 -60 84.0654 c 0
 -73.246 84.0654 -84 73.3115 -84 60.0654 c 0
 -84 53.4423 -81.3115 47.4423 -76.9667 43.0986 c 2
 -33.9345 0.0654 l 1
 -76.9667 -42.9677 l 2
EndSplineSet
Fore
SplineSet
0 -34 m 1,0,-1
 -43 -77 l 2,1,2
 -50 -84 -50 -84 -60 -84 c 128,-1,3
 -70 -84 -70 -84 -77 -77 c 128,-1,4
 -84 -70 -84 -70 -84 -60 c 128,-1,5
 -84 -50 -84 -50 -77 -43 c 2,6,-1
 -34 0 l 1,7,-1
 -77 43 l 2,8,9
 -84 50 -84 50 -84 60 c 128,-1,10
 -84 70 -84 70 -77 77 c 128,-1,11
 -70 84 -70 84 -60 84 c 128,-1,12
 -50 84 -50 84 -43 77 c 2,13,-1
 0 34 l 1,14,-1
 43 77 l 2,15,16
 50 84 50 84 60 84 c 128,-1,17
 70 84 70 84 77 77 c 128,-1,18
 84 70 84 70 84 60 c 128,-1,19
 84 50 84 50 77 43 c 2,20,-1
 34 0 l 1,21,-1
 77 -43 l 2,22,23
 84 -50 84 -50 84 -60 c 128,-1,24
 84 -70 84 -70 77 -77 c 128,-1,25
 70 -84 70 -84 60 -84 c 128,-1,26
 50 -84 50 -84 43 -77 c 2,27,-1
 0 -34 l 1,0,-1
EndSplineSet
Colour: ff00ff
EndChar

StartChar: eye_spiral
Encoding: 65 -1 65
Width: 912
Flags: MW
LayerCount: 2
Fore
SplineSet
14 0 m 128,-1,1
 14 6 14 6 10 10 c 128,-1,2
 6 14 6 14 0 14 c 0,3,4
 -19 14 -19 14 -33.5 -1 c 128,-1,5
 -48 -16 -48 -16 -48 -35 c 128,-1,6
 -48 -54 -48 -54 -33.5 -68.5 c 128,-1,7
 -19 -83 -19 -83 0 -83 c 0,8,9
 34 -83 34 -83 58.5 -59 c 128,-1,10
 83 -35 83 -35 83 0 c 128,-1,11
 83 35 83 35 58.5 59 c 128,-1,12
 34 83 34 83 0 83 c 0,13,14
 -47 83 -47 83 -82 49 c 128,-1,15
 -117 15 -117 15 -117 -35 c 0,16,17
 -117 -43 -117 -43 -123.5 -49.5 c 128,-1,18
 -130 -56 -130 -56 -138 -56 c 128,-1,19
 -146 -56 -146 -56 -152.5 -49.5 c 128,-1,20
 -159 -43 -159 -43 -159 -35 c 0,21,22
 -159 32 -159 32 -111.5 78.5 c 128,-1,23
 -64 125 -64 125 0 125 c 0,24,25
 52 125 52 125 88.5 88.5 c 128,-1,26
 125 52 125 52 125 0 c 128,-1,27
 125 -52 125 -52 88.5 -88.5 c 128,-1,28
 52 -125 52 -125 0 -125 c 0,29,30
 -37 -125 -37 -125 -63.5 -98 c 128,-1,31
 -90 -71 -90 -71 -90 -34.5 c 128,-1,32
 -90 2 -90 2 -63 29 c 128,-1,33
 -36 56 -36 56 0 56 c 0,34,35
 23 56 23 56 39.5 39.5 c 128,-1,36
 56 23 56 23 56 0 c 128,-1,37
 56 -23 56 -23 39.5 -39.5 c 128,-1,38
 23 -56 23 -56 0 -56 c 0,39,40
 -8 -56 -8 -56 -14.5 -49.5 c 128,-1,41
 -21 -43 -21 -43 -21 -34.5 c 128,-1,42
 -21 -26 -21 -26 -14.5 -20 c 128,-1,43
 -8 -14 -8 -14 0 -14 c 0,44,45
 6 -14 6 -14 10 -10 c 128,-1,0
 14 -6 14 -6 14 0 c 128,-1,1
EndSplineSet
Colour: ff00ff
EndChar

StartChar: eyebrow_10
Encoding: 66 -1 66
Width: 912
Flags: MW
LayerCount: 2
Back
SplineSet
16.9672 -16.9672 m 1
 16.9642 -16.9642 l 1
 16.9642 -16.9642 16.965 -16.965 16.9672 -16.9672 c 1
 12.6171 -21.3039 6.6183 -23.9919 -0.0033 -23.9919 c 0
 -13.2466 -23.9919 -23.9986 -13.24 -23.9986 0.0033 c 0
 -23.9986 6.625 -21.3106 12.6238 -16.9672 16.9672 c 0
 -15.7979 18.1365 -1.6097 32.2276 23.0444 44.9524 c 0
 42.7383 55.1169 69.3934 64.5 101.25 64.5 c 0
 125.1449 64.5 151.4709 59.0996 178.7098 45.4802 c 2
 178.7583 45.4559 l 2
 186.6354 41.5174 192.0496 33.3729 192.0496 23.9738 c 0
 192.0496 10.7267 181.2946 -0.0282 168.0475 -0.0282 c 0
 164.1995 -0.0282 160.5617 0.8792 157.2901 2.5197 c 0
 136.529 12.9003 117.855 16.5 101.25 16.5 c 0
 79.1065 16.5 59.7616 9.883 45.011 2.2697 c 0
 36.8411 -1.9469 30.1498 -6.4293 25.3482 -10.0265 c 0
 20.0137 -14.0229 17.0187 -16.9187 16.8831 -17.0508 c 0
 16.8696 -17.064 16.864 -17.0693 16.8639 -17.0693 c 0
 16.8639 -17.0693 l 0
 16.8639 -17.0689 16.9672 -16.9672 16.9672 -16.9672 c 1
EndSplineSet
Fore
SplineSet
-24 0 m 128,-1,1
 -24 10 -24 10 -17 17 c 0,2,3
 24 54 24 54 75 62.5 c 128,-1,4
 126 71 126 71 178 46 c 0,5,6
 192 38 192 38 192 24 c 0,7,8
 192 14 192 14 185 7 c 128,-1,9
 178 0 178 0 168 0 c 0,10,11
 161 0 161 0 156 3 c 0,12,13
 120 21 120 21 83.5 15 c 128,-1,14
 47 9 47 9 17 -17 c 0,15,16
 10 -24 10 -24 0 -24 c 128,-1,17
 -10 -24 -10 -24 -17 -17 c 128,-1,0
 -24 -10 -24 -10 -24 0 c 128,-1,1
EndSplineSet
Colour: ff00ff
EndChar

StartChar: mouth_diagonal
Encoding: 68 -1 68
Width: 912
Flags: MW
LayerCount: 2
Back
SplineSet
288 72 m 1
 624 144 l 1025
293.0449 48.5322 m 1
 293.0449 48.5322 l 0
 293.0449 48.5312 293.0439 48.5253 293.0205 48.5253 c 0
 293.0185 48.5253 293.0166 48.5253 293.0136 48.5253 c 0
 291.4199 48.1757 289.7314 47.9921 288.0009 47.9921 c 0
 274.7529 47.9921 263.997 58.748 263.997 71.996 c 0
 263.997 83.5136 272.1259 93.1474 282.955 95.4677 c 1
 618.955 167.4677 l 1
 618.9863 167.4746 l 2
 620.6132 167.8232 622.3017 168.0068 624.0322 168.0068 c 0
 637.2802 168.0068 648.0361 157.2509 648.0361 144.0029 c 0
 648.0361 132.4853 639.9072 122.8515 629.0449 120.5322 c 0
 293.0449 48.5322 l 1
EndSplineSet
Fore
SplineSet
264 72 m 0,0,1
 264 81 264 81 271 89 c 0,2,3
 275 93 275 93 281 95 c 2,4,-1
 617 167 l 2,5,6
 621 168 621 168 624 168 c 0,7,8
 634 168 634 168 641 161.5 c 0,9,10
 648 154 648 154 648 144 c 128,-1,11
 648 134 648 134 641 127 c 0,12,13
 636 122 636 122 627 120 c 2,14,-1
 295 49 l 2,15,16
 291 48 291 48 288 48 c 0,17,18
 278 48 278 48 271 55 c 128,-1,19
 264 62 264 62 264 72 c 0,0,1
EndSplineSet
Colour: ffff00
EndChar

StartChar: tears_1
Encoding: 69 -1 69
Width: 912
Flags: MW
LayerCount: 2
Back
SplineSet
108 48 m 0
 108 45.4804 83.6396 0 0 0 c 0
 -83.6396 0 -108 45.4804 -108 48 c 0
 -117.0498 62.0507 -120.9687 70.8027 -120.9687 75.7548 c 0
 -120.9687 79.5576 -118.6582 81.1201 -114.5869 81.1201 c 0
 -95.8398 81.1201 -39.7597 48 0 48 c 0
 39.7597 48 95.8398 81.1201 114.5869 81.1201 c 0
 118.6582 81.1201 120.9687 79.5576 120.9687 75.7548 c 0
 120.9687 70.8027 117.0498 62.0507 108 48 c 0
108 48 m 0
 108 45.4804 83.6396 0 0 0 c 0
 -83.6396 0 -108 45.4804 -108 48 c 0
 -156 122.5195 -59.6396 48 0 48 c 0
 59.6396 48 156 122.5195 108 48 c 0
EndSplineSet
Fore
SplineSet
-121 76 m 0,0,1
 -121 82 -121 82 -112 81 c 128,-1,2
 -103 80 -103 80 -63.5 64 c 128,-1,3
 -24 48 -24 48 0 48 c 128,-1,4
 24 48 24 48 63.5 64 c 128,-1,5
 103 80 103 80 112 81 c 128,-1,6
 121 82 121 82 121 76 c 0,7,8
 121 68 121 68 108 48 c 0,9,10
 107 44 107 44 100 36 c 0,11,12
 85 19 85 19 59 9.5 c 128,-1,13
 33 0 33 0 0 0 c 128,-1,14
 -33 0 -33 0 -59 9.5 c 128,-1,15
 -85 19 -85 19 -100 36 c 0,16,17
 -107 44 -107 44 -108 48 c 0,18,19
 -121 68 -121 68 -121 76 c 0,0,1
EndSplineSet
Colour: ff00ff
EndChar

StartChar: tired_mouth
Encoding: 70 -1 70
Width: 912
Flags: MW
LayerCount: 2
Back
SplineSet
691.3515 -11.0654 m 0
 579.6162 35.9814 479.4951 36 456 36 c 0
 437.8359 36 417.5 34.1904 396.6669 31.2402 c 0
 370.6191 27.5517 343.7861 22.0947 319.1669 16.3017 c 0
 263.5937 3.2255 219.7929 -11.3876 219.7929 -11.3876 c 2
 218.9482 -11.6689 218.0595 -11.8593 217.1367 -11.9482 c 0
 216.749 -11.9853 216.3642 -12.0029 215.9824 -12.0029 c 0
 209.873 -12.0029 204.6425 -7.3466 204.0478 -1.1357 c 0
 204.0107 -0.747 203.9921 -0.3613 203.9921 0.0214 c 0
 203.9921 0.5488 204.0273 1.0693 204.0947 1.581 c 1
 204.0673 1.3769 204.0576 1.2988 204.0576 1.2939 c 1
 204.0576 1.2939 204.1367 1.8642 204.1386 1.8642 c 0
 204.1386 1.8632 l 0
 204.1386 1.8574 204.1289 1.7773 204.1025 1.5742 c 1
 204.1337 1.8164 204.4873 4.4511 205.3945 8.9599 c 0
 207.208 17.9765 211.2304 34.4902 219.3847 54.331 c 0
 230.2451 80.7607 248.4921 113.2441 278.8662 141.3105 c 0
 299.9541 160.7978 326.8691 178.0644 360.7783 189.4814 c 0
 387.9003 198.6132 419.4433 204 456 204 c 0
 492.5566 204 524.0996 198.6132 551.2216 189.4814 c 0
 585.1308 178.0644 612.0458 160.7978 633.1337 141.3105 c 0
 663.5078 113.2441 681.7548 80.7607 692.6152 54.331 c 0
 704.8437 24.5751 707.8027 2.2958 707.8974 1.5742 c 0
 707.9648 1.0634 707.999 0.5439 707.999 0.0185 c 0
 707.999 -0.5146 707.9638 -1.0537 707.8906 -1.5966 c 0
 707.08 -7.624 701.9238 -12.0087 696.0107 -12.0087 c 0
 695.4794 -12.0087 694.9423 -11.9726 694.4023 -11.9003 c 0
 693.3251 -11.7558 692.3017 -11.4716 691.3515 -11.0654 c 0
696 0 m 1
 696 0 670.7998 192 456 192 c 0
 241.2001 192 216 0 216 0 c 1
 216 0 360 48 456 48 c 0
 480 48 582 48 696 0 c 1
EndSplineSet
Fore
SplineSet
456 36 m 0,0,1
 412 36 412 36 347.5 22.5 c 128,-1,2
 283 9 283 9 221 -11 c 0,3,4
 218 -12 218 -12 216 -12 c 0,5,6
 211 -12 211 -12 207.5 -8.5 c 128,-1,7
 204 -5 204 -5 204 0 c 0,8,9
 204 2 204 2 205 7 c 0,10,11
 224 96 224 96 289 150 c 128,-1,12
 354 204 354 204 456 204 c 128,-1,13
 558 204 558 204 623 150 c 128,-1,14
 688 96 688 96 707 7 c 0,15,16
 708 2 708 2 708 0 c 0,17,18
 708 -5 708 -5 704.5 -8.5 c 128,-1,19
 701 -12 701 -12 696 -12 c 0,20,21
 694 -12 694 -12 691 -11 c 0,22,23
 636 12 636 12 576.5 24 c 128,-1,24
 517 36 517 36 456 36 c 0,0,1
EndSplineSet
Colour: ffff00
EndChar

StartChar: eyebrow_11
Encoding: 71 -1 71
Width: 912
Flags: MW
LayerCount: 2
Back
SplineSet
13.2885 -19.9835 m 17
 9.4346 -22.5491 4.8648 -24.0283 -0.0476 -24.0283 c 1
 -13.2927 -24.0283 -24.0461 -13.275 -24.0461 -0.0299 c 1
 -24.0461 8.3026 -19.7901 15.6491 -13.3353 19.9523 c 9
 -13.2885 19.9835 l 17
 -11.9656 20.8654 -0.3307 28.4729 19.5102 35.1797 c 1
 35.3758 40.5427 56.5427 45.3333 81.7777 45.3333 c 1
 94.3929 45.3333 107.9548 44.1292 122.242 41.2233 c 1
 140.101 37.591 159.0807 31.2947 178.7098 21.4802 c 13
 178.7583 21.4559 l 17
 186.6354 17.5174 192.0496 9.3729 192.0496 -0.0261 c 1
 192.0496 -13.2732 181.2946 -24.0282 168.0475 -24.0282 c 1
 164.1995 -24.0282 160.5617 -23.1207 157.2901 -21.4802 c 1
 141.3637 -13.517 126.4339 -8.6198 112.6391 -5.8141 c 1
 101.6034 -3.5695 91.286 -2.6666 81.7777 -2.6666 c 1
 62.7658 -2.6666 46.7092 -6.304 34.8716 -10.3055 c 1
 28.3006 -12.5266 23.0442 -14.853 19.3481 -16.682 c 1
 15.1731 -18.748 13.1494 -20.0753 13.1494 -20.0753 c 1
 13.2885 -19.9835 l 1
 13.2885 -19.9835 l 17
0 0 m 0
 0 0 72 48 168 0 c 1024
EndSplineSet
Fore
SplineSet
-24 -0 m 128,-1,1
 -24 10 -24 10 -17 17 c 0,2,3
 -15 19 -15 19 -10 22 c 0,4,5
 32 45 32 45 80 45.5 c 128,-1,6
 128 46 128 46 178 22 c 0,7,8
 182 20 182 20 185 17 c 0,9,10
 192 10 192 10 192 0 c 128,-1,11
 192 -10 192 -10 185 -17 c 128,-1,12
 178 -24 178 -24 168 -24 c 0,13,14
 161 -24 161 -24 154 -20 c 0,15,16
 116 -2 116 -2 80.5 -2.5 c 128,-1,17
 45 -3 45 -3 13 -20 c 0,18,19
 7 -24 7 -24 -0 -24 c 0,20,21
 -10 -24 -10 -24 -17 -17 c 128,-1,0
 -24 -10 -24 -10 -24 -0 c 128,-1,1
EndSplineSet
Colour: ff00ff
EndChar

StartChar: steam2
Encoding: 72 -1 72
Width: 912
Flags: MW
LayerCount: 2
Back
SplineSet
-140.367 576.6945 m 6
 -20.367 768.6945 l 6
 -17.7728 772.8451 -13.8913 776.2436 -9.0091 778.2153 c 4
 -6.0659 779.4039 -3.0242 779.9668 -0.032 779.9668 c 4
 9.4676 779.9668 18.4691 774.2928 22.2411 764.9527 c 4
 23.4282 762.0131 23.9905 758.9751 23.9905 755.9862 c 4
 23.9905 754.0131 23.7455 752.0614 23.2735 750.1735 c 6
 -24.7146 558.1685 l 6
 -27.3727 547.5362 -37.0026 540.0224 -47.9712 540.0224 c 6
 -120 540 l 6
 -122.188 540 -124.4122 540.3015 -126.6195 540.934 c 4
 -137.1495 543.9516 -144.0172 553.5636 -144.0172 563.9951 c 4
 -144.0172 566.1784 -143.7163 568.3977 -143.0853 570.5998 c 4
 -142.4532 572.8054 -141.5312 574.85 -140.367 576.6945 c 6
EndSplineSet
Fore
SplineSet
-144 -192 m 0,0,1
 -144 -184 -144 -184 -139 -177 c 2,2,-1
 -22 10 l 2,3,4
 -19 15 -19 15 -17 17 c 0,5,6
 -10 24 -10 24 0 24 c 128,-1,7
 10 24 10 24 17 17 c 128,-1,8
 24 10 24 10 24 0 c 0,9,10
 24 -3 24 -3 23 -7 c 2,11,-1
 -25 -199 l 2,12,13
 -27 -205 -27 -205 -31 -209 c 0,14,15
 -38 -216 -38 -216 -48 -216 c 2,16,-1
 -120 -216 l 2,17,18
 -130 -216 -130 -216 -137 -209 c 128,-1,19
 -144 -202 -144 -202 -144 -192 c 0,0,1
EndSplineSet
Colour: ff00ff
EndChar

StartChar: steam1
Encoding: 73 -1 73
Width: 912
Flags: MW
LayerCount: 2
Back
SplineSet
-312 468 m 0
 -312 428.2353 -279.7646 396 -240 396 c 0
 -200.2353 396 -168 428.2353 -168 468 c 0
 -168 507.7646 -200.2353 540 -240 540 c 0
 -279.7646 540 -312 507.7646 -312 468 c 0
-264 540 m 0
 -264 500.2353 -231.7646 468 -192 468 c 0
 -152.2353 468 -120 500.2353 -120 540 c 0
 -120 579.7646 -152.2353 612 -192 612 c 0
 -231.7646 612 -264 579.7646 -264 540 c 0
-192 492 m 0
 -192 438.9804 -149.0195 396 -96 396 c 0
 -42.9804 396 0 438.9804 0 492 c 0
 0 545.0195 -42.9804 588 -96 588 c 0
 -149.0195 588 -192 545.0195 -192 492 c 0
EndSplineSet
Fore
Refer: 4 -1 N 0.25 0 0 0.25 -96 -264 0
Refer: 4 -1 N 0.1875 0 0 0.1875 -192 -216 0
Refer: 4 -1 S 0.1875 0 0 0.1875 -240 -288 0
Colour: ff00ff
EndChar

StartChar: steam_mouth
Encoding: 74 -1 74
Width: 912
Flags: MW
LayerCount: 2
Back
SplineSet
244.789 110.3798 m 0
 241.7597 106.331 239.9775 101.3525 239.9775 95.9619 c 0
 239.9775 82.7167 250.7304 71.9648 263.9746 71.9648 c 0
 271.8281 71.9648 278.8046 75.7451 283.1835 81.583 c 2
 283.2109 81.6201 l 1
 283.2109 81.6201 283.1357 81.5195 283.1777 81.5751 c 0
 283.289 81.7207 285.0175 83.9785 288.2568 87.663 c 0
 291.1728 90.9785 295.3115 95.4492 300.5917 100.58 c 0
 310.0966 109.8164 323.2929 121.1767 339.6494 131.8583 c 0
 369.1552 151.1269 408.5458 168 456 168 c 0
 503.4541 168 542.8447 151.1269 572.3505 131.8583 c 0
 588.707 121.1767 601.9033 109.8164 611.4082 100.58 c 0
 616.6884 95.4492 620.8271 90.9785 623.7431 87.663 c 0
 626.9824 83.9785 628.7109 81.7207 628.8222 81.5751 c 0
 628.8642 81.5195 628.789 81.6201 628.789 81.6201 c 1
 628.8164 81.583 l 2
 633.1953 75.7451 640.1718 71.9648 648.0253 71.9648 c 0
 661.2695 71.9648 672.0224 82.7167 672.0224 95.9619 c 0
 672.0224 101.3525 670.2402 106.331 667.2109 110.3798 c 0
 666.6162 111.1728 658.9931 121.2558 644.8505 135 c 0
 633.5371 145.9941 618.039 159.3466 598.5468 172.0761 c 0
 563.5253 194.9472 515.2128 216 456 216 c 0
 396.7871 216 348.4746 194.9472 313.4531 172.0761 c 0
 293.9609 159.3466 278.4628 145.9941 267.1494 135 c 0
 253.0068 121.2558 245.3837 111.1728 244.789 110.3798 c 0
EndSplineSet
Fore
SplineSet
456 168 m 128,-1,1
 407 168 407 168 362.5 145 c 128,-1,2
 318 122 318 122 285 84 c 0,3,4
 277 72 277 72 264 72 c 0,5,6
 254 72 254 72 247 79 c 128,-1,7
 240 86 240 86 240 96 c 0,8,9
 240 105 240 105 246 112 c 0,10,11
 286 160 286 160 341 188 c 128,-1,12
 396 216 396 216 456 216 c 128,-1,13
 516 216 516 216 571 188 c 128,-1,14
 626 160 626 160 666 112 c 0,15,16
 672 105 672 105 672 96 c 0,17,18
 672 86 672 86 665 79 c 128,-1,19
 658 72 658 72 648 72 c 0,20,21
 635 72 635 72 627 84 c 0,22,23
 594 122 594 122 549.5 145 c 128,-1,0
 505 168 505 168 456 168 c 128,-1,1
EndSplineSet
Colour: ffff00
EndChar

StartChar: eyebrow_steam
Encoding: 75 -1 75
Width: 912
Flags: MW
LayerCount: 2
Back
SplineSet
23.6728 3.9677 m 6
 23.6728 3.9677 23.6787 3.9687 23.6806 3.9238 c 4
 23.8945 2.6777 24.0058 1.3525 24.0058 0.0009 c 4
 24.0058 -13.247 13.2509 -24.0029 0.0029 -24.0029 c 4
 -11.8925 -24.0029 -21.7792 -15.33 -23.6728 -3.9677 c 4
 -23.6728 -3.9677 -23.6513 -4.0927 -23.6601 -4.0458 c 4
 -23.665 -4.0126 -24.0068 -2.0634 -24.8281 1.3085 c 4
 -25.5673 4.3427 -26.6953 8.5283 -28.3105 13.5029 c 4
 -31.2177 22.4599 -35.7099 33.9619 -42.2578 45.9296 c 4
 -54.1035 67.582 -72.2578 90.164 -99.8017 104.5341 c 4
 -109.6855 109.6914 -120.875 113.8632 -133.7343 116.582 c 4
 -144.0224 118.7578 -155.3886 120 -168 120 c 4
 -181.246 120 -192 130.7539 -192 144 c 4
 -192 157.246 -181.246 168 -168 168 c 4
 -152.1669 168 -137.4296 166.4335 -123.7705 163.5449 c 4
 -106.6962 159.9345 -91.3203 154.2539 -77.6474 147.1201 c 4
 -39.2304 127.0761 -15.0029 96.125 -0.1181 68.9169 c 4
 8.1845 53.7412 13.7128 39.541 17.3564 28.3183 c 4
 21.9101 14.29 23.5195 4.8857 23.6728 3.9677 c 6
0 0 m 4
 0 0 -24 144 -168 144 c 1028
EndSplineSet
Fore
SplineSet
0 -24 m 128,-1,1
 -10 -24 -10 -24 -17 -17 c 0,2,3
 -23 -11 -23 -11 -24 -2 c 0,4,5
 -38 55 -38 55 -75 87.5 c 128,-1,6
 -112 120 -112 120 -168 120 c 0,7,8
 -178 120 -178 120 -185 127 c 128,-1,9
 -192 134 -192 134 -192 144 c 128,-1,10
 -192 154 -192 154 -185 161 c 128,-1,11
 -178 168 -178 168 -168 168 c 0,12,13
 -95 168 -95 168 -45 125 c 128,-1,14
 5 82 5 82 23 7 c 0,15,16
 24 3 24 3 24 0 c 0,17,18
 24 -10 24 -10 17 -17 c 128,-1,0
 10 -24 10 -24 0 -24 c 128,-1,1
EndSplineSet
Colour: ff00ff
EndChar

StartChar: zipper_mouth
Encoding: 76 -1 76
Width: 912
Flags: MW
LayerCount: 2
Fore
SplineSet
624 72 m 1,0,-1
 264 72 l 2,1,2
 242 72 242 72 240 96 c 2,3,-1
 240 120 l 2,4,5
 242 144 242 144 264 144 c 2,6,-1
 624 144 l 1,7,-1
 624 72 l 1,0,-1
EndSplineSet
Colour: ffff00
EndChar

StartChar: bg_horn1
Encoding: 77 -1 77
Width: 912
Flags: MW
LayerCount: 2
Back
SplineSet
105.9345 705.9345 m 1
 105.8583 706.0097 l 1
 105.8583 706.0097 105.8623 706.0058 105.873 705.996 c 0
 105.9755 705.8945 108.207 703.6894 112.1972 700.0732 c 0
 115.7871 696.8193 120.8027 692.4228 126.9609 687.3886 c 0
 138.0449 678.3271 152.8476 667.2109 169.5332 656.9423 c 0
 178.7998 651.2402 188.6386 645.8027 198.6689 641.0869 c 0
 206.6933 637.3144 214.8378 634.0068 222.8818 631.3535 c 0
 230.9277 628.6992 238.8662 626.7031 246.4755 625.4755 c 0
 252.5644 624.4921 258.4365 624 264 624 c 0
 267.6474 624 271.3515 623.581 275.0537 622.708 c 0
 297.1445 617.498 312.0537 597.7753 312.0537 576.0302 c 0
 312.0537 572.3916 311.6357 568.6962 310.7646 565.0029 c 0
 309.8925 561.3037 308.6113 557.8056 306.9814 554.5458 c 2
 258.9609 458.58 l 2
 250.8486 442.3574 234.1367 432.0175 216.0273 432.0175 c 1
 216.2363 432.0175 216.3134 432.0166 216.3134 432.0156 c 0
 216.3134 432.0117 215.7148 432.0048 215.7148 432.0019 c 0
 215.7148 432.0009 215.791 432 216 432 c 1
 203.6542 432 191.7949 433.0869 180.4804 435.2138 c 0
 166.3378 437.872 153.0615 442.164 140.8603 447.8232 c 0
 125.6015 454.8994 112.1103 464.08 100.5341 474.4267 c 0
 91.2695 482.707 83.2236 491.7109 76.2441 501.0185 c 0
 65.0703 515.9169 56.5878 531.582 49.9521 546.9638 c 0
 41.6542 566.1982 36.2001 585.0859 32.4414 602.1259 c 0
 28.6826 619.1669 26.6347 634.3896 25.4814 646.2685 c 0
 24.039 661.1123 24 670.7392 24 672 c 0
 24 678.1162 25.1767 684.331 27.6611 690.3291 c 0
 35.3134 708.8027 53.2021 719.9628 72.039 719.9628 c 0
 78.1552 719.9628 84.372 718.7861 90.371 716.3017 c 0
 96.3691 713.8173 101.5966 710.2539 105.9345 705.9345 c 1
EndSplineSet
Fore
SplineSet
24 672 m 0,0,1
 24 692 24 692 38 706 c 128,-1,2
 52 720 52 720 72 720 c 0,3,4
 81 720 81 720 90 716 c 128,-1,5
 99 712 99 712 106 706 c 0,6,7
 144 670 144 670 187 647 c 128,-1,8
 230 624 230 624 264 624 c 1,9,-1
 216 432 l 1,10,11
 150 432 150 432 106 470 c 128,-1,12
 62 508 62 508 43 565 c 0,13,14
 24 623 24 623 24 672 c 0,0,1
EndSplineSet
Colour: ffff00
EndChar

StartChar: Skull.0
Encoding: 78 -1 78
Width: 912
Flags: MW
LayerCount: 2
Back
SplineSet
216 24 m 2
 216 -72 l 2
 216 -144 216 -144 288 -144 c 1
 288 -144 l 1
 360 -144 360 -144 360 -72 c 2
 360 24 l 2
 360 96 360 96 288 96 c 1
 288 96 l 1
 216 96 216 96 216 24 c 2
384 24 m 2
 384 -72 l 2
 384 -144 384 -144 456 -144 c 1
 456 -144 l 1
 528 -144 528 -144 528 -72 c 2
 528 24 l 2
 528 96 528 96 456 96 c 1
 456 96 l 1
 384 96 384 96 384 24 c 2
552 24 m 2
 552 -72 l 2
 552 -144 552 -144 624 -144 c 1
 624 -144 l 1
 696 -144 696 -144 696 -72 c 2
 696 24 l 2
 696 96 696 96 624 96 c 1
 624 96 l 1
 552 96 552 96 552 24 c 2
72 336 m 0
 72 576 243.935546875 720 456 720 c 0
 668.064453125 720 840 576 840 336 c 0
 840 150.431640625 840 0 456 0 c 0
 72 0 72 150.431640625 72 336 c 0
EndSplineSet
Fore
SplineSet
74 243 m 1,0,1
 72 267 72 267 72 336 c 1,2,3
 72 508 72 508 181 614 c 129,-1,4
 290 720 290 720 456 720 c 129,-1,5
 622 720 622 720 731 614 c 129,-1,6
 840 508 840 508 840 336 c 1,7,8
 840 267 840 267 838 243 c 1,9,10
 834 181 834 181 816 139 c 1,11,12
 786 67 786 67 698.5 33.5 c 129,-1,13
 611 0 611 0 456 0 c 129,-1,14
 301 0 301 0 213.5 33.5 c 129,-1,15
 126 67 126 67 96 139 c 1,16,17
 78 181 78 181 74 243 c 1,0,1
573 -123 m 128,-1,19
 552 -102 552 -102 552 -72 c 2,20,-1
 552 72 l 1,21,-1
 696 72 l 1,22,-1
 696 -72 l 2,23,24
 696 -102 696 -102 675 -123 c 128,-1,25
 654 -144 654 -144 624 -144 c 128,-1,18
 594 -144 594 -144 573 -123 c 128,-1,19
405 -123 m 128,-1,27
 384 -102 384 -102 384 -72 c 2,28,-1
 384 72 l 1,29,-1
 528 72 l 1,30,-1
 528 -72 l 2,31,32
 528 -102 528 -102 507 -123 c 128,-1,33
 486 -144 486 -144 456 -144 c 128,-1,26
 426 -144 426 -144 405 -123 c 128,-1,27
237 -123 m 128,-1,35
 216 -102 216 -102 216 -72 c 2,36,-1
 216 72 l 1,37,-1
 360 72 l 1,38,-1
 360 -72 l 2,39,40
 360 -102 360 -102 339 -123 c 128,-1,41
 318 -144 318 -144 288 -144 c 128,-1,34
 258 -144 258 -144 237 -123 c 128,-1,35
EndSplineSet
EndChar

StartChar: Skull.1
Encoding: 79 -1 79
Width: 912
Flags: MW
LayerCount: 2
Back
SplineSet
408 384 m 4
 408 317.736328125 408 264 288 264 c 4
 168 264 168 317.736328125 168 384 c 4
 168 450.229492188 221.770507812 504 288 504 c 4
 354.229492188 504 408 450.229492188 408 384 c 1028
744 384 m 0
 744 317.736328125 744 264 624 264 c 0
 504 264 504 317.736328125 504 384 c 0
 504 450.229492188 557.770507812 504 624 504 c 0
 690.229492188 504 744 450.229492188 744 384 c 0
384 132 m 0
 384 112.118164062 400.118164062 96 420 96 c 0
 439.881835938 96 456 112.118164062 456 132 c 0
 456 151.881835938 439.881835938 168 420 168 c 0
 400.118164062 168 384 151.881835938 384 132 c 0
408 156 m 0
 408 136.118164062 429.490234375 120 456 120 c 0
 482.509765625 120 504 136.118164062 504 156 c 0
 504 175.881835938 482.509765625 192 456 192 c 0
 429.490234375 192 408 175.881835938 408 156 c 0
456 132 m 0
 456 112.118164062 472.118164062 96 492 96 c 0
 511.881835938 96 528 112.118164062 528 132 c 0
 528 151.881835938 511.881835938 168 492 168 c 0
 472.118164062 168 456 151.881835938 456 132 c 0
EndSplineSet
Fore
Refer: 15 -1 N 1 0 0 1 624 384 2
Refer: 15 -1 N 1 0 0 1 288 384 2
Refer: 4 -1 N 0.125 0 0 0.09375 456 156 0
Refer: 4 -1 N 0.09375 0 0 0.09375 492 132 0
Refer: 4 -1 N 0.09375 0 0 0.09375 420 132 0
EndChar

StartChar: clouds_shadow2
Encoding: 80 -1 80
Width: 912
Flags: MW
LayerCount: 2
Back
SplineSet
694.08 650.208 m 5
 692.6396 640.3916 688.8242 630.3603 683.0878 621.0244 c 4
 675.4316 608.832 664.4404 597.8398 650.8076 590.1835 c 4
 640.2958 584.208 628.08 578.9521 615.1679 577.0322 c 4
 607.2724 557.4238 596.2802 539.0156 582.6484 522.5039 c 6
 582.4082 522.5039 l 6
 578.3515 517.7275 574.0322 513.1679 569.496 508.872 c 4
 564.2402 503.6162 558.7441 498.8398 552.7675 494.2802 c 4
 517.1279 466.7763 470.9755 451.248 425.3037 451.7041 c 4
 385.8476 451.7041 344.4716 463.1757 311.2324 485.4238 c 4
 306.456 488.5439 302.1357 491.8798 297.8398 495.2158 c 4
 289.2236 502.1523 281.1123 509.5683 273.6962 517.7041 c 4
 265.7998 525.8398 258.624 534.6718 252.1679 544.0078 c 4
 246.6718 552.8876 241.872 561.7197 237.8164 571.2958 c 4
 226.3437 572.496 214.8476 575.3515 204.8164 580.3916 c 4
 199.7998 582.5517 195.2402 585.1679 190.9443 588.288 c 4
 177.3115 598.08 166.3203 610.7519 160.8242 625.5839 c 4
 156.2636 635.8564 154.3681 646.8476 155.0644 657.1435 c 5
 165.3603 623.4238 198.8398 601.8964 234 606.4316 c 6
 238.5361 607.1523 l 6
 247.872 608.832 256.4638 612.6484 263.8798 617.4238 c 5
 268.6562 606.4316 274.1523 596.1357 280.8476 586.5839 c 4
 282.7675 583.4638 284.9042 580.6083 287.3037 577.7275 c 4
 293.2802 569.832 300.2158 562.416 307.6318 555.9599 c 4
 320.0644 544.4882 334.1757 535.1523 349.7275 527.9755 c 4
 368.8564 518.8798 390.1435 513.624 412.6318 512.664 c 4
 459.9843 510.2636 503.496 527.2558 535.7763 556.8964 c 6
 540.0722 561.1923 l 6
 555.624 576.2636 568.0556 594.6718 576.8876 615 c 4
 592.6796 608.3037 610.3681 607.1035 628.5361 609.5039 c 4
 642.8876 611.4238 658.2001 620.496 670.3916 629.5917 c 4
 683.8076 639.4316 693.3603 649.248 694.08 650.208 c 5
EndSplineSet
Fore
SplineSet
156 653 m 0,0,1
 156 658 156 658 158 666 c 1,2,3
 160 628 160 628 195 612.5 c 128,-1,4
 230 597 230 597 264 617 c 1,5,6
 285 569 285 569 327 540.5 c 128,-1,7
 369 512 369 512 422 512 c 0,8,9
 470 512 470 512 512.5 539 c 128,-1,10
 555 566 555 566 577 615 c 1,11,12
 598 606 598 606 628 609.5 c 128,-1,13
 658 613 658 613 693 653 c 1,14,15
 690 623 690 623 667.5 602.5 c 128,-1,16
 645 582 645 582 615 577 c 1,17,18
 594 522 594 522 542.5 487 c 128,-1,19
 491 452 491 452 425 452 c 0,20,21
 357 452 357 452 306 489.5 c 128,-1,22
 255 527 255 527 238 571 c 1,23,24
 200 576 200 576 178 600 c 128,-1,25
 156 624 156 624 156 653 c 0,0,1
EndSplineSet
Colour: ffff00
EndChar

StartChar: fear_hand
Encoding: 81 -1 81
Width: 912
Flags: MW
LayerCount: 2
Fore
SplineSet
25 227 m 0,0,1
 25 248 25 248 30 260 c 1,2,3
 43 264 43 264 58 264 c 0,4,5
 101 264 101 264 135.5 217.5 c 128,-1,6
 170 171 170 171 188 96 c 128,-1,7
 206 21 206 21 206 -53 c 0,8,9
 206 -98 206 -98 199 -144 c 1,10,-1
 44 -144 l 1,11,12
 57 -96 57 -96 57 -34 c 0,13,14
 57 34 57 34 38 131 c 0,15,16
 25 196 25 196 25 227 c 0,0,1
EndSplineSet
Colour: ffff00
EndChar

StartChar: shaking_lines
Encoding: 82 -1 82
Width: 912
Flags: MW
LayerCount: 2
Fore
SplineSet
78.5 571.5 m 128,-1,1
 79 579 79 579 83 583 c 0,2,3
 119 626 119 626 168 654 c 0,4,5
 173 657 173 657 179.5 656 c 128,-1,6
 186 655 186 655 190.5 650 c 128,-1,7
 195 645 195 645 194.5 637 c 128,-1,8
 194 629 194 629 186 623 c 0,9,10
 141 597 141 597 110 559 c 0,11,12
 104 553 104 553 96.5 553 c 128,-1,13
 89 553 89 553 83.5 558.5 c 128,-1,0
 78 564 78 564 78.5 571.5 c 128,-1,1
31 614.5 m 128,-1,15
 31 622 31 622 35 626 c 0,16,17
 74 674 74 674 131 707 c 0,18,19
 138 710 138 710 144.5 708 c 128,-1,20
 151 706 151 706 154.5 700.5 c 128,-1,21
 158 695 158 695 157 687.5 c 128,-1,22
 156 680 156 680 148 675 c 0,23,24
 101 648 101 648 63 604 c 0,25,26
 57 597 57 597 49 597 c 128,-1,27
 41 597 41 597 36 602 c 128,-1,14
 31 607 31 607 31 614.5 c 128,-1,15
EndSplineSet
Colour: ffff00
EndChar

StartChar: features_monocle
Encoding: 83 -1 83
Width: 912
Flags: MW
LayerCount: 2
Back
SplineSet
840 312 m 0
 840 86.6708 657.3291 -96 432 -96 c 0
 206.6933 -96 24 86.6708 24 312 c 0
 24 537.3066 206.6933 720 432 720 c 0
 657.3291 720 840 537.3066 840 312 c 1024
239.9912 386.5732 m 0
 239.9912 340.1806 266.8535 302.5703 299.9892 302.5703 c 0
 333.1259 302.5703 359.9882 340.1806 359.9882 386.5732 c 0
 359.9882 432.9667 333.1259 470.5761 299.9892 470.5761 c 0
 266.8535 470.5761 239.9912 432.9667 239.9912 386.5732 c 0
432 396.0029 m 0
 432 309.8505 501.8398 240.0107 587.9921 240.0107 c 0
 674.1435 240.0107 743.9843 309.8505 743.9843 396.0029 c 0
 743.9843 482.1552 674.1435 551.9951 587.9921 551.9951 c 0
 501.8398 551.9951 432 482.1552 432 396.0029 c 0
360.0332 494.5576 m 0
 352.7353 494.5576 345.5273 497.8662 340.8125 504.1455 c 0
 318.3496 534.0878 294.8447 550.1357 270.9306 551.8359 c 0
 239.4238 553.9892 213.7431 530.3701 208.9599 525.5878 c 0
 199.5761 516.2041 184.3896 516.2041 175.0283 525.5878 c 0
 165.6435 534.9716 165.6435 550.1582 175.0283 559.5205 c 0
 185.3867 569.8789 223.2851 603.4023 274.33 599.708 c 0
 312.7509 596.9882 348.0205 574.5253 379.2089 532.955 c 0
 387.166 522.3466 385.0117 507.2958 374.4267 499.3623 c 0
 370.0742 496.121 365.0205 494.5576 360.0332 494.5576 c 0
768.0107 -96 m 0
 754.7509 -96 744.0068 -85.2558 744.0068 -71.996 c 2
 744.0068 383.9892 l 2
 744.0068 397.249 754.7509 407.9931 768.0107 407.9931 c 0
 781.2714 407.9931 792.0146 397.249 792.0146 383.9892 c 2
 792.0146 -72.0185 l 2
 791.9921 -85.2558 781.2714 -96 768.0107 -96 c 0
768.0107 431.997 m 0
 766.7871 431.997 765.6308 431.7246 764.4296 431.6347 c 0
 747.8369 513.8691 675.0546 575.999 587.9921 575.999 c 0
 488.7353 575.999 407.996 495.2597 407.996 396.0029 c 0
 407.996 296.7451 488.7353 216.0068 587.9921 216.0068 c 0
 666.6005 216.0068 733.4218 266.7353 757.9013 337.1142 c 0
 761.166 336.4121 764.5205 336.0039 767.9882 336.0039 c 0
 794.5078 336.0039 815.996 357.4921 815.996 384.0117 c 0
 815.996 410.5087 794.5078 431.997 768.0107 431.997 c 0
587.9921 263.9921 m 0
 515.2089 263.9921 456.0039 323.1972 456.0039 396.0029 c 0
 456.0039 468.8085 515.2314 528.0126 587.9921 528.0126 c 0
 660.7753 528.0126 720.0029 468.8085 720.0029 396.0029 c 0
 720.0029 323.1972 660.7753 263.9921 587.9921 263.9921 c 0
503.9667 72.0048 m 0
 500.3623 72.0048 496.6904 72.8212 493.2451 74.5439 c 0
 452.0146 95.1708 411.9394 95.1708 370.7089 74.5439 c 0
 358.832 68.6279 344.416 73.4111 338.5 85.288 c 0
 332.5615 97.1425 337.3662 111.5585 349.2441 117.497 c 0
 404.1201 144.9238 459.789 144.9238 514.7109 117.497 c 0
 526.5654 111.5585 531.3701 97.1425 525.455 85.288 c 0
 521.2607 76.8564 512.7841 72.0048 503.9667 72.0048 c 0
659.7773 506.6835 m 1
 639.1054 520.125 614.4892 527.9912 587.9921 527.9912 c 0
 515.0966 527.9912 455.9804 468.8984 455.9804 395.9794 c 0
 455.9804 369.4824 463.8691 344.8662 477.288 324.1943 c 1
 659.7773 506.6835 l 1
531.666 276.7529 m 1
 548.7792 268.6621 567.8183 263.9921 587.9921 263.9921 c 0
 660.8876 263.9921 720.0029 323.0839 720.0029 396.0029 c 0
 720.0029 416.1757 715.333 435.2392 707.2412 452.3291 c 1
 531.666 276.7529 l 1
EndSplineSet
Fore
SplineSet
167 503 m 128,-1,1
 167 513 167 513 174 520 c 0,2,3
 218 560 218 560 266 560 c 0,4,5
 326 560 326 560 377 495 c 0,6,7
 383 488 383 488 383 479 c 0,8,9
 383 469 383 469 376 462 c 128,-1,10
 369 455 369 455 359 455 c 128,-1,11
 349 455 349 455 342 462 c 0,12,13
 341 463 341 463 338 467 c 0,14,15
 303 512 303 512 266 512 c 0,16,17
 237 512 237 512 208 486 c 0,18,19
 201 479 201 479 191 479 c 128,-1,20
 181 479 181 479 174 486 c 128,-1,0
 167 493 167 493 167 503 c 128,-1,1
EndSplineSet
Colour: ffff00
EndChar

StartChar: nodding_mouth
Encoding: 84 -1 84
Width: 912
Flags: MW
LayerCount: 2
Back
SplineSet
456 12 m 132
 476 12 496 17 516 27 c 4
 520 29 524 30 528 30 c 4
 534.6666 30 540.3333 27.6666 545 23 c 132
 549.6666 18.3333 552 12.6666 552 6 c 132
 552 -0.6666 549.6666 -6.3333 545 -11 c 4
 542.3333 -13.6666 537 -16.6666 529 -20 c 4
 505 -30.6666 480.6666 -36 456 -36 c 132
 431.3333 -36 407 -30.6666 383 -20 c 4
 375 -16.6666 369.6666 -13.6666 367 -11 c 4
 362.3333 -6.3333 360 -0.6666 360 6 c 132
 360 12.6666 362.3333 18.3333 367 23 c 132
 371.6666 27.6666 377.3333 30 384 30 c 4
 388 30 392 29 396 27 c 4
 416 17 436 12 456 12 c 132
EndSplineSet
Fore
SplineSet
0 24 m 128,-1,1
 30 24 30 24 60 39 c 0,2,3
 66 42 66 42 72 42 c 0,4,5
 82 42 82 42 89 35 c 128,-1,6
 96 28 96 28 96 18 c 128,-1,7
 96 8 96 8 89 1 c 0,8,9
 85 -3 85 -3 73 -8 c 0,10,11
 37 -24 37 -24 0 -24 c 128,-1,12
 -37 -24 -37 -24 -73 -8 c 0,13,14
 -85 -3 -85 -3 -89 1 c 0,15,16
 -96 8 -96 8 -96 18 c 128,-1,17
 -96 28 -96 28 -89 35 c 128,-1,18
 -82 42 -82 42 -72 42 c 0,19,20
 -66 42 -66 42 -60 39 c 0,21,0
 -30 24 -30 24 0 24 c 128,-1,1
EndSplineSet
Colour: ff00ff
EndChar

StartChar: doll_eye
Encoding: 85 -1 85
Width: 912
Flags: W
LayerCount: 2
Back
Refer: 365 -1 S 1 0 0 1 24 0 0
Fore
SplineSet
550.5 320 m 129,-1,1
 551 325 551 325 561 327 c 1,2,3
 589 332 589 332 602 332 c 257,4,5
 629 332 629 332 643 319 c 1,6,7
 646 316 646 316 646 312 c 1,8,9
 646 306 646 306 641 303 c 129,-1,10
 636 300 636 300 629 303 c 1,11,12
 613 311 613 311 559 314 c 1,13,0
 550 315 550 315 550.5 320 c 129,-1,1
EndSplineSet
Colour: ffff00
EndChar

StartChar: hand1
Encoding: 86 -1 86
Width: 912
VWidth: 3600
Flags: W
LayerCount: 2
Back
SplineSet
0 0 m 1
 -159.1201 0 -288 128.8798 -288 288 c 1
 -288 672 l 1
 -288 672 -288.24 673.92 -288.24 676.992 c 0
 -288.24 689.28 -284.4 720 -246 720 c 1
 -207.6 720 -203.76 689.28 -203.76 676.992 c 0
 -203.76 673.92 -204 672 -204 672 c 1
 -204 449.2802 l 1
 -196.3203 452.6396 -170.4003 456 -162 458.8798 c 9
 -162 768 l 1
 -162 768 -162.24 769.92 -162.24 772.992 c 0
 -162.24 785.28 -158.4 816 -120 816 c 1
 -81.6 816 -77.76 785.28 -77.76 772.992 c 0
 -77.76 769.92 -78 768 -78 768 c 1
 -78 477.1201 l 1
 -70.08 477.8398 -50.1601 478.3203 -42 478.7998 c 9
 -42 816 l 1
 -42 816 -42.24 817.92 -42.24 820.992 c 0
 -42.24 833.28 -38.4 864 0 864 c 1
 38.4 864 42.24 833.28 42.24 820.992 c 0
 42.24 817.92 42 816 42 816 c 1
 42 478.7998 l 17
 50.1601 478.3203 76.08 477.5996 84 476.8798 c 1
 84 792 l 1
 84 792 83.76 793.92 83.76 796.992 c 0
 83.76 809.28 87.6 840 126 840 c 1
 164.4 840 168.24 809.28 168.24 796.992 c 0
 168.24 793.92 168 792 168 792 c 1
 168 432 l 1
 168 432 167.9168 436.5813 167.8743 436.5813 c 0
 167.8597 436.5813 167.8499 436.0412 167.8499 434.59 c 0
 167.8499 432.3609 167.873 427.9821 167.9375 420.1093 c 1
 168.195 385.9608 175.0037 377.9845 181.3089 377.9845 c 4
 186.8367 377.9845 191.9775 384.1152 191.9775 384.1152 c 1
 262.1689 548.5156 l 1
 262.1689 548.5156 273.4059 581.8709 305.1363 581.8709 c 0
 310.4661 581.8709 316.3741 580.9298 322.9042 578.7314 c 1
 350.1398 569.5403 355.6118 549.5765 355.6118 535.0165 c 0
 355.6118 525.2357 353.1425 517.8935 353.1425 517.8935 c 1
 318.5224 396.0097 l 17
 304.8798 347.6425 292.122 298.789 285.4433 249.039 c 1
 266.3232 108.4335 145.8603 0.1328 0 0 c 1
0 288 m 1049
EndSplineSet
Fore
SplineSet
0 0 m 0,0,1
 -104 0 -104 0 -185.5 68 c 128,-1,2
 -267 136 -267 136 -285 246 c 0,3,4
 -294 312 -294 312 -318 394 c 2,5,-1
 -353 517 l 2,6,7
 -364 565 -364 565 -322.5 578.5 c 128,-1,8
 -281 592 -281 592 -262 548 c 2,9,-1
 -192 384 l 1,10,11
 -169 362 -169 362 -168 420 c 2,12,-1
 -168 792 l 2,13,14
 -169 840 -169 840 -126 840 c 128,-1,15
 -83 840 -83 840 -84 792 c 2,16,-1
 -84 477 l 1,17,-1
 -42 479 l 1,18,-1
 -42 816 l 2,19,20
 -43 864 -43 864 0 864 c 128,-1,21
 43 864 43 864 42 816 c 2,22,-1
 42 479 l 1,23,-1
 78 477 l 1,24,-1
 78 768 l 2,25,26
 77 816 77 816 120 816 c 128,-1,27
 163 816 163 816 162 768 c 2,28,-1
 162 459 l 1,29,-1
 204 450 l 1,30,-1
 204 672 l 2,31,32
 203 720 203 720 246 720 c 128,-1,33
 289 720 289 720 288 672 c 2,34,-1
 288 288 l 2,35,36
 288 169 288 169 203.5 84.5 c 128,-1,37
 119 0 119 0 0 0 c 0,0,1
EndSplineSet
Colour: ff00ff
EndChar

StartChar: hand2
Encoding: 87 -1 87
Width: 912
Flags: W
LayerCount: 2
Back
SplineSet
490.08 210.7197 m 1
 354.2158 12.5517 l 1049
446.208 225.9843 m 17
 441.9355 231.7919 440.8076 240.6484 442.4404 247.7275 c 1
 426.1435 249.9599 l 17
 423.4082 238.248 425.9277 225.9843 433.0322 216.288 c 9
 464.5917 173.5195 l 1
 474.3837 187.7998 l 1
 446.208 225.9843 l 17
680.5917 380.3037 m 1
 719.1835 192.5996 l 21
 719.2939 192.0673 719.3505 191.5156 719.3505 190.9501 c 1
 719.3505 186.4404 715.6894 182.7792 711.1796 182.7792 c 1
 707.2353 182.7792 703.9404 185.5917 703.1757 189.3115 c 1
 703.1757 189.2998 664.5839 377.0156 664.5839 377.0156 c 1
 680.5917 380.3037 l 1
496.7041 273.3837 m 25
 595.7519 137.1601 l 17
 596.7382 135.8085 597.3203 134.1435 597.3203 132.3427 c 1
 597.3203 127.8378 593.6767 124.1708 589.1757 124.1523 c 1
 589.1669 124.1523 589.1582 124.1523 589.1503 124.1523 c 1
 586.4433 124.1523 584.0498 125.4726 582.5761 127.5117 c 1
 582.5712 127.5195 483.5283 263.7363 483.5283 263.7363 c 1
 496.7041 273.3837 l 25
359.9277 391.9921 m 25
 227.5683 190.416 l 17
 226.1162 188.1845 223.6005 186.708 220.7431 186.708 c 1
 219.0898 186.708 217.5478 187.2158 216.2636 188.0644 c 1
 214.038 189.5214 212.5654 192.038 212.5654 194.8955 c 1
 212.5654 196.5449 213.0693 198.0839 213.9121 199.3681 c 1
 213.8984 199.3642 346.2724 400.9443 346.2724 400.9443 c 1
 359.9277 391.9921 l 25
413.9277 336.7197 m 1
 293.8076 148.8964 l 17
 292.3574 146.6289 289.8173 145.124 286.9287 145.124 c 1
 285.3095 145.124 283.7968 145.6093 282.5283 146.4238 c 1
 280.2509 147.872 278.7392 150.4179 278.7392 153.3144 c 1
 278.7392 154.9287 279.2216 156.4365 280.0322 157.7041 c 1
 280.0185 157.7001 400.1523 345.5283 400.1523 345.5283 c 1
 413.9277 336.7197 l 1
442.9443 247.416 m 1
 353.8798 105.8164 l 17
 352.4375 103.5107 349.875 101.9755 346.957 101.9755 c 1
 345.3574 101.9755 343.8603 102.4511 342.5996 103.248 c 1
 340.2988 104.6972 338.7685 107.2607 338.7685 110.1787 c 1
 338.7685 111.7744 339.2402 113.2685 340.0322 114.5283 c 1
 340.0185 114.5244 429.0957 256.1279 429.0957 256.1279 c 1
 442.9443 247.416 l 1
864 288 m 17
 864 62.664 681.3359 -120 456 -120 c 1
 230.6884 -120 48 62.664 48 288 c 1
 48 513.3115 230.6884 696 456 696 c 1
 681.3359 696 864 513.3115 864 288 c 1033
360 48 m 1
 360 8.2353 402.9804 -24 456 -24 c 1
 509.0195 -24 552 8.2353 552 48 c 1
 552 87.7646 509.0195 120 456 120 c 1
 402.9804 120 360 87.7646 360 48 c 1
693.5761 370.6318 m 1
 695.2792 363.0185 696.1787 355.1025 696.1787 346.9785 c 1
 696.1787 287.372 647.7851 238.9785 588.1787 238.9785 c 1
 536.0156 238.9785 492.4462 276.1875 482.3759 325.3916 c 1
 480.9384 332.414 480.1845 339.6826 480.1845 347.1269 c 1
 480.1845 406.7333 528.5771 455.1269 588.1845 455.1269 c 1
 639.6669 455.1269 682.7792 418.8779 693.5761 370.6318 c 1
528 324.0478 m 1
 528 290.9375 554.8632 264.0957 588 264.0957 c 1
 621.1367 264.0957 648 290.9375 648 324.0478 c 1
 648 357.1582 621.1367 384 588 384 c 1
 554.8632 384 528 357.1582 528 324.0478 c 1
671.1123 481.6562 m 17
 667.2841 481.6591 663.6425 482.5751 660.4316 484.1757 c 1
 634.7041 497.1123 605.6542 504.3974 574.9169 504.3974 c 1
 560.6669 504.3974 546.7138 502.9365 533.3515 499.9677 c 1
 531.6269 499.5742 529.832 499.3652 527.9892 499.3652 c 1
 514.7431 499.3652 503.9892 510.1191 503.9892 523.3652 c 1
 503.9892 534.9345 512.2246 544.6025 523.1279 546.8642 c 1
 539.8095 550.5673 557.1464 552.5205 574.9365 552.5205 c 1
 613.332 552.5205 649.7001 543.291 681.8398 527.1357 c 1
 689.7314 523.2031 695.1572 515.0507 695.1572 505.6416 c 1
 695.1572 492.3964 684.4033 481.6416 671.1572 481.6416 c 9
 671.1123 481.6562 l 17
240.8876 481.6562 m 9
 240.8652 481.6562 l 17
 227.6191 481.6562 216.8652 492.4101 216.8652 505.6562 c 1
 216.8652 515.0654 222.2685 523.2031 230.1601 527.1357 c 1
 262.3105 543.2851 298.6054 552.3789 337.0068 552.3789 c 1
 354.7871 552.3789 372.1972 550.5605 388.872 546.8642 c 1
 399.7753 544.6025 407.9794 534.9335 407.9794 523.3642 c 1
 407.9794 510.1181 397.2255 499.3642 383.9794 499.3642 c 1
 382.1357 499.3642 380.373 499.5742 378.6484 499.9677 c 1
 365.2861 502.9365 351.3994 504.5029 337.1494 504.5029 c 1
 306.4111 504.5029 277.2958 497.1123 251.5683 484.1757 c 1
 248.3574 482.5751 244.7158 481.6591 240.8876 481.6562 c 9
359.8798 392.5195 m 1
 367.6562 403.872 l 1
 367.6562 403.872 384.6484 428.6396 409.3916 411.6484 c 1
 434.1601 394.6562 417.1923 369.9121 417.1923 369.9121 c 1
 400.7998 345.9843 l 17
 404.832 342.9121 408.7675 339.7675 412.5839 336.6484 c 1
 412.5839 336.6484 429.5761 361.416 454.3203 344.4238 c 1
 479.0878 327.4316 462.1201 302.6884 462.1201 302.6884 c 1
 429.1201 256.1279 l 17
 430.6503 254.0869 432.6279 252.4511 434.5791 250.8359 c 1
 436.8496 248.957 439.0859 247.1064 440.5439 244.6796 c 1
 440.5439 244.6796 457.5361 269.4482 482.2802 252.4804 c 1
 507.0722 235.4882 490.08 210.7197 490.08 210.7197 c 1
 354.2158 12.5517 l 17
 321.7236 -34.8046 267.2089 -65.8916 205.4912 -65.8916 c 1
 167.7675 -65.8916 132.6611 -53.997 103.7041 -34.1523 c 1
 56.3408 -1.6601 25.248 52.8574 25.248 114.58 c 1
 25.248 143.5488 32.3789 171.0019 44.5439 195.2636 c 1
 58.6796 223.3437 69.3603 253.0322 79.3681 282.8164 c 9
 104.664 357.9599 l 1
 104.664 357.9599 112.872 386.8564 141.7441 378.6718 c 1
 170.6162 370.4638 162.4316 341.5917 162.4316 341.5917 c 1
 140.5195 231.9599 l 17
 144.6484 229.1279 148.6083 226.2001 152.3759 223.1757 c 1
 297.2636 433.9921 l 1
 297.2636 433.9921 314.2558 458.7597 339 441.7675 c 1
 363.7441 424.7763 346.7763 400.0322 346.7763 400.0322 c 1
 359.8798 392.5195 l 1
858.3359 122.496 m 9
 878.5917 256.6796 l 17
 878.7832 257.9414 878.8818 259.2324 878.8818 260.5458 c 1
 878.8818 273.3925 869.3935 284.0224 857.0644 285.8876 c 1
 857.0898 285.9121 854.0878 286.3437 854.0878 286.3437 c 1
 852.8339 286.5322 851.5507 286.6298 850.2451 286.6298 c 1
 837.3867 286.6298 826.748 277.1328 824.8798 264.7919 c 1
 824.8554 264.8183 812.4716 182.664 812.4716 182.664 c 1
 812.3759 182.3281 l 17
 807.5283 151.248 781.0556 153.0722 771.0957 200.7841 c 1
 770.9111 201.6611 770.6572 202.4794 770.4042 203.2949 c 1
 770.2626 203.7509 770.121 204.207 769.9921 204.6718 c 9
 732.7441 389.2324 l 17
 730.5566 400.0927 720.9531 408.2812 709.4521 408.2812 c 1
 707.8388 408.2812 706.2822 408.1386 704.7597 407.832 c 1
 704.7412 407.8144 698.0878 406.4882 698.0878 406.4882 c 1
 685.2236 403.8964 677.9521 393.1679 680.5439 380.3037 c 9
 712.2236 217.5117 l 17
 712.2714 217.1572 712.2968 216.8212 712.3212 216.4863 c 1
 712.3593 215.9833 712.3964 215.4824 712.5117 214.9199 c 1
 719.2558 181.4404 703.0322 185.6396 697.2001 222.2402 c 1
 696.8857 224.0234 696.4189 225.7978 695.832 227.4716 c 1
 695.8427 227.4326 664.5595 377.04 664.5595 377.04 c 1
 662.5683 386.9042 l 17
 659.7841 400.6796 647.6396 410.1601 633.8642 407.3759 c 9
 630.5517 406.7041 l 17
 618.9179 404.3662 610.1435 394.081 610.1435 381.7626 c 1
 610.1435 380.0234 610.2988 378.3447 610.6318 376.7041 c 1
 610.6513 376.6845 644.4238 209.2324 644.4238 209.2324 c 1
 644.4716 205.9921 644.7119 202.6083 645.4316 198.9121 c 1
 652.4882 162.7675 631.4882 180.4316 618.8642 197.7841 c 9
 618.8398 197.8076 l 1
 512.8076 341.5917 l 17
 508.164 347.8769 500.7021 351.956 492.2958 351.956 c 1
 486.6484 351.956 481.4179 350.081 477.1923 346.9677 c 1
 477.2011 347.0029 474.456 344.9521 474.456 344.9521 c 1
 468.1669 340.3183 464.0839 332.8613 464.0839 324.458 c 1
 464.0839 318.8115 465.9619 313.583 469.08 309.3603 c 1
 469.0449 309.3691 496.6562 273.3837 496.6562 273.3837 c 1
 571.8242 170.3281 l 17
 571.9199 170.1679 571.997 170.0087 572.0732 169.8496 c 1
 572.1699 169.6494 572.2666 169.4482 572.4003 169.248 c 1
 594.8398 136.0556 593.5683 122.2802 571.4882 147.5996 c 9
 489.8876 258.288 l 17
 488.1357 260.6562 485.8691 262.1601 483.5498 263.6972 c 1
 483.5185 263.7177 483.4873 263.7392 483.456 263.7597 c 1
 479.54 266.4638 474.7939 268.0478 469.6796 268.0478 c 1
 464.3857 268.0478 459.4404 266.3515 455.4482 263.4716 c 1
 455.4931 263.4707 451.3681 260.4482 451.3681 260.4482 c 1
 445.2871 255.958 441.3398 248.7402 441.3398 240.6074 c 1
 441.3398 235.1494 443.1523 230.0937 446.1601 226.0078 c 1
 446.1259 226.0175 511.9921 136.7519 511.9921 136.7519 c 1
 519.6435 126.3593 526.7148 103.6689 534.2519 79.4833 c 1
 538.9863 64.2949 543.9033 48.5166 549.2636 34.8242 c 1
 563.1835 -0.6718 635.6162 -106.3681 760.4638 -57.4082 c 1
 860.7412 -18.1074 859.3476 58.6044 858.4658 107.1171 c 1
 858.3662 112.6416 858.2724 117.7998 858.3359 122.496 c 9
EndSplineSet
Fore
SplineSet
508 230 m 1,0,-1
 583 127 l 2,1,2
 588 122 588 122 594 126 c 128,-1,3
 600 130 600 130 596 137 c 2,4,-1
 470 308 l 2,5,6
 455 331 455 331 476 346 c 128,-1,7
 497 361 497 361 514 340 c 2,8,-1
 621 195 l 2,9,10
 635 177 635 177 642.5 178 c 128,-1,11
 650 179 650 179 644 211 c 2,12,-1
 611 375 l 2,13,14
 607 401 607 401 630.5 406.5 c 128,-1,15
 654 412 654 412 662 389 c 2,16,-1
 703 189 l 2,17,18
 705 182 705 182 712.5 183 c 128,-1,19
 720 184 720 184 719 193 c 2,20,-1
 681 378 l 2,21,22
 676 403 676 403 701.5 407.5 c 128,-1,23
 727 412 727 412 733 388 c 2,24,-1
 771 200 l 2,25,26
 780 165 780 165 794.5 162 c 128,-1,27
 809 159 809 159 813 186 c 2,28,-1
 825 265 l 2,29,30
 831 289 831 289 854.5 286 c 128,-1,31
 878 283 878 283 879 259 c 1,32,-1
 858 121 l 1,33,-1
 859 87 l 2,34,35
 859 -6 859 -6 785.5 -45.5 c 128,-1,36
 712 -85 712 -85 648 -61 c 128,-1,37
 584 -37 584 -37 549 35 c 0,38,39
 543 51 543 51 534 80 c 0,40,41
 520 128 520 128 511 138 c 2,42,-1
 482 177 l 1,43,44
 511 212 511 212 508 230 c 1,0,-1
EndSplineSet
Colour: ffff00
EndChar

StartChar: eyebrow_weary
Encoding: 88 -1 88
Width: 912
GlyphClass: 5
Flags: MW
LayerCount: 2
Back
SplineSet
5.8314 -23.2853 m 5
 5.8314 -23.2853 5.8335 -23.294 5.8124 -23.2901 c 1
 3.9661 -23.7609 2.0123 -24.0088 0.001 -24.0088 c 1
 -13.2473 -24.0088 -24.0033 -13.2527 -24.0033 -0.0043 c 1
 -24.0033 11.2328 -16.2652 20.6769 -5.8314 23.2853 c 1
 -5.8314 23.2853 -5.9633 23.2517 -5.9111 23.2652 c 1
 -5.8558 23.2795 -3.6788 23.8446 0.1001 25.1147 c 1
 3.5013 26.2578 8.1998 27.9719 13.8176 30.3634 c 1
 19.4354 32.7549 25.9719 35.8238 33.0534 39.6692 c 1
 38.7188 42.7456 44.7326 46.3186 50.9089 50.4362 c 1
 62.0284 57.8491 73.6638 67.0211 84.8054 78.2417 c 1
 90.9961 84.4764 97.0369 91.3441 102.7691 98.9091 c 1
 109.9348 108.3658 116.6205 118.9114 122.5197 130.7098 c 9
 122.544 130.7583 l 17
 126.4825 138.6354 134.627 144.0496 144.0261 144.0496 c 1
 157.2732 144.0496 168.0282 133.2946 168.0282 120.0475 c 1
 168.0282 116.1995 167.1207 112.5617 165.4802 109.2901 c 1
 158.2107 94.7511 149.9213 81.6688 141.0488 69.9595 c 1
 133.9505 60.5917 126.4803 52.1022 118.8605 44.4283 c 1
 105.143 30.6135 90.9482 19.4439 77.486 10.4691 c 1
 70.0059 5.4823 62.7487 1.1714 55.9089 -2.5427 c 1
 47.359 -7.1854 39.461 -10.8961 32.5845 -13.8235 c 1
 25.7079 -16.7508 19.8523 -18.8949 15.3829 -20.397 c 1
 9.7963 -22.2746 6.375 -23.1494 5.8314 -23.2853 c 5
0 0 m 17
 0 0 96 24 144 120 c 1033
EndSplineSet
Fore
SplineSet
-24 0 m 131,-1,1
 -24 10 -24 10 -17 17 c 1,2,3
 -13 21 -13 21 -7 23 c 1,4,5
 81 51 81 51 122 130 c 1,6,7
 124 134 124 134 127 137 c 1,8,9
 134 144 134 144 144 144 c 131,-1,10
 154 144 154 144 161 137 c 129,-1,11
 168 130 168 130 168 120 c 3,12,13
 168 115 168 115 166 110 c 1,14,15
 114 11 114 11 7 -23 c 1,16,17
 4 -24 4 -24 0 -24 c 3,18,19
 -10 -24 -10 -24 -17 -17 c 129,-1,0
 -24 -10 -24 -10 -24 0 c 131,-1,1
EndSplineSet
Colour: ff00ff
EndChar

StartChar: eyebrow_smiling
Encoding: 89 -1 89
Width: 912
GlyphClass: 5
Flags: MW
LayerCount: 2
Back
SplineSet
-199.0654 79.0654 m 0
 -203.416 74.7285 -209.414 72.041 -216.0361 72.041 c 0
 -229.2792 72.041 -240.0312 82.7929 -240.0312 96.0361 c 0
 -240.0312 102.6582 -237.3437 108.6562 -233 113 c 0
 -226.1357 119.8642 -218.8955 125.9726 -211.4238 131.3808 c 0
 -205.4462 135.707 -199.3203 139.5869 -193.1132 143.0605 c 0
 -181.9404 149.3134 -170.5097 154.25 -159.1484 158.1406 c 0
 -152.8369 160.3017 -146.5439 162.1416 -140.3193 163.7041 c 0
 -132.539 165.6572 -124.8652 167.1777 -117.3876 168.3505 c 0
 -109.9101 169.5234 -102.6279 170.3486 -95.6298 170.9042 c 0
 -86.8808 171.5986 -78.5742 171.873 -70.8808 171.873 c 0
 -57.5869 171.873 -46.1445 171.0556 -37.4296 170.1386 c 0
 -26.538 168.9921 -19.9072 167.6865 -19.3076 167.5664 c 0
 -8.3193 165.3691 -0.0292 155.6591 -0.0292 144.0292 c 0
 -0.0292 130.7812 -10.7851 120.0253 -24.0332 120.0253 c 0
 -25.6513 120.0253 -27.2314 120.1855 -28.7226 120.4912 c 0
 -28.7597 120.4912 -28.7578 120.499 -28.7578 120.499 c 1
 -28.7578 120.499 -28.6787 120.4833 -28.7128 120.4892 c 0
 -28.7675 120.5 -30.2128 120.7812 -32.8193 121.1757 c 0
 -35.164 121.5302 -38.4492 121.9775 -42.5039 122.4042 c 0
 -49.8027 123.1728 -59.5986 123.873 -70.8808 123.873 c 0
 -77.4091 123.873 -84.4423 123.6386 -91.7861 123.0556 c 0
 -97.6601 122.5898 -103.7333 121.9003 -109.9042 120.9316 c 0
 -116.0751 119.9638 -122.3427 118.7187 -128.6113 117.1445 c 0
 -133.6259 115.8857 -138.6406 114.4169 -143.6083 112.7158 c 0
 -152.5507 109.6533 -161.333 105.8388 -169.7236 101.1435 c 0
 -174.3857 98.5341 -178.9287 95.6533 -183.3222 92.4726 c 0
 -188.8164 88.496 -194.0781 84.0527 -199.0654 79.0654 c 0
-216.0332 96.0332 m 17
 -144.0332 168.0332 -24.0332 144.0332 -24.0332 144.0332 c 1033
5.8314 23.2853 m 0
 16.2863 20.6808 24.0245 11.2367 24.0245 -0.0004 c 0
 24.0245 -13.2488 13.2684 -24.0048 0.02 -24.0048 c 0
 -1.9911 -24.0048 -3.9449 -23.7569 -5.8124 -23.2901 c 2
 -5.8314 -23.2853 l 1
 -5.8314 -23.2853 -5.7522 -23.3049 -5.7971 -23.2939 c 0
 -5.9227 -23.2632 -7.7706 -22.8144 -10.9526 -22.1924 c 0
 -13.8161 -21.6327 -17.7604 -20.9328 -22.4959 -20.2682 c 0
 -27.231 -19.6036 -32.7576 -18.9746 -38.7757 -18.5495 c 0
 -43.5899 -18.2094 -48.7184 -18 -54 -18 c 0
 -58.5845 -18 -63.2922 -18.1578 -68.0188 -18.5192 c 0
 -71.8001 -18.8082 -75.5931 -19.2275 -79.3441 -19.7958 c 0
 -83.0951 -20.3642 -86.8037 -21.0816 -90.4174 -21.9614 c 0
 -93.3085 -22.6652 -96.1387 -23.4727 -98.8836 -24.3877 c 0
 -102.5897 -25.6231 -106.1388 -27.0541 -109.4856 -28.6846 c 0
 -112.4612 -30.1342 -115.2765 -31.7406 -117.9187 -33.5108 c 0
 -121.2226 -35.7243 -124.2559 -38.1904 -127.0327 -40.9672 c 0
 -131.3761 -45.3106 -137.3749 -47.9986 -143.9966 -47.9986 c 0
 -157.24 -47.9986 -167.9919 -37.2466 -167.9919 -24.0033 c 0
 -167.9919 -17.3816 -165.3039 -11.3828 -160.9672 -7.0327 c 0
 -155.8427 -1.9083 -150.3245 2.5513 -144.5871 6.3952 c 0
 -139.9963 9.4709 -135.2652 12.1546 -130.4631 14.4941 c 0
 -125.06 17.1263 -119.5665 19.3241 -114.0546 21.1614 c 0
 -109.9713 22.5225 -105.8769 23.6859 -101.7946 24.6798 c 0
 -96.6917 25.922 -91.6074 26.8995 -86.5823 27.6609 c 0
 -81.5571 28.4223 -76.5907 28.9675 -71.7222 29.3397 c 0
 -65.6366 29.805 -59.7035 30 -54 30 c 0
 -47.4297 30 -41.1745 29.7412 -35.3507 29.3298 c 0
 -28.0714 28.8156 -21.4657 28.0627 -15.7756 27.2641 c 0
 -10.0859 26.4655 -5.312 25.6209 -1.7063 24.9161 c 0
 2.8003 24.0352 5.4817 23.3727 5.8314 23.2853 c 0
0 0 m 17
 0 0 -96 24 -144 -24 c 1033
EndSplineSet
Fore
SplineSet
0 144 m 131,-1,1
 0 134 0 134 -7 127 c 128,-1,2
 -14 120 -14 120 -24 120 c 3,3,4
 -27 120 -27 120 -32 121 c 1,5,6
 -51 124 -51 124 -71 124 c 1,7,8
 -155 123 -155 123 -199 79 c 1,9,10
 -206 72 -206 72 -216 72 c 131,-1,11
 -226 72 -226 72 -233 79 c 128,-1,12
 -240 86 -240 86 -240 96 c 131,-1,13
 -240 106 -240 106 -233 113 c 1,14,15
 -174 171 -174 171 -71 172 c 1,16,17
 -34 171 -34 171 -17 167 c 1,18,19
 -11 165 -11 165 -7 161 c 0,20,0
 0 154 0 154 0 144 c 131,-1,1
24 0 m 131,-1,22
 24 -10 24 -10 17 -17 c 129,-1,23
 10 -24 10 -24 -0 -24 c 3,24,25
 -4 -24 -4 -24 -7 -23 c 1,26,27
 -46 -15 -46 -15 -78 -19.5 c 129,-1,28
 -110 -24 -110 -24 -127 -41 c 1,29,30
 -134 -48 -134 -48 -144 -48 c 131,-1,31
 -154 -48 -154 -48 -161 -41 c 129,-1,32
 -168 -34 -168 -34 -168 -24 c 131,-1,33
 -168 -14 -168 -14 -161 -7 c 1,34,35
 -132 21 -132 21 -87.5 27.5 c 129,-1,36
 -43 34 -43 34 7 23 c 1,37,38
 13 21 13 21 17 17 c 1,39,21
 24 10 24 10 24 0 c 131,-1,22
-144 -24 m 1049,40,-1
EndSplineSet
Colour: ff00ff
EndChar

StartChar: tongue_common.0
Encoding: 94 -1 94
Width: 912
Flags: MW
LayerCount: 2
Back
SplineSet
312 1 m 2
 312 168.0625 l 1
 312 168.0625 449.0156 136.0703 600 167.08 c 1
 600 1 l 2
 600 -71 552 -143 456 -143 c 0
 360 -143 312 -71 312 1 c 2
EndSplineSet
Fore
SplineSet
456 -143 m 129,-1,1
 389 -143 389 -143 350.5 -100.5 c 129,-1,2
 312 -58 312 -58 312 1 c 9,3,-1
 312 168 l 1,4,5
 381 154 381 154 455.5 153.5 c 129,-1,6
 530 153 530 153 600 167 c 1,7,-1
 600 1 l 17,8,9
 600 -58 600 -58 561.5 -100.5 c 129,-1,0
 523 -143 523 -143 456 -143 c 129,-1,1
EndSplineSet
Colour: ffff
EndChar

StartChar: tongue_common.1
Encoding: 95 -1 95
Width: 912
Flags: MW
LayerCount: 2
Back
SplineSet
469 -30.6308 m 2
 469 154 l 1
 442.7929 154.1435 l 1
 442.7929 -30.6308 l 2
 442.7929 -37.8642 448.664 -43.7373 455.8964 -43.7373 c 0
 463.1289 -43.7373 469 -37.8642 469 -30.6308 c 2
EndSplineSet
Fore
SplineSet
456 -44 m 128,-1,1
 451 -44 451 -44 447 -40.5 c 128,-1,2
 443 -37 443 -37 443 -31 c 2,3,-1
 443 154 l 1,4,-1
 469 154 l 1,5,-1
 469 -31 l 2,6,7
 469 -37 469 -37 465 -40.5 c 128,-1,0
 461 -44 461 -44 456 -44 c 128,-1,1
EndSplineSet
Colour: ffff
EndChar

StartChar: bg_sweat.0
Encoding: 96 -1 96
Width: 912
Flags: MW
LayerCount: 2
Back
SplineSet
24 288 m 135
 24 406.5 66.375 508.125 151.125 592.875 c 132
 235.875 677.625 337.5 720 456 720 c 135
 574.5 720 676.125 677.625 760.875 592.875 c 132
 845.625 508.125 888 406.5 888 288 c 135
 888 258.705 885.4101 230.4423 880.2304 203.2099 c 4
 864.4589 120.2851 824.6738 46.9238 760.875 -16.875 c 132
 676.125 -101.625 574.5 -144 456 -144 c 135
 337.5 -144 235.875 -101.625 151.125 -16.875 c 132
 87.3261 46.9238 47.541 120.2851 31.7695 203.2099 c 4
 26.5898 230.4423 24 258.705 24 288 c 135
24 144 m 4
 24 -28.3125 217.413 -168 456 -168 c 4
 694.5869 -168 888 -28.3125 888 144 c 4
 888 164.2451 885.33 184.039 880.2304 203.2099 c 4
 841.9287 347.208 666.5556 456 456 456 c 4
 245.4443 456 70.0712 347.208 31.7695 203.2099 c 4
 26.6699 184.039 24 164.2451 24 144 c 4
EndSplineSet
Fore
SplineSet
456 456 m 128,-1,1
 302 456 302 456 182.5 385.5 c 128,-1,2
 63 315 63 315 32 203 c 1,3,4
 24 244 24 244 24 288 c 0,5,6
 24 466 24 466 151 593 c 128,-1,7
 278 720 278 720 456 720 c 128,-1,8
 634 720 634 720 761 593 c 128,-1,9
 888 466 888 466 888 288 c 0,10,11
 888 244 888 244 880 203 c 1,12,13
 849 315 849 315 729.5 385.5 c 128,-1,0
 610 456 610 456 456 456 c 128,-1,1
EndSplineSet
Comment: "+AAoA"
Colour: ffff
EndChar

StartChar: heart_colored.0
Encoding: 97 -1 97
Width: 912
Flags: MW
LayerCount: 2
Back
SplineSet
885.2402 436.0078 m 0
 885.2402 566.8076 779.208 672.8398 648.4316 672.8398 c 0
 569.04 672.8398 498.9843 633.6484 456 573.7441 c 1
 413.0156 633.6484 342.9599 672.8398 263.5917 672.8398 c 0
 132.7919 672.8398 26.7597 566.832 26.7597 436.0078 c 0
 26.7597 417.4804 29.1123 399.5283 33.1435 382.2236 c 0
 66.0244 177.9121 293.1835 -37.6318 456 -96.8164 c 1
 618.7919 -37.6318 845.9755 177.9121 878.8076 382.2001 c 0
 882.8876 399.5039 885.2402 417.456 885.2402 436.0078 c 0
EndSplineSet
Fore
Refer: 8 -1 N 1.23345 0 0 1.23345 456 -97 0
Colour: ffff
EndChar

StartChar: hand_over_mouth.0
Encoding: 99 -1 99
Width: 912
Flags: MW
LayerCount: 2
Back
SplineSet
864 312 m 0
 864 86.664 681.3359 -96 456 -96 c 0
 230.6884 -96 48 86.664 48 312 c 0
 48 537.3115 230.6884 720 456 720 c 0
 681.3359 720 864 537.3115 864 312 c 1024
288 252 m 0
 288 152.5888 363.2158 72 456 72 c 0
 548.7841 72 624 152.5888 624 252 c 0
 624 351.4111 548.7841 432 456 432 c 0
 363.2158 432 288 351.4111 288 252 c 0
563.2324 63.0957 m 1
 563.2324 63.0957 587.1601 80.4003 567.1923 101.832 c 0
 547.2236 123.2636 528.288 100.5839 528.288 100.5839 c 1
 428.7363 7.7998 l 1
 427.08 12.7197 417.7197 25.6318 415.5361 30.5283 c 2
 553.6562 159.3115 l 1
 553.6562 159.3115 577.6083 176.6162 557.5917 198.0722 c 0
 537.624 219.4804 518.664 196.8476 518.664 196.8476 c 1
 388.7519 75.7441 l 1
 385.7519 79.5361 377.6884 88.7041 374.496 92.496 c 2
 525.1201 232.8964 l 1
 525.1201 232.8964 549.0478 250.2236 529.0556 271.6318 c 0
 509.0878 293.0644 490.1523 270.4082 490.1523 270.4082 c 1
 339.4804 130.0556 l 2
 335.8798 133.5361 324.7919 144.6718 321.1435 147.9599 c 1
 461.9277 279.1923 l 1
 461.9277 279.1923 485.832 296.5195 465.8642 317.9277 c 0
 445.872 339.3603 426.9599 316.7041 426.9599 316.7041 c 1
 278.0878 177.9599 l 1
 266.1601 166.8242 l 1
 260.8798 161.8564 l 1
 260.8798 161.8564 247.9677 144 234.7919 157.5595 c 2
 279 257.3515 l 1
 279 257.3515 292.9199 283.1279 267.1679 297.0722 c 0
 241.3681 311.0156 227.4482 285.2402 227.4482 285.2402 c 1
 187.416 219.0478 l 2
 171.5039 192.8164 155.04 166.7763 135.5996 143.04 c 0
 80.7841 76.0078 82.5361 -22.8964 143.2324 -88.0556 c 0
 209.4482 -159.0722 320.7363 -162.9843 391.7519 -96.7919 c 2
 402.4804 -86.7597 l 1
 563.2324 63.0957 l 1
288.3837 574.08 m 0
 234.2636 559.5839 204.8642 526.9199 203.0644 524.8798 c 0
 194.3281 514.9199 195.3115 499.7519 205.248 490.9921 c 0
 215.208 482.2324 230.3515 483.1923 239.1123 493.1757 c 0
 241.0078 495.2636 289.2724 547.248 378.5517 528.9843 c 0
 391.5595 526.3203 404.2324 534.7197 406.872 547.6796 c 0
 409.5361 560.664 401.1601 573.3603 388.1757 576 c 0
 348.9355 584.0644 315.5517 581.3515 288.3837 574.08 c 0
623.6162 574.0556 m 0
 596.4482 581.3281 563.0644 584.04 523.7998 576.0244 c 0
 510.8164 573.3603 502.4404 560.6884 505.1035 547.7041 c 0
 507.7919 534.7197 520.4404 526.3437 533.4238 529.0078 c 0
 622.7998 547.2958 670.9677 495.288 672.9599 493.08 c 0
 681.7675 483.3115 696.9599 482.4238 706.7998 491.208 c 0
 716.6396 499.9921 717.624 514.9921 708.9121 524.9042 c 0
 707.1123 526.9199 677.7119 559.5595 623.6162 574.0556 c 0
EndSplineSet
Fore
Refer: 86 -1 N 0.416214 -0.446335 0.446335 0.416214 143 -88 0
Colour: ffff
EndChar

StartChar: fear_hands.0
Encoding: 100 -1 100
Width: 912
Flags: MW
LayerCount: 2
Back
SplineSet
57.7031 264 m 4
 150.1074 264 205.8925 98.0195 205.8925 -53.9238 c 4
 205.8925 -85.0546 203.5517 -115.5957 198.7031 -144 c 5
 43.6396 -144 l 5
 53.623 -107.3105 57.3505 -70.538 57.3505 -34.7851 c 4
 57.3505 25.371 46.7998 82.6435 37.746 131.7871 c 4
 30.9433 168.7148 24.9853 201.0527 24.9853 226.5761 c 4
 24.9853 245.413 28.2304 260.538 36.7753 271.0556 c 5
 34.039 267.6718 31.7587 263.9042 30.0312 259.6083 c 5
 37.5429 262.416 46.5673 264 57.7031 264 c 4
882.0693 259.6171 m 4
 885.6494 250.621 887.125 239.6708 887.125 227.0361 c 4
 887.125 201.666 881.1757 169.5 874.371 132.7109 c 4
 865.2822 83.5693 854.6679 26.1787 854.6679 -34.2861 c 4
 854.6679 -70.1337 858.3984 -107.0605 868.3896 -143.9902 c 5
 713.3496 -143.9902 l 5
 708.4677 -115.3544 706.1103 -84.622 706.1103 -53.3417 c 4
 706.1103 98.8408 761.9091 264.0097 854.3017 264.0097 c 4
 865.5097 264.0097 874.5576 262.4013 882.0693 259.6171 c 4
EndSplineSet
Fore
Refer: 81 -1 N -1 0 0 1 912 0 0
Refer: 81 -1 N 1 0 0 1 0 0 0
Colour: ffff
EndChar

StartChar: head_sweat.0
Encoding: 101 -1 101
Width: 912
Flags: MW
LayerCount: 2
Fore
SplineSet
456 -144 m 128,-1,1
 278 -144 278 -144 151 -17 c 128,-1,2
 24 110 24 110 24 288 c 1,3,-1
 456 672 l 1,4,-1
 888 288 l 1,5,6
 888 110 888 110 761 -17 c 128,-1,0
 634 -144 634 -144 456 -144 c 128,-1,1
EndSplineSet
Colour: ffff
EndChar

StartChar: glasses.0
Encoding: 102 -1 102
Width: 912
Flags: W
LayerCount: 2
Back
SplineSet
24 288 m 0
 24 49.413 217.413 -144 456 -144 c 0
 694.5869 -144 888 49.413 888 288 c 0
 888 526.5869 694.5869 720 456 720 c 0
 217.413 720 24 526.5869 24 288 c 0
680.04 152.9042 m 0
 675.7675 156.7675 669.3837 157.0078 664.7998 153.5996 c 0
 663.8642 152.9042 570.6718 84 456 84 c 0
 341.6162 84 248.1123 152.9042 247.2001 153.5996 c 0
 242.6162 157.0078 236.2324 156.7197 231.9599 152.9042 c 0
 227.7119 149.0644 226.7519 142.7275 229.7041 137.832 c 0
 232.7998 132.6718 306.9121 12 456 12 c 0
 605.0878 12 679.2236 132.6718 682.2958 137.832 c 0
 685.248 142.7519 684.3115 149.0644 680.04 152.9042 c 0
456 81.8164 m 0
 452.4482 81.8164 449.0156 82.08 445.4882 82.2001 c 1
 445.4882 -26.1835 l 1
 466.4882 -26.1835 l 1
 466.4882 82.2236 l 1
 463.0078 82.1035 459.5517 81.8164 456 81.8164 c 0
552 96 m 2
 552.3837 96.0957 517.2001 86.9277 493.2958 84.3359 c 0
 484.5117 83.3281 475.6083 82.5117 466.4882 82.2001 c 2
 466.4882 -26.208 l 1
 504 -26.208 l 2
 530.4003 -26.208 552 -4.6083 552 21.7919 c 2
 552 96 l 2
360 96 m 2
 359.6162 96.0957 394.7998 86.9277 418.7041 84.3359 c 0
 427.4882 83.3281 436.3916 82.5117 445.5117 82.2001 c 2
 445.5117 -26.208 l 1
 408 -26.208 l 2
 381.5996 -26.208 360 -4.6083 360 21.7919 c 2
 360 96 l 2
680.04 152.9042 m 0
 675.7675 156.7675 669.3837 157.0078 664.7998 153.5996 c 0
 664.08 153.0722 610.5839 113.5683 534.9355 94.3203 c 0
 524.3037 91.6083 490.2001 84 456.0722 83.9755 c 0
 421.8964 83.9755 387.6962 91.6083 377.0644 94.3203 c 0
 301.416 113.5683 247.9199 153.0722 247.2001 153.5996 c 0
 242.6396 157.0078 236.2324 156.7675 231.9599 152.9042 c 0
 227.6884 149.0644 226.7519 142.7519 229.7041 137.832 c 0
 232.0322 133.9443 274.9443 64.2236 360 30.288 c 1
 360 74.1835 l 2
 359.6162 74.2802 394.7998 65.1123 418.7041 62.5195 c 0
 427.4882 61.5117 436.3916 60.6962 445.5117 60.3837 c 0
 449.0156 60.2636 452.4482 60 456 60 c 0
 459.5517 60 462.9843 60.2636 466.5117 60.3837 c 0
 475.6318 60.6962 484.5361 61.4882 493.3203 62.5195 c 0
 517.2236 65.1123 552.4082 74.2802 552.0244 74.1835 c 2
 552.0244 30.288 l 1
 637.08 64.2236 679.9921 133.9443 682.3203 137.832 c 0
 685.248 142.7519 684.3115 149.0644 680.04 152.9042 c 0
662.9755 383.4238 m 0
 662.9755 342.288 640.4638 308.9277 612.6718 308.9277 c 0
 584.9042 308.9277 562.3681 342.288 562.3681 383.4238 c 0
 562.3681 424.5595 584.8798 457.9199 612.6718 457.9199 c 0
 640.4638 457.9199 662.9755 424.5595 662.9755 383.4238 c 0
250.9677 383.4238 m 0
 250.9677 342.288 273.4804 308.9277 301.2724 308.9277 c 0
 329.04 308.9277 351.5761 342.288 351.5761 383.4238 c 0
 351.5761 424.5595 329.0644 457.9199 301.2724 457.9199 c 0
 273.4804 457.9199 250.9677 424.5595 250.9677 383.4238 c 0
859.3916 488.9521 m 0
 855.288 492.9355 828.9843 482.3759 802.3681 495.9355 c 0
 747.456 523.9199 608.6884 550.9199 518.3515 486.9121 c 0
 508.6796 480.0722 468.2636 478.9199 456.9599 479.4003 c 0
 445.6562 478.8964 405.2402 480.0478 395.5683 486.9121 c 0
 305.2558 550.9199 166.4882 523.9199 111.5761 495.9355 c 0
 84.9599 482.3759 58.6562 492.9355 54.5517 488.9521 c 0
 48.624 483.2158 48.624 460.248 54.5761 454.4882 c 0
 60.4804 448.7519 90.0244 442.1279 95.9042 424.9199 c 0
 101.832 407.6884 101.8798 305.9277 149.0156 270.7441 c 0
 193.1523 237.8164 296.1123 227.9042 361.3681 265.0322 c 0
 418.2958 297.4082 416.3037 365.5683 426.7441 406.1757 c 0
 430.4638 420.6484 440.9521 427.9443 456.9843 427.9443 c 0
 473.0156 427.9443 483.5039 420.6484 487.2236 406.1757 c 0
 497.664 365.5917 495.6484 297.4082 552.5996 265.0322 c 0
 617.8564 227.9277 720.8164 237.8398 764.9277 270.7441 c 0
 812.0878 305.9042 812.1357 407.6884 818.04 424.9199 c 0
 823.9199 442.1279 853.4638 448.7763 859.3681 454.4882 c 0
 865.3203 460.248 865.3437 483.2158 859.3916 488.9521 c 0
374.7363 401.3515 m 0
 372.8876 374.832 368.1601 323.9042 336.4082 305.832 c 0
 316.9443 294.7441 291.5761 288 265.0322 288 c 2
 265.0078 288 l 2
 235.6083 288 194.8564 296.3281 178.9199 308.208 c 0
 159 323.0644 151.416 384.2158 148.5595 407.0878 c 0
 146.7363 421.6562 141.8398 457.248 157.872 462.7197 c 0
 183.3115 471.3837 218.8076 478.1523 255.1201 478.1523 c 0
 271.7519 478.1523 327.624 477.1201 354.8398 460.3681 c 0
 378.9599 445.5595 375.7675 415.9443 374.7363 401.3515 c 0
765.4082 407.4238 m 0
 762.5517 384.5283 754.9677 323.0644 735.0478 308.208 c 0
 719.1123 296.3281 678.3603 288 648.9599 288 c 2
 648.9355 288 l 2
 622.3681 288 597.0244 294.7441 577.5361 305.832 c 0
 545.7841 323.8798 541.0556 374.496 539.208 401.0156 c 0
 538.2001 415.6083 534.9843 445.4404 559.1035 460.248 c 0
 586.3437 477 642.1923 478.1523 658.8242 478.1523 c 0
 695.1357 478.1523 730.6083 471.5039 756.0722 462.8398 c 0
 772.1035 457.3681 767.2324 421.9921 765.4082 407.4238 c 0
426.4082 781.0078 m 0
 429.3779 778.1464 430.8603 770.9931 430.8603 763.8291 c 0
 430.8603 756.6357 429.3662 749.4296 426.3837 746.5439 c 0
 424.5302 744.75 420.3437 742.8642 415.2919 740.5869 c 0
 404.2568 735.6142 389.0888 728.7792 385.0556 716.9755 c 0
 383.707 713.038 382.664 704.6875 381.2939 693.7255 c 0
 376.6708 656.7099 368.3281 589.9267 331.9443 562.7998 c 0
 307.4726 544.5458 264.8886 533.3681 220.6796 533.3681 c 0
 185.1992 533.3681 148.6699 540.5683 119.6162 557.0878 c 0
 74.5371 582.7148 66.4023 630.7763 59.7919 669.8271 c 0
 58.0517 680.1123 56.4169 689.7724 54.2402 698.2324 c 0
 50.5195 712.7041 40.0322 720 24 720 c 0
 7.9677 720 -2.5195 712.7041 -6.2402 698.2324 c 0
 -8.415 689.7734 -10.0498 680.1191 -11.791 669.8417 c 0
 -18.4062 630.7802 -26.5468 582.7197 -71.6162 557.0878 c 0
 -100.6728 540.5556 -137.205 533.3505 -172.6904 533.3505 c 0
 -216.8994 533.3505 -259.4843 544.5341 -283.9677 562.7998 c 0
 -320.3085 589.9267 -328.6601 656.6269 -333.2958 693.6523 c 0
 -334.6738 704.6494 -335.7226 713.0292 -337.08 716.9755 c 0
 -341.1083 728.7646 -356.2441 735.5869 -367.2753 740.5585 c 0
 -372.3457 742.8437 -376.5488 744.7373 -378.4082 746.5439 c 0
 -381.3876 749.4267 -382.875 756.6201 -382.875 763.8066 c 0
 -382.875 770.9785 -381.3935 778.1425 -378.4316 781.0078 c 0
 -377.6923 781.7255 -376.2343 781.9707 -374.1835 781.9707 c 0
 -372.3222 781.9707 -369.9746 781.7685 -367.2353 781.5322 c 0
 -363.3974 781.2021 -358.791 780.8046 -353.6777 780.8046 c 0
 -344.1201 780.8046 -332.7929 782.1923 -321.4082 787.9921 c 0
 -291.3867 803.291 -236.3007 818.2958 -177.7724 818.2958 c 0
 -129.246 818.2958 -78.3525 807.9814 -37.416 778.9677 c 0
 -29.0126 773.0039 2.6005 771.3525 18.1621 771.3525 c 0
 20.5107 771.3525 22.4931 771.3896 23.9755 771.456 c 0
 25.4121 771.3945 27.3193 771.3603 29.5732 771.3603 c 0
 45.0556 771.3603 76.9257 772.997 85.3681 778.9677 c 0
 126.3164 807.9814 177.2148 818.2958 225.7441 818.2958 c 0
 284.2773 818.2958 339.3623 803.291 369.3837 787.9921 c 0
 380.7685 782.1923 392.0957 780.8046 401.6533 780.8046 c 0
 406.7666 780.8046 411.373 781.2021 415.2109 781.5322 c 0
 417.9501 781.7685 420.2988 781.9707 422.1591 781.9707 c 0
 424.2099 781.9707 425.6689 781.7255 426.4082 781.0078 c 0
-58.248 693.4082 m 0
 -58.208 693.9726 -58.165 694.5585 -58.1201 695.166 c 0
 -57.8486 698.8671 -57.5195 703.3378 -57.5195 708.1884 c 0
 -57.5195 723.1308 -60.6386 741.6767 -78.1435 752.4238 c 0
 -105.3603 769.1757 -161.2324 770.208 -177.8642 770.208 c 0
 -214.1757 770.208 -249.6718 763.4404 -275.1123 754.7763 c 0
 -284.2187 751.6679 -286.5732 738.8398 -286.5732 725.6679 c 0
 -286.5732 716.2119 -285.3593 706.5781 -284.5605 700.2353 c 0
 -284.5136 699.8593 -284.4677 699.4951 -284.4238 699.1435 c 0
 -284.416 699.08 -284.4082 699.0156 -284.3994 698.9511 c 0
 -281.5263 675.9316 -273.9287 615.0791 -254.0644 600.2636 c 4
 -238.1279 588.3837 -197.3759 580.0556 -167.9755 580.0556 c 2
 -167.9521 580.0556 l 2
 -141.4082 580.0556 -116.04 586.7998 -96.5761 597.8876 c 0
 -64.8242 615.9599 -60.0957 666.8876 -58.248 693.4082 c 0
332.4238 699.4804 m 0
 332.4677 699.8349 332.5146 700.2011 332.5615 700.5791 c 0
 333.3583 706.9052 334.5634 716.4707 334.5634 725.8623 c 0
 334.5634 738.9931 332.208 751.7832 323.0878 754.8964 c 0
 297.624 763.5595 262.1523 770.208 225.8398 770.208 c 0
 209.208 770.208 153.3603 769.0556 126.1201 752.3037 c 0
 108.6083 741.5527 105.5058 722.8828 105.5058 707.875 c 0
 105.5058 703.0498 105.8261 698.6025 106.0917 694.9189 c 0
 106.1386 694.2792 106.1826 693.663 106.2236 693.0722 c 0
 108.0722 666.5517 112.7998 615.9355 144.5517 597.8876 c 0
 164.04 586.7998 189.3837 580.0556 215.9521 580.0556 c 2
 215.9755 580.0556 l 2
 245.3759 580.0556 286.1279 588.3837 302.0644 600.2636 c 0
 321.8964 615.0546 329.5009 676.041 332.3857 699.1738 c 0
 332.3984 699.2773 332.4111 699.3789 332.4238 699.4804 c 0
EndSplineSet
Fore
SplineSet
539 416 m 0,0,1
 540 329 540 329 576 307 c 0,2,3
 608 288 608 288 649 288 c 0,4,5
 671 288 671 288 698 294 c 128,-1,6
 725 300 725 300 736 309 c 0,7,8
 755 324 755 324 765 404 c 0,9,10
 768 423 768 423 768 434 c 0,11,12
 768 458 768 458 756 463 c 0,13,14
 710 478 710 478 659 478 c 0,15,16
 590 478 590 478 560 461 c 0,17,18
 539 449 539 449 539 416 c 0,0,1
146 434 m 0,19,20
 146 423 146 423 149 404 c 0,21,22
 159 324 159 324 178 309 c 0,23,24
 189 300 189 300 216 294 c 128,-1,25
 243 288 243 288 265 288 c 0,26,27
 306 288 306 288 338 307 c 0,28,29
 374 329 374 329 375 416 c 0,30,31
 375 449 375 449 354 461 c 0,32,33
 324 478 324 478 255 478 c 0,34,35
 204 478 204 478 158 463 c 0,36,37
 146 458 146 458 146 434 c 0,19,20
457 428 m 128,-1,39
 433 428 433 428 427 407 c 0,40,41
 425 399 425 399 421.5 378.5 c 128,-1,42
 418 358 418 358 415 346.5 c 128,-1,43
 412 335 412 335 406 317.5 c 128,-1,44
 400 300 400 300 388.5 287 c 128,-1,45
 377 274 377 274 361 265 c 0,46,47
 319 241 319 241 259.5 241 c 128,-1,48
 200 241 200 241 156 266 c 128,-1,49
 112 291 112 291 100 399 c 0,50,51
 98 417 98 417 96 425 c 0,52,53
 91 438 91 438 67 448 c 0,54,55
 64 449 64 449 55 454 c 0,56,57
 50 459 50 459 50 472 c 0,58,59
 51 490 51 490 58 490 c 0,60,61
 60 490 60 490 72 489 c 128,-1,62
 84 488 84 488 94 490 c 128,-1,63
 104 492 104 492 114 497 c 0,64,65
 176 526 176 526 255 526 c 0,66,67
 341 526 341 526 397 486 c 0,68,69
 413 479 413 479 457 479 c 128,-1,70
 501 479 501 479 517 486 c 0,71,72
 573 526 573 526 659 526 c 0,73,74
 738 526 738 526 800 497 c 0,75,76
 810 492 810 492 820 490 c 128,-1,77
 830 488 830 488 842 489 c 128,-1,78
 854 490 854 490 856 490 c 0,79,80
 863 490 863 490 864 472 c 0,81,82
 864 459 864 459 859 454 c 0,83,84
 850 449 850 449 847 448 c 0,85,86
 823 438 823 438 818 425 c 0,87,88
 816 417 816 417 814 399 c 0,89,90
 802 291 802 291 758 266 c 128,-1,91
 714 241 714 241 654.5 241 c 128,-1,92
 595 241 595 241 553 265 c 0,93,94
 537 274 537 274 525.5 287 c 128,-1,95
 514 300 514 300 508 317.5 c 128,-1,96
 502 335 502 335 499 346.5 c 128,-1,97
 496 358 496 358 492.5 378.5 c 128,-1,98
 489 399 489 399 487 407 c 0,99,38
 481 428 481 428 457 428 c 128,-1,39
EndSplineSet
Colour: ffff
EndChar

StartChar: GrinningFace.1
Encoding: 104 -1 104
Width: 912
GlyphClass: 5
Flags: MW
LayerCount: 2
Back
SplineSet
24 288 m 4
 24 49.413 217.413 -144 456 -144 c 4
 694.5869 -144 888 49.413 888 288 c 4
 888 526.5869 694.5869 720 456 720 c 4
 217.413 720 24 526.5869 24 288 c 4
456 216 m 4
 369.0468 216 311.3535 226.1269 240 240 c 4
 223.7041 243.1425 192 240 192 192 c 4
 192 96 302.2802 -24 456 -24 c 4
 609.6962 -24 720 96 720 192 c 4
 720 240 688.2958 243.1689 672 240 c 4
 600.6464 226.1269 542.9531 216 456 216 c 4
240 192 m 5
 240 192 312 168 456 168 c 4
 600 168 672 192 672 192 c 5
 672 192 624 96 456 96 c 4
 288 96 240 192 240 192 c 5
252 396 m 4
 252 349.6074 278.8642 312 312 312 c 4
 345.1357 312 372 349.6074 372 396 c 4
 372 442.3925 345.1357 480 312 480 c 4
 278.8642 480 252 442.3925 252 396 c 4
540 396 m 4
 540 349.6074 566.8642 312 600 312 c 4
 633.1357 312 660 349.6074 660 396 c 4
 660 442.3925 633.1357 480 600 480 c 4
 566.8642 480 540 442.3925 540 396 c 4
EndSplineSet
Fore
Refer: 133 -1 N 1 0 0 1 0 0 2
Refer: 90 -1 N 1 0 0 1 0 72 0
Colour: ffff
EndChar

StartChar: GrinningFaceWithBigEyes.1
Encoding: 105 -1 105
Width: 912
GlyphClass: 5
Flags: MW
LayerCount: 2
Back
SplineSet
360 420 m 0
 360 360.3613 333.1425 288 300 288 c 0
 266.8574 288 240 360.3613 240 420 c 0
 240 479.6386 266.8574 552 300 552 c 0
 333.1425 552 360 479.6386 360 420 c 0
672 420 m 4
 672 360.3613 645.1425 288 612 288 c 4
 578.8574 288 552 360.3613 552 420 c 4
 552 479.6386 578.8574 552 612 552 c 4
 645.1425 552 672 479.6386 672 420 c 4
888 288 m 0
 888 49.416 694.5839 -144 456 -144 c 0
 217.4394 -144 24 49.416 24 288 c 0
 24 526.5605 217.4394 720 456 720 c 0
 694.5839 720 888 526.5605 888 288 c 1024
456 192 m 0
 369.0468 192 311.3535 202.1269 240 216 c 0
 223.7041 219.1425 192 216 192 168 c 0
 192 72 302.2802 -48 456 -48 c 0
 609.6962 -48 720 72 720 168 c 0
 720 216 688.2958 219.1689 672 216 c 0
 600.6464 202.1269 542.9531 192 456 192 c 0
240 168 m 1
 240 168 312 144 456 144 c 0
 600 144 672 168 672 168 c 1
 672 168 624 72 456 72 c 0
 288 72 240 168 240 168 c 1
EndSplineSet
Fore
Refer: 133 -1 S 1 0 0 1 0 -24 2
Refer: 22 -1 N 1 0 0 1 612 288 0
Refer: 22 -1 N 1 0 0 1 300 288 0
Colour: ffff
EndChar

StartChar: GrinningFaceWithSmilingEyes.1
Encoding: 106 -1 106
Width: 912
GlyphClass: 5
Flags: MW
LayerCount: 2
Back
SplineSet
888 288 m 0
 888 49.416 694.5839 -144 456 -144 c 0
 217.4394 -144 24 49.416 24 288 c 0
 24 526.5605 217.4394 720 456 720 c 0
 694.5839 720 888 526.5605 888 288 c 1024
706.9687 292.873 m 0
 705.5273 296.1113 670.9921 372 600 372 c 0
 529.0312 372 494.4726 296.1113 493.0312 292.873 c 0
 490.8232 287.9042 492.2646 282.0957 496.5117 278.6884 c 0
 500.7119 275.2802 506.7353 275.1611 511.1533 278.3535 c 0
 511.4394 278.5683 541.4394 300 600 300 c 0
 658.2236 300 688.1767 278.8574 688.8466 278.3769 c 0
 690.9609 276.7919 693.5039 276 696 276 c 0
 698.6386 276 701.3037 276.8886 703.4882 278.6152 c 0
 707.7353 282.0234 709.2001 287.8808 706.9687 292.873 c 0
418.9687 292.873 m 0
 417.5273 296.1113 382.9921 372 312 372 c 0
 241.0312 372 206.4726 296.1113 205.0312 292.873 c 0
 202.8232 287.9042 204.2646 282.0957 208.4882 278.6884 c 0
 212.7119 275.2802 218.7353 275.1611 223.1269 278.3535 c 0
 223.4394 278.5683 253.416 300 312 300 c 0
 370.2236 300 400.1767 278.8574 400.8466 278.3769 c 0
 402.9609 276.7919 405.5039 276 408 276 c 0
 410.6386 276 413.3037 276.8886 415.4882 278.6152 c 0
 419.7607 282.0234 421.1767 287.8808 418.9687 292.873 c 0
456 192 m 0
 369.0468 192 311.3535 202.1269 240 216 c 0
 223.7041 219.1425 192 216 192 168 c 0
 192 72 302.2802 -48 456 -48 c 0
 609.6962 -48 720 72 720 168 c 0
 720 216 688.2958 219.1689 672 216 c 0
 600.6464 202.1269 542.9531 192 456 192 c 0
240 168 m 1
 240 168 312 144 456 144 c 0
 600 144 672 168 672 168 c 1
 672 168 624 72 456 72 c 0
 288 72 240 168 240 168 c 1
EndSplineSet
Fore
Refer: 133 -1 N 1 0 0 1 0 -24 2
Refer: 167 -1 N 1 0 0 1 0 -84 0
Colour: ffff
EndChar

StartChar: BeamingFaceWithSmilingEyes.1
Encoding: 107 -1 107
Width: 912
GlyphClass: 5
Flags: MW
LayerCount: 2
Back
SplineSet
888 288 m 0
 888 49.416 694.5839 -144 456 -144 c 0
 217.4394 -144 24 49.416 24 288 c 0
 24 526.5605 217.4394 720 456 720 c 0
 694.5839 720 888 526.5605 888 288 c 1024
408 288 m 0
 397.9433 288 388.5839 294.3613 385.2236 304.416 c 0
 380.3535 318.7919 360.8154 360 336 360 c 0
 310.5117 360 290.6884 316.1533 286.7763 304.416 c 0
 282.5761 291.8652 269.0644 285.0234 256.416 289.247 c 0
 243.8388 293.4238 237.0468 307.0312 241.247 319.6074 c 0
 244.247 328.6308 272.5429 408 336 408 c 0
 399.457 408 427.7529 328.6308 430.7763 319.5839 c 0
 434.9765 307.0078 428.1845 293.4003 415.6074 289.2236 c 0
 413.0644 288.4082 410.496 288 408 288 c 0
648 288 m 0
 637.9433 288 628.5839 294.3613 625.247 304.416 c 0
 620.3769 318.7919 600.7919 360 576 360 c 0
 550.5117 360 530.665 316.1533 526.7529 304.416 c 0
 522.5527 291.8652 509.0878 285.0234 496.3925 289.247 c 0
 483.8388 293.4238 477.0234 307.0312 481.2236 319.6074 c 0
 484.247 328.6308 512.5195 408 576 408 c 0
 639.4804 408 667.7529 328.6308 670.7529 319.5839 c 0
 674.9531 307.0078 668.1611 293.4003 655.5839 289.2236 c 0
 653.0644 288.4082 650.496 288 648 288 c 0
456 192 m 0
 369.0468 192 311.3535 202.1269 240 216 c 0
 223.7041 219.1425 192 216 192 168 c 0
 192 72 302.2802 -48 456 -48 c 0
 609.6962 -48 720 72 720 168 c 0
 720 216 688.2958 219.1689 672 216 c 0
 600.6464 202.1269 542.9531 192 456 192 c 0
240 168 m 1
 240 168 312 144 456 144 c 0
 600 144 672 168 672 168 c 1
 672 168 639.7431 6 456 6 c 0
 272.2568 6 240 168 240 168 c 1
456 57.7431 m 0
 369.6962 57.7431 305.4726 66.6728 265.5117 75.623 c 2
 245.7119 120.5273 l 1
 265.4648 113.039 339.0468 99 456.0234 99 c 0
 574.9199 99 648.9121 113.7841 668.7607 121.5117 c 1
 651.9355 77.3037 l 2
 612.7197 68.1845 545.8808 57.7431 456 57.7431 c 0
EndSplineSet
Fore
Refer: 133 -1 S 1 0 0 1 0 -24 2
Refer: 7 -1 N 1 0 0 1 576 384 0
Refer: 7 -1 N 1 0 0 1 336 384 0
Colour: ffff
EndChar

StartChar: BeamingFaceWithSmilingEyes.2
Encoding: 108 -1 108
Width: 912
Flags: MW
LayerCount: 2
Back
SplineSet
240 168 m 1
 240 168 312 144 456 144 c 1
 600 144 672 168 672 168 c 1
 672 168 639.7431 6 456 6 c 1
 272.2568 6 240 168 240 168 c 1
456 57.748 m 5
 369.6962 57.748 305.4726 66.6777 265.5117 75.6279 c 13
 245.6884 120.5322 l 5
 265.4648 113.0693 339.0234 99.0048 456 99.0048 c 5
 574.8964 99.0048 648.8886 113.789 668.7353 121.4931 c 5
 651.9121 77.2851 l 21
 612.7197 68.1894 545.8808 57.748 456 57.748 c 5
EndSplineSet
Fore
SplineSet
456 6 m 129,-1,1
 396 6 396 6 350.5 28.5 c 129,-1,2
 305 51 305 51 277 90 c 129,-1,3
 249 129 249 129 240 168 c 1,4,5
 326 144 326 144 456 144 c 129,-1,6
 586 144 586 144 672 168 c 1,7,8
 663 129 663 129 635 90 c 129,-1,9
 607 51 607 51 561.5 28.5 c 129,-1,0
 516 6 516 6 456 6 c 129,-1,1
EndSplineSet
Colour: ffff
EndChar

StartChar: BeamingFaceWithSmilingEyes.3
Encoding: 109 -1 109
Width: 912
Flags: MW
LayerCount: 2
Back
SplineSet
456 57.748 m 5
 369.6962 57.748 305.4726 66.6777 265.5117 75.6279 c 13
 245.6884 120.5322 l 5
 265.4648 113.0693 339.0234 99.0048 456 99.0048 c 5
 574.8964 99.0048 648.8886 113.789 668.7353 121.4931 c 5
 651.9121 77.2851 l 21
 612.7197 68.1894 545.8808 57.748 456 57.748 c 5
EndSplineSet
Fore
SplineSet
456 58 m 128,-1,1
 344 58 344 58 264 76 c 1,2,-1
 244 120 l 1,3,4
 327 99 327 99 456 99 c 0,5,6
 584 99 584 99 668 120 c 1,7,-1
 651 77 l 1,8,0
 568 58 568 58 456 58 c 128,-1,1
EndSplineSet
Colour: ffff
EndChar

StartChar: GrinningSquintingFace.1
Encoding: 110 -1 110
Width: 912
GlyphClass: 5
Flags: MW
LayerCount: 2
Back
SplineSet
888 288 m 0
 888 49.416 694.5839 -144 456 -144 c 0
 217.4394 -144 24 49.416 24 288 c 0
 24 526.5605 217.4394 720 456 720 c 0
 694.5839 720 888 526.5605 888 288 c 1024
456 192 m 0
 369.0468 192 311.3535 202.1269 240 216 c 0
 223.7041 219.1425 192 216 192 168 c 0
 192 72 302.2802 -48 456 -48 c 0
 609.6962 -48 720 72 720 168 c 0
 720 216 688.2958 219.1689 672 216 c 0
 600.6464 202.1269 542.9531 192 456 192 c 0
240 168 m 1
 240 168 312 144 456 144 c 0
 600 144 672 168 672 168 c 1
 672 168 624 72 456 72 c 0
 288 72 240 168 240 168 c 1
168.0234 240 m 0
 160.7275 240 153.5273 243.3115 148.7998 249.5996 c 0
 140.831 260.1845 142.9921 275.2314 153.5996 283.1767 c 0
 157.0312 285.7431 224.4238 335.5683 318.1425 353.5683 c 1
 258.7431 383.3535 192.8154 384 191.9765 384 c 0
 178.7275 384.0468 168 394.7998 168.0234 408.0468 c 0
 168.0234 421.2724 178.7529 432 192 432 c 0
 197.3037 432 322.8466 431.0878 400.9687 352.9687 c 0
 407.831 346.1035 409.8964 335.7841 406.1767 326.8076 c 0
 402.457 317.831 393.6962 312 384 312 c 0
 273.288 312 183.288 245.4726 182.4003 244.7998 c 0
 178.08 241.5605 173.0156 240 168.0234 240 c 0
743.9765 240.0234 m 0
 738.9843 240.0234 733.9433 241.5605 729.623 244.7763 c 0
 728.7119 245.4726 638.1611 312 528 312 c 0
 518.3037 312 509.5195 317.831 505.8232 326.8076 c 0
 502.1035 335.7841 504.1689 346.1035 511.0312 352.9687 c 0
 589.1767 431.0878 714.6962 432 720 432 c 0
 733.247 432 743.9531 421.2724 743.9765 408.0468 c 0
 744 394.7998 733.2724 384.0468 720.0468 384 c 0
 719.1845 384 653.2568 383.3535 593.8574 353.5683 c 1
 687.5761 335.5683 754.9687 285.7685 758.3769 283.1767 c 0
 768.9609 275.2314 771.1191 260.2314 763.2001 249.623 c 0
 758.496 243.3613 751.2958 240.0234 743.9765 240.0234 c 0
EndSplineSet
Fore
Refer: 133 -1 S 1 0 0 1 0 -24 2
Refer: 18 -1 N -1 0 0 1 720 408 0
Refer: 18 -1 N 1 0 0 1 192 408 0
Colour: ffff
EndChar

StartChar: GrinningFaceWithSweat.3
Encoding: 111 -1 111
Width: 912
GlyphClass: 5
Flags: MW
LayerCount: 2
Back
SplineSet
888 288 m 0
 888 49.416 694.5839 -144 456 -144 c 0
 217.4394 -144 24 49.416 24 288 c 0
 24 526.5605 217.4394 720 456 720 c 0
 694.5839 720 888 526.5605 888 288 c 1024
706.9687 292.873 m 0
 705.5273 296.1113 670.9921 372 600 372 c 0
 529.0312 372 494.4726 296.1113 493.0312 292.873 c 0
 490.8232 287.9042 492.2646 282.0957 496.5117 278.6884 c 0
 500.7119 275.2802 506.7353 275.1611 511.1533 278.3535 c 0
 511.4394 278.5683 541.4394 300 600 300 c 0
 658.2236 300 688.1767 278.8574 688.8466 278.3769 c 0
 690.9609 276.7919 693.5039 276 696 276 c 0
 698.6386 276 701.3037 276.8886 703.4882 278.6152 c 0
 707.7353 282.0234 709.2001 287.8808 706.9687 292.873 c 0
418.9687 292.873 m 0
 417.5273 296.1113 382.9921 372 312 372 c 0
 241.0312 372 206.4726 296.1113 205.0312 292.873 c 0
 202.8232 287.9042 204.2646 282.0957 208.4882 278.6884 c 0
 212.7119 275.2802 218.7353 275.1611 223.1269 278.3535 c 0
 223.4394 278.5683 253.416 300 312 300 c 0
 370.2236 300 400.1767 278.8574 400.8466 278.3769 c 0
 402.9609 276.7919 405.5039 276 408 276 c 0
 410.6386 276 413.3037 276.8886 415.4882 278.6152 c 0
 419.7607 282.0234 421.1767 287.8808 418.9687 292.873 c 0
456 192 m 0
 369.0468 192 311.3535 202.1269 240 216 c 0
 223.7041 219.1425 192 216 192 168 c 0
 192 72 302.2802 -48 456 -48 c 0
 609.6962 -48 720 72 720 168 c 0
 720 216 688.2958 219.1689 672 216 c 0
 600.6464 202.1269 542.9531 192 456 192 c 0
240 168 m 1
 240 168 312 144 456 144 c 0
 600 144 672 168 672 168 c 1
 672 168 624 72 456 72 c 0
 288 72 240 168 240 168 c 1
864 456 m 0
 864 389.7119 810.288 336 744 336 c 0
 677.7119 336 624 389.7119 624 456 c 0
 624 522.288 720 696 744 696 c 0
 768 696 864 522.288 864 456 c 0
EndSplineSet
Fore
Refer: 21 -1 N 1 0 0 1 744 696 0
Colour: ffff
EndChar

StartChar: RollingOnTheFloorLaughing.1
Encoding: 112 -1 112
Width: 912
GlyphClass: 5
Flags: MW
LayerCount: 2
Back
SplineSet
761.4726 593.4726 m 0
 930.1689 424.7763 930.1689 151.2236 761.4726 -17.4726 c 0
 592.7763 -186.1689 319.247 -186.1689 150.5273 -17.4726 c 0
 -18.1689 151.2236 -18.1689 424.7763 150.5273 593.4726 c 0
 319.2236 762.1689 592.7529 762.1689 761.4726 593.4726 c 1024
486.6962 257.2802 m 0
 402.8388 173.4238 337.4394 127.5839 255.2158 72.1425 c 0
 236.4726 59.4472 208.9433 25.8466 255.2392 -20.4726 c 0
 347.8076 -113.039 569.9042 -122.4003 718.1269 25.8232 c 0
 866.3769 174.0722 857.039 396.1425 764.4238 488.7353 c 0
 718.1269 535.0566 684.5039 507.5039 671.831 488.7353 c 0
 616.4394 406.5839 570.5761 341.1611 486.6962 257.2802 c 0
301.5351 25.8466 m 2
 301.5351 25.8466 394.1269 72.1425 532.9921 211.0312 c 0
 671.8808 349.8964 718.1533 442.4648 718.1533 442.4648 c 1
 718.1533 442.4648 764.4238 303.5761 602.4238 141.5761 c 0
 440.4238 -20.4472 301.5351 25.8466 301.5351 25.8466 c 2
222.3613 114.3847 m 0
 217.2001 109.2236 209.7607 106.4648 201.9843 107.5917 c 0
 188.8574 109.4648 179.7353 121.6074 181.6308 134.7353 c 0
 182.2314 138.9609 194.665 221.8574 248.208 300.8652 c 1
 185.1611 279.9121 138.0722 233.7607 137.4726 233.1611 c 0
 128.0878 223.8232 112.8964 223.8466 103.5351 233.2314 c 0
 94.1767 242.5917 94.1767 257.7607 103.5351 267.1191 c 0
 107.2802 270.8652 196.7041 358.9921 307.1767 358.9921 c 0
 316.8964 358.9921 325.6308 353.1611 329.3535 344.1845 c 0
 333.0722 335.208 331.0078 324.8886 324.1425 318.0234 c 0
 245.8574 239.7353 229.2724 129.0468 229.1035 127.9687 c 0
 228.3613 122.5917 225.8886 117.9121 222.3613 114.3847 c 0
629.5917 521.665 m 0
 626.0644 518.1347 621.4082 515.665 616.08 514.8964 c 0
 614.9531 514.7275 503.8574 497.7353 425.9765 419.8574 c 0
 419.1113 412.9921 408.7919 410.9277 399.8154 414.6464 c 0
 390.8388 418.3691 385.0078 427.1035 385.0078 436.8232 c 0
 385.0078 547.3193 473.1347 636.7197 476.8808 640.4648 c 0
 486.2392 649.8232 501.4082 649.8232 510.7685 640.4648 c 0
 520.1533 631.1269 520.1767 615.9121 510.8388 606.5527 c 0
 510.2158 605.9277 464.0644 558.8652 443.1113 495.8154 c 1
 522.1191 549.3613 604.9921 561.7919 609.2158 562.3925 c 0
 622.3193 564.2646 634.4648 555.1923 636.3613 542.0644 c 0
 637.5351 534.288 634.7763 526.8232 629.5917 521.665 c 0
746.4238 430.6806 m 0
 812.208 422.665 872.039 469.5117 880.0312 535.3193 c 0
 888.0468 601.1035 841.2236 660.9355 775.416 668.9531 c 0
 709.6308 676.9433 525.5996 602.6386 522.6962 578.8076 c 0
 519.7919 555 680.6386 438.7197 746.4238 430.6806 c 0
315.7685 0.0234 m 0
 323.7841 -65.7607 276.9355 -125.5917 211.1269 -133.5839 c 0
 145.3427 -141.5996 85.5117 -94.7763 77.496 -28.9687 c 0
 69.4804 36.8388 143.8076 220.873 167.6386 223.7763 c 0
 191.4472 226.6572 307.7275 65.8076 315.7685 0.0234 c 0
EndSplineSet
Fore
Refer: 18 -1 N -0.707108 -0.707108 -0.707108 0.707108 494 623.5 0
Refer: 18 -1 N 0.707108 0.707108 -0.707108 0.707108 120.5 250 0
Refer: 19 -1 N 0.964492 0.964492 -0.964492 0.964492 718 26 0
Colour: ffff
EndChar

StartChar: FaceWithTearsOfJoy.1
Encoding: 115 -1 115
Width: 912
Flags: MW
LayerCount: 2
Back
SplineSet
888 288 m 0
 888 49.416 694.5839 -144 456 -144 c 0
 217.4394 -144 24 49.416 24 288 c 0
 24 526.5605 217.4394 720 456 720 c 0
 694.5839 720 888 526.5605 888 288 c 1024
706.9687 292.873 m 0
 705.5273 296.1113 670.9921 372 600 372 c 0
 529.0312 372 494.4726 296.1113 493.0312 292.873 c 0
 490.8232 287.9042 492.2646 282.0957 496.5117 278.6884 c 0
 500.7119 275.2802 506.7353 275.1611 511.1533 278.3535 c 0
 511.4394 278.5683 541.4394 300 600 300 c 0
 658.2236 300 688.1767 278.8574 688.8466 278.3769 c 0
 690.9609 276.7919 693.5039 276 696 276 c 0
 698.6386 276 701.3037 276.8886 703.4882 278.6152 c 0
 707.7353 282.0234 709.2001 287.8808 706.9687 292.873 c 0
418.9687 292.873 m 0
 417.5273 296.1113 382.9921 372 312 372 c 0
 241.0312 372 206.4726 296.1113 205.0312 292.873 c 0
 202.8232 287.9042 204.2646 282.0957 208.4882 278.6884 c 0
 212.7119 275.2802 218.7353 275.1611 223.1269 278.3535 c 0
 223.4394 278.5683 253.416 300 312 300 c 0
 370.2236 300 400.1767 278.8574 400.8466 278.3769 c 0
 402.9609 276.7919 405.5039 276 408 276 c 0
 410.6386 276 413.3037 276.8886 415.4882 278.6152 c 0
 419.7607 282.0234 421.1767 287.8808 418.9687 292.873 c 0
768 336 m 0
 758.496 336 749.4726 341.7119 745.7041 351.0957 c 0
 703.0312 457.7763 596.3535 480.2392 595.2724 480.4804 c 0
 582.288 483.0722 573.8388 495.7197 576.457 508.7275 c 0
 579.0468 521.7353 591.6962 530.1113 604.7041 527.5429 c 0
 610.1269 526.4648 738.0468 499.5117 790.2724 368.9531 c 0
 795.1923 356.6386 789.1923 342.6728 776.8808 337.7529 c 0
 774 336.5527 770.9765 336 768 336 c 0
144 336 m 0
 141.0234 336 138.0234 336.5527 135.0957 337.7275 c 0
 122.7841 342.6464 116.8076 356.6152 121.7275 368.9277 c 0
 173.9531 499.4882 301.873 526.4394 307.2958 527.5195 c 0
 320.3271 530.0644 332.9277 521.6884 335.5429 508.7041 c 0
 338.1347 495.7431 329.7353 483.1191 316.7998 480.4804 c 0
 312.3613 479.5683 208.6572 456.9609 166.2958 351.0957 c 0
 162.5273 341.7119 153.5039 336 144 336 c 0
456 192 m 0
 369.0468 192 311.3535 202.1269 240 216 c 0
 223.7041 219.1425 192 216 192 168 c 0
 192 72 302.2802 -48 456 -48 c 0
 609.6962 -48 720 72 720 168 c 0
 720 216 688.2958 219.1689 672 216 c 0
 600.6464 202.1269 542.9531 192 456 192 c 0
240 168 m 1
 240 168 312 144 456 144 c 0
 600 144 672 168 672 168 c 1
 672 168 624 72 456 72 c 0
 288 72 240 168 240 168 c 1
284.3271 42.5039 m 0
 268.0078 -21.7431 202.7275 -60.5761 138.4804 -44.2568 c 0
 74.2568 -27.9609 35.4003 37.3193 51.6962 101.5683 c 0
 67.9921 165.8154 203.7841 310.5605 227.0644 304.6572 c 0
 250.3427 298.7275 300.623 106.7275 284.3271 42.5039 c 0
627.1923 42.5039 m 0
 643.5117 -21.7431 708.7919 -60.5761 773.039 -44.2568 c 0
 837.288 -27.9609 876.1425 37.3193 859.8232 101.5683 c 0
 843.5039 165.8154 707.7119 310.5605 684.4316 304.6572 c 0
 661.2001 298.7275 610.8964 106.7275 627.1923 42.5039 c 0
EndSplineSet
Fore
Refer: 23 -1 N -1 0 0 1 600 504 0
Refer: 23 -1 N 1 0 0 1 312 504 0
Refer: 106 -1 N 1 0 0 1 0 0 0
Colour: ffff
EndChar

StartChar: SlightlySmilingFace.1
Encoding: 117 -1 117
Width: 912
Flags: MW
LayerCount: 2
Back
SplineSet
24 288 m 0
 24 49.413 217.413 -144 456 -144 c 0
 694.5869 -144 888 49.413 888 288 c 0
 888 526.5869 694.5869 720 456 720 c 0
 217.413 720 24 526.5869 24 288 c 0
276.3613 153.0957 m 0
 277.4394 148.7998 304.3925 48 456 48 c 0
 607.6308 48 634.5605 148.7998 635.6386 153.0957 c 0
 636.9609 158.3037 634.6074 163.7041 629.9531 166.3925 c 0
 625.2724 169.0566 619.416 168.2646 615.5527 164.5429 c 0
 615.0957 164.0878 568.6572 120 456 120 c 0
 343.3427 120 296.8808 164.0878 296.4472 164.5195 c 0
 294.1425 166.7998 291.0722 168 288 168 c 0
 285.9843 168 283.9433 167.496 282.0957 166.4648 c 0
 277.3925 163.7763 275.039 158.3271 276.3613 153.0957 c 0
252 396 m 0
 252 349.6074 278.8642 312 312 312 c 0
 345.1357 312 372 349.6074 372 396 c 0
 372 442.3925 345.1357 480 312 480 c 0
 278.8642 480 252 442.3925 252 396 c 0
540 396 m 0
 540 349.6074 566.8642 312 600 312 c 0
 633.1357 312 660 349.6074 660 396 c 0
 660 442.3925 633.1357 480 600 480 c 0
 566.8642 480 540 442.3925 540 396 c 0
EndSplineSet
Fore
Refer: 90 -1 N 1 0 0 1 0 72 0
Refer: 24 -1 N 1 0 0 1 456 48 0
Colour: ffff
EndChar

StartChar: UpsideDownFace.1
Encoding: 118 -1 118
Width: 912
Flags: MW
LayerCount: 2
Back
SplineSet
24 288 m 0
 24 526.5839 217.416 720 456 720 c 0
 694.5839 720 888 526.5839 888 288 c 0
 888 49.416 694.5839 -144 456 -144 c 0
 217.416 -144 24 49.416 24 288 c 1024
231.9609 411.0957 m 0
 236.2314 407.2314 242.6152 406.9921 247.2001 410.4003 c 0
 248.1347 411.0957 341.3271 480 456 480 c 0
 570.3847 480 663.8886 411.0957 664.7998 410.4003 c 0
 669.3847 406.9921 675.7685 407.2802 680.039 411.0957 c 0
 684.288 414.9355 685.247 421.2724 682.2958 426.1689 c 0
 679.2001 431.3037 605.0878 552 456 552 c 0
 306.9121 552 232.7763 431.3271 229.7041 426.1689 c 0
 226.7529 421.247 227.6884 414.9355 231.9609 411.0957 c 0
240 204 m 0
 240 157.6074 266.8642 120 300 120 c 0
 333.1357 120 360 157.6074 360 204 c 0
 360 250.3925 333.1357 288 300 288 c 0
 266.8642 288 240 250.3925 240 204 c 0
552 204 m 0
 552 157.6074 578.8642 120 612 120 c 0
 645.1357 120 672 157.6074 672 204 c 0
 672 250.3925 645.1357 288 612 288 c 0
 578.8642 288 552 250.3925 552 204 c 0
EndSplineSet
Fore
Refer: 190 -1 N 1 0 0 1 0 -120 0
Refer: 9 -1 N -1 0 0 -1 456 552 0
Colour: ffff
EndChar

StartChar: MeltingFace.0
Encoding: 119 -1 119
Width: 912
Flags: MW
LayerCount: 2
Back
SplineSet
456 348 m 1153
792 180 m 0
 792 200 808 216 828 216 c 0
 848 216 864 200 864 180 c 0
 864 160 848 144 828 144 c 0
 808 144 792 160 792 180 c 0
828 180 m 1049
865.6806 -61.3925 m 0
 879.0869 -53.332 888.0654 -38.6416 888.0654 -21.872 c 0
 888.0654 -16.8847 887.2128 -12.1074 885.7431 -7.6074 c 0
 879.5273 11.831 860.0644 24 839.6386 24 c 2
 792 24 l 2
 778.7529 24 768 34.7529 768 48 c 0
 768 61.247 778.7529 72 792 72 c 2
 828 72 l 2
 847.6455 72.2626 863.5146 88.291 863.5146 108 c 0
 863.5146 127.8701 847.3828 144.0019 827.5097 144.0019 c 0
 827.3486 144.0019 827.2031 144.0019 827.039 144 c 0
 826.7343 143.9921 826.4296 143.9882 826.1269 143.9882 c 0
 807.3398 143.9882 792 159.2578 792 178.1533 c 2
 792 178.2236 l 2
 792 185.2568 793.4394 192.0957 796.2236 198.5527 c 0
 816.5341 244.1269 827.8291 294.5927 827.8291 347.6767 c 0
 827.8291 355.5605 827.7705 363.373 827.2802 371.1347 c 0
 815.4726 560.1611 657.8652 713.5429 468.5761 719.7841 c 0
 464.371 719.9228 460.1796 719.9912 456.0058 719.9912 c 0
 250.541 719.9912 84 553.4414 84 348 c 0
 84 291.0957 97.1533 237.3847 120 189.1425 c 2
 120 144.0234 l 2
 120 118.248 99.6943 96.0146 74.0371 96.0146 c 0
 73.7509 96.0146 73.4638 96.0175 73.1767 96.0234 c 0
 72.8437 96.0302 72.5087 96.0351 72.1738 96.0351 c 0
 45.6816 96.0351 24.1738 74.5263 24.1738 48.0351 c 0
 24.1738 46.666 24.248 45.3564 24.3613 44.0156 c 0
 26.4238 18.5996 49.6572 0 75.1923 0 c 2
 268.1269 0 l 2
 268.1552 0 268.1835 0 268.2119 0 c 0
 283.7089 0 296.29 -12.581 296.29 -28.08 c 0
 296.29 -35.8613 293.121 -42.9121 288 -48 c 1
 287.998 -47.998 215.2802 -66.1689 215.2802 -66.1689 c 2
 201.9277 -69.5175 192.0302 -81.6074 192.0302 -95.9902 c 0
 192.0302 -110.374 201.9277 -122.4589 215.2802 -125.8076 c 0
 261.6464 -137.4003 309.2158 -143.496 357 -143.9531 c 2
 422.0878 -144.5761 l 2
 422.7861 -144.583 423.4833 -144.5869 424.1816 -144.5869 c 0
 457.2167 -144.5869 489.9697 -136.7919 518.7841 -120.5761 c 0
 547.5605 -104.3886 580.7646 -95.1513 616.1064 -95.1513 c 0
 629.1113 -95.1513 641.8808 -96.2763 654.1923 -98.665 c 0
 673.1367 -102.3437 692.2617 -104.1601 711.3115 -104.1601 c 0
 765.3359 -104.1601 818.748 -89.5517 865.6806 -61.3925 c 0
EndSplineSet
Fore
SplineSet
24 48 m 128,-1,1
 24 68 24 68 38 82 c 128,-1,2
 52 96 52 96 72 96 c 128,-1,3
 92 96 92 96 106 110 c 128,-1,4
 120 124 120 124 120 144 c 2,5,-1
 120 189 l 1,6,7
 84 265 84 265 84 348 c 0,8,9
 84 501 84 501 193.5 610.5 c 128,-1,10
 303 720 303 720 456 720 c 128,-1,11
 609 720 609 720 718.5 610.5 c 128,-1,12
 828 501 828 501 828 348 c 0,13,14
 828 271 828 271 796 198 c 0,15,16
 792 188 792 188 792 180 c 0,17,18
 792 165 792 165 802.5 154.5 c 128,-1,19
 813 144 813 144 828 144 c 128,-1,20
 843 144 843 144 853.5 133.5 c 128,-1,21
 864 123 864 123 864 108 c 128,-1,22
 864 93 864 93 853.5 82.5 c 128,-1,23
 843 72 843 72 828 72 c 2,24,-1
 792 72 l 2,25,26
 782 72 782 72 775 65 c 128,-1,27
 768 58 768 58 768 48 c 128,-1,28
 768 38 768 38 775 31 c 128,-1,29
 782 24 782 24 792 24 c 2,30,-1
 840 24 l 2,31,32
 860 24 860 24 874 10 c 128,-1,33
 888 -4 888 -4 888 -24 c 0,34,35
 888 -35 888 -35 881.5 -45.5 c 128,-1,36
 875 -56 875 -56 865 -62 c 0,37,38
 766 -119 766 -119 656 -99 c 0,39,40
 637 -95 637 -95 616 -95 c 0,41,42
 566 -95 566 -95 521 -119.5 c 128,-1,43
 476 -144 476 -144 432 -144 c 2,44,-1
 365 -144 l 2,45,46
 289 -144 289 -144 216 -126 c 0,47,48
 205 -123 205 -123 198.5 -115 c 128,-1,49
 192 -107 192 -107 192 -96 c 128,-1,50
 192 -85 192 -85 199 -76.5 c 128,-1,51
 206 -68 206 -68 216 -66 c 2,52,-1
 288 -48 l 1,53,54
 296 -40 296 -40 296 -28 c 128,-1,55
 296 -16 296 -16 288 -8 c 128,-1,56
 280 0 280 0 268 0 c 2,57,-1
 72 0 l 2,58,59
 52 0 52 0 38 14 c 128,-1,0
 24 28 24 28 24 48 c 128,-1,1
EndSplineSet
Colour: ffff
EndChar

StartChar: MeltingFace.1
Encoding: 120 -1 120
Width: 912
Flags: MW
LayerCount: 2
Back
SplineSet
865.6806 -61.3925 m 4
 879.0869 -53.332 888.0654 -38.6416 888.0654 -21.872 c 4
 888.0654 -16.8847 887.2128 -12.1074 885.7431 -7.6074 c 4
 879.5273 11.831 860.0644 24 839.6386 24 c 6
 792 24 l 6
 778.7529 24 768 34.7529 768 48 c 4
 768 61.247 778.7529 72 792 72 c 6
 828 72 l 6
 847.6455 72.2626 863.5146 88.291 863.5146 108 c 4
 863.5146 127.8701 847.3828 144.0019 827.5097 144.0019 c 4
 827.3486 144.0019 827.2031 144.0019 827.039 144 c 4
 807.8388 143.496 792 158.9531 792 178.1533 c 6
 792 178.2236 l 6
 792 185.2568 793.4394 192.0957 796.2236 198.5527 c 4
 816.5341 244.1269 827.8291 294.5927 827.8291 347.6767 c 4
 827.8291 355.5605 827.7705 363.373 827.2802 371.1347 c 4
 815.4726 560.1611 657.8652 713.5429 468.5761 719.7841 c 4
 257.3769 726.7431 84 557.6152 84 348 c 4
 84 291.0957 97.1533 237.3847 120 189.1425 c 6
 120 144.0234 l 6
 120 117.9609 99.2392 95.5195 73.1767 96.0234 c 4
 72.8437 96.0302 72.5087 96.0351 72.1738 96.0351 c 4
 45.6816 96.0351 24.1738 74.5263 24.1738 48.0351 c 4
 24.1738 46.666 24.248 45.3564 24.3613 44.0156 c 4
 26.4238 18.5996 49.6572 0 75.1923 0 c 6
 268.1269 0 l 6
 268.1552 0 268.1835 0 268.2119 0 c 4
 283.7089 0 296.29 -12.581 296.29 -28.08 c 4
 296.29 -35.8613 293.121 -42.9121 288 -48 c 5
 287.998 -47.998 215.2802 -66.1689 215.2802 -66.1689 c 6
 201.9277 -69.5175 192.0302 -81.6074 192.0302 -95.9902 c 4
 192.0302 -110.374 201.9277 -122.4589 215.2802 -125.8076 c 4
 261.6464 -137.4003 309.2158 -143.496 357 -143.9531 c 6
 422.0878 -144.5761 l 6
 455.831 -144.9121 489.3613 -137.1347 518.7841 -120.5761 c 4
 547.5605 -104.3886 580.7646 -95.1513 616.1064 -95.1513 c 4
 629.1113 -95.1513 641.8808 -96.2763 654.1923 -98.665 c 4
 726.8652 -112.7763 802.2001 -99.4804 865.6806 -61.3925 c 4
473.665 143.9277 m 0
 455.5683 143.9277 437.5683 145.7998 419.8076 149.5429 c 0
 355.1767 163.247 299.7353 200.3037 267.6962 251.208 c 0
 265.4746 254.8457 264.1943 259.1201 264.1943 263.6904 c 0
 264.1943 276.9375 274.9472 287.6904 288.1943 287.6904 c 0
 296.6298 287.6904 304.0244 283.3808 308.3037 276.7919 c 0
 333.0957 237.3847 378.5039 207.3847 429.7431 196.5117 c 0
 472.1533 187.5117 537.9121 187.08 610.6074 235.9199 c 0
 614.4306 238.4882 619.0292 239.9882 623.9765 239.9882 c 0
 637.2236 239.9882 647.9785 229.2324 647.9785 215.9863 c 0
 647.9785 207.6845 643.8046 200.3906 637.3925 196.08 c 0
 586.2958 161.7607 529.6572 143.9277 473.665 143.9277 c 0
312 432 m 0
 312 392.2363 333.4902 360 360 360 c 0
 386.5097 360 408 392.2363 408 432 c 0
 408 471.7636 386.5097 504 360 504 c 0
 333.4902 504 312 471.7636 312 432 c 0
528 384 m 0
 528 344.2363 549.4902 312 576 312 c 0
 602.5097 312 624 344.2363 624 384 c 0
 624 423.7636 602.5097 456 576 456 c 0
 549.4902 456 528 423.7636 528 384 c 0
EndSplineSet
Fore
Refer: 28 -1 S 1 0 0 1 0 0 0
Refer: 4 -1 N 0.125 0 0 0.1875 576 384 0
Refer: 4 -1 N 0.125 0 0 0.1875 360 432 0
Colour: ffff
EndChar

